<?xml version="1.0" standalone="no"?>
<!DOCTYPE svg PUBLIC "-//W3C//DTD SVG 1.1//EN" "http://www.w3.org/Graphics/SVG/1.1/DTD/svg11.dtd" >
<svg xmlns="http://www.w3.org/2000/svg" xmlns:xlink="http://www.w3.org/1999/xlink" version="1.1">
<metadata>
Created by FontForge 20170731 at Sat Sep 19 01:49:33 2015
 By Aleksey,,,
(c) 2015 Apple Inc. All rights reserved.
</metadata>
<defs>
<font id="SFUIDisplay-Regular" horiz-adv-x="0" >
  <font-face 
    font-family="SFUIDisplay-Regular"
    font-weight="400"
    font-stretch="normal"
    units-per-em="2048"
    panose-1="0 0 5 0 0 0 0 0 0 0"
    ascent="1638"
    descent="-410"
    x-height="1078"
    cap-height="1443"
    bbox="-545 -908 2564 2125"
    underline-thickness="120"
    underline-position="-490"
    unicode-range="U+0020-FB02"
  />
<missing-glyph horiz-adv-x="2048" 
d="M100 1666v284h1848v-284h-1848zM100 1234v284h1848v-284h-1848zM100 802v284h1848v-284h-1848zM100 370v284h1848v-284h-1848zM100 -62v284h1848v-284h-1848zM100 -494v284h1848v-284h-1848z" />
    <glyph glyph-name=".notdef" horiz-adv-x="2048" 
d="M100 1666v284h1848v-284h-1848zM100 1234v284h1848v-284h-1848zM100 802v284h1848v-284h-1848zM100 370v284h1848v-284h-1848zM100 -62v284h1848v-284h-1848zM100 -494v284h1848v-284h-1848z" />
    <glyph glyph-name=".null" 
 />
    <glyph glyph-name="nonmarkingreturn" 
 />
    <glyph glyph-name="space" unicode=" " horiz-adv-x="490" 
 />
    <glyph glyph-name="exclam" unicode="!" horiz-adv-x="546" 
d="M274 -10q-48 0 -82 33q-33 33 -33 81t33 82q34 32 82 32t80 -32t33 -82q-1 -48 -33 -81t-80 -33zM183 1443h180l-12 -964h-156z" />
    <glyph glyph-name="quotedbl" unicode="&#x22;" horiz-adv-x="807" 
d="M672 934h-160v509h160v-509zM295 934h-160v509h160v-509z" />
    <glyph glyph-name="numbersign" unicode="#" horiz-adv-x="1206" 
d="M494 903l-71 -349h310l71 349h-310zM1179 901h-233l-71 -344h219l-28 -144h-220l-84 -413h-143l84 413h-308l-84 -413h-142l83 413h-216l28 144h219l69 344h-205l29 143h205l83 399h142l-80 -399h306l83 399h143l-82 -399h231z" />
    <glyph glyph-name="dollar" unicode="$" horiz-adv-x="1239" 
d="M312 1077q0 -180 242 -231v460q-106 -6 -174 -70t-68 -159zM961 388q0 104 -66 166q-66 61 -207 91v-496q130 7 202 71t71 168zM688 -137h-134v134q-204 15 -326 123t-123 275h171q8 -100 81 -164t197 -79v520l-80 22q-334 88 -334 386q0 152 111 256q111 105 303 124
v140h134v-139q188 -16 302 -123t119 -269h-170q-3 93 -71 159t-180 78v-489l85 -21q185 -49 273 -143t88 -258t-118 -272t-328 -125v-135z" />
    <glyph glyph-name="percent" unicode="%" horiz-adv-x="1508" 
d="M353 864q66 0 104 64t38 174q1 110 -37 174q-38 62 -104 62t-106 -64q-38 -64 -38 -172q0 -110 38 -174t105 -64zM655 1102q-1 -164 -83 -262t-219 -98t-220 98t-83 262q0 163 83 261t220 98t219 -98q82 -97 83 -261zM1156 106q66 0 104 64t38 174t-38 174
q-38 62 -104 62t-104 -64t-39 -172q1 -110 39 -174t104 -64zM1458 344q0 -164 -82 -262t-220 -98q-137 0 -220 98t-83 262q0 163 83 261t220 98q138 0 220 -98q82 -97 82 -261zM311 0h-174l1056 1443h172z" />
    <glyph glyph-name="ampersand" unicode="&#x26;" horiz-adv-x="1370" 
d="M802 1142q0 80 -54 132t-141 52q-86 0 -141 -53t-55 -124t35 -130t119 -143q129 66 183 126t54 140zM260 396q0 -122 89 -196t233 -74q98 0 190 36t150 98l-406 445q-29 -13 -48 -26q-112 -68 -160 -134t-48 -149zM566 -24q-214 0 -349 114t-135 294q0 250 283 400
q52 27 55 28q-97 104 -138 180t-41 155q0 137 104 229q103 92 261 91q158 0 261 -91t103 -216q0 -126 -72 -212t-237 -173l357 -385q69 129 69 384v43h166v-44q0 -317 -119 -504l253 -269h-226l-134 145q-91 -81 -211 -125t-250 -44z" />
    <glyph glyph-name="quotesingle" unicode="'" horiz-adv-x="430" 
d="M295 934h-160v509h160v-509z" />
    <glyph glyph-name="parenleft" unicode="(" horiz-adv-x="636" 
d="M175 599q0 133 18 251q32 211 100 341q68 131 162 251h146q-80 -95 -138 -241q-111 -276 -111 -600q0 -226 46 -402t96 -280t104 -196h-153q-196 243 -252 621q-18 122 -18 255z" />
    <glyph glyph-name="parenright" unicode=")" horiz-adv-x="636" 
d="M283 626q0 136 -26 283t-67 250q-78 196 -155 283h146q161 -205 220 -398q60 -193 60 -445q0 -537 -271 -876h-153q117 200 148 296q31 97 53 184t34 187q11 100 11 236z" />
    <glyph glyph-name="asterisk" unicode="*" horiz-adv-x="988" 
d="M790 881l-245 160l16 -291h-134l16 292l-245 -161l-65 116l259 132l-259 131l65 118l245 -163l-16 294h134l-16 -294l245 163l65 -118l-258 -131l258 -132z" />
    <glyph glyph-name="plus" unicode="+" horiz-adv-x="1238" 
d="M700 488v-458h-162v458h-427v162h427v447h162v-447h427v-162h-427z" />
    <glyph glyph-name="comma" unicode="," horiz-adv-x="520" 
d="M231 -257h-135l100 459h185z" />
    <glyph glyph-name="hyphen" unicode="-" horiz-adv-x="878" 
d="M767 488h-656v162h656v-162z" />
    <glyph glyph-name="hyphen" unicode="&#x2011;" horiz-adv-x="878" 
d="M767 488h-656v162h656v-162z" />
    <glyph glyph-name="period" unicode="." horiz-adv-x="520" 
d="M260 -10q-48 0 -81 33t-33 81t33 82q33 32 81 32t82 -32q32 -32 32 -82q0 -48 -32 -81q-34 -33 -82 -33z" />
    <glyph glyph-name="slash" unicode="/" horiz-adv-x="590" 
d="M146 -329h-146l441 1773h149z" />
    <glyph glyph-name="zero" unicode="0" horiz-adv-x="1242" 
d="M622 133q167 -1 258 157t91 430t-92 430t-257 159q-165 0 -258 -159t-93 -430t92 -429t259 -158zM622 -24q-250 0 -392 200q-140 200 -140 544t142 546t390 201q250 -1 390 -201t140 -544t-140 -545t-390 -201z" />
    <glyph glyph-name="one" unicode="1" horiz-adv-x="908" 
d="M485 0v1252h-4l-382 -275v190l384 276h176v-1443h-174z" />
    <glyph glyph-name="two" unicode="2" horiz-adv-x="1159" 
d="M108 1027q0 189 136 315t334 125q198 0 333 -115q134 -115 134 -281q0 -120 -66 -231t-248 -299l-365 -377v-4h703v-160h-952v124l508 535q145 153 193 232t47 176q1 97 -83 170t-207 73t-208 -81t-85 -202v-1h-174v1z" />
    <glyph glyph-name="three" unicode="3" horiz-adv-x="1212" 
d="M411 666v152h173q124 0 203 72t79 181q0 110 -73 175t-202 65t-207 -66t-90 -180h-173q15 184 143 293t326 109q199 0 328 -105q129 -106 129 -254t-80 -240t-216 -116v-4q164 -10 261 -104t97 -232q0 -136 -68 -233t-184 -150t-257 -53q-224 0 -361 112t-147 294h173
q12 -114 101 -182t232 -68q144 0 236 73t92 193t-90 194t-244 74h-181z" />
    <glyph glyph-name="four" unicode="4" horiz-adv-x="1239" 
d="M256 458h547v835h-3q-379 -541 -544 -831v-4zM977 1443v-985h204v-158h-204v-300h-174v300h-725v163q169 314 633 980h266z" />
    <glyph glyph-name="five" unicode="5" horiz-adv-x="1198" 
d="M622 -24q-216 0 -354 117t-150 301h177q12 -116 101 -188q90 -72 228 -72t230 92t93 238q-1 146 -93 240t-236 93q-101 0 -183 -43t-126 -119h-169l79 808h826v-160h-678l-44 -470h4q49 65 135 102t188 37q208 0 342 -136t135 -350q0 -214 -144 -352q-145 -138 -361 -138
z" />
    <glyph glyph-name="six" unicode="6" horiz-adv-x="1226" 
d="M637 135q138 0 234 95q96 94 96 234t-92 232t-235 91q-144 0 -238 -91q-94 -92 -94 -230t96 -234t233 -97zM639 -25q-162 1 -286 85t-193 244t-69 393q-1 365 147 568t413 203q184 0 314 -102t165 -272h-183q-29 98 -110 156t-188 59q-181 0 -280 -155t-104 -443h3
q49 106 159 170t244 64q207 0 343 -136q136 -135 136 -345t-144 -350t-367 -139z" />
    <glyph glyph-name="seven" unicode="7" horiz-adv-x="1120" 
d="M853 1283h-777v160h955v-167l-642 -1276h-189l653 1279v4z" />
    <glyph glyph-name="eight" unicode="8" horiz-adv-x="1227" 
d="M612 832q126 0 208 67q80 67 80 173t-80 172q-80 68 -207 68t-207 -68t-80 -172q0 -106 80 -173t206 -67zM614 133q148 0 244 76q96 77 95 195q1 118 -95 194t-245 76t-245 -76t-95 -195q0 -118 96 -194q97 -76 245 -76zM614 -24q-230 0 -377 116t-147 298q0 135 85 237
t225 134v4q-117 37 -185 123t-68 200q1 163 133 271t334 108q202 1 332 -107q132 -108 132 -273q0 -113 -67 -199t-185 -123v-4q140 -33 226 -135t85 -236q0 -182 -147 -298q-146 -116 -376 -116z" />
    <glyph glyph-name="nine" unicode="9" horiz-adv-x="1226" 
d="M586 656q142 0 238 91q95 91 95 229q1 138 -95 234t-235 96t-235 -94t-96 -234q0 -138 93 -230t235 -92zM555 498q-207 0 -343 136t-136 346t144 348q144 140 367 140q163 0 287 -84q261 -178 261 -638q0 -366 -147 -568t-412 -202q-184 0 -315 102t-164 272h183
q29 -98 110 -158t188 -59q180 1 280 157t103 444h-3q-46 -108 -156 -172t-247 -64z" />
    <glyph glyph-name="colon" unicode=":" horiz-adv-x="520" 
d="M260 726q-48 0 -81 33t-33 81t33 82q33 32 81 32t82 -32q32 -32 32 -82q0 -48 -32 -81q-34 -33 -82 -33zM260 -10q-48 0 -81 33t-33 81t33 82q33 32 81 32t82 -32q32 -32 32 -82q0 -48 -32 -81q-34 -33 -82 -33z" />
    <glyph glyph-name="semicolon" unicode=";" horiz-adv-x="520" 
d="M197 -257h-135l98 459h187zM260 726q-48 0 -81 33t-33 81t33 82q33 32 81 32t82 -32q32 -32 32 -82q0 -48 -32 -81q-34 -33 -82 -33z" />
    <glyph glyph-name="less" unicode="&#x3c;" horiz-adv-x="1239" 
d="M1059 980l-707 -400v-9l707 -378v-186l-879 491v142l879 526v-186z" />
    <glyph glyph-name="equal" unicode="=" horiz-adv-x="1239" 
d="M1108 684h-977v154h977v-154zM1108 301h-977v154h977v-154z" />
    <glyph glyph-name="greater" unicode="&#x3e;" horiz-adv-x="1239" 
d="M180 981v186l879 -526v-142l-879 -491v186l707 378v9z" />
    <glyph glyph-name="question" unicode="?" horiz-adv-x="1002" 
d="M458 -10q-48 0 -82 33q-33 33 -33 81t33 82q34 32 82 32t80 -32t33 -82q-1 -48 -33 -81t-80 -33zM484 1454q194 0 314 -103q118 -103 118 -259q0 -219 -209 -345q-95 -56 -129 -106t-34 -130v-65h-175v92q-2 183 192 300q97 58 133 112t36 140t-68 148q-68 60 -178 60
q-112 0 -180 -62t-77 -170h-171q10 172 122 280t306 108z" />
    <glyph glyph-name="at" unicode="@" horiz-adv-x="1791" 
d="M983 -107q191 0 295 48v-126q-139 -49 -330 -49t-345 56q-155 56 -267 159q-112 104 -175 263q-63 158 -63 350t61 348t169 264t262 168t330 61t326 -53q148 -54 254 -150t166 -232q60 -138 60 -301q0 -241 -101 -387t-275 -146q-87 0 -151 47t-73 121h-8
q-32 -76 -98 -118t-156 -41q-156 0 -252 117q-96 118 -96 304t97 302t251 115q80 -1 147 -39t95 -102h8v122h151v-587q1 -51 29 -81t84 -30q92 0 150 108t57 292q0 184 -85 322q-84 138 -238 215q-154 76 -348 76q-194 -1 -348 -91t-240 -254t-87 -349q-1 -186 53 -320
q54 -133 148 -221t224 -134q128 -46 319 -47zM890 875q-102 0 -158 -74q-56 -75 -56 -205t56 -205t158 -75q100 0 161 76t61 204t-60 204t-162 75z" />
    <glyph glyph-name="A" unicode="A" horiz-adv-x="1292" 
d="M643 1224l-231 -658h468l-231 658h-6zM1078 0l-145 413h-574l-145 -413h-189l532 1443h178l532 -1443h-189z" />
    <glyph glyph-name="B" unicode="B" horiz-adv-x="1256" 
d="M320 159h356q163 0 247 65t84 190q0 252 -348 252h-339v-507zM320 1284v-463h288q160 0 244 62t85 174q0 111 -71 169t-202 58h-344zM703 0h-563v1443h565q185 0 299 -99t115 -261q-1 -113 -73 -205t-176 -110v-8q146 -19 234 -115t88 -240q0 -191 -130 -298t-359 -107z
" />
    <glyph glyph-name="C" unicode="C" horiz-adv-x="1405" 
d="M734 -24q-298 0 -474 202t-176 542q0 342 177 544t473 203q236 1 400 -131t199 -348h-182q-35 142 -149 228t-268 85q-211 0 -338 -158q-127 -159 -127 -423t126 -421t340 -157q159 0 268 73t148 205h182q-50 -214 -205 -329t-394 -115z" />
    <glyph glyph-name="D" unicode="D" horiz-adv-x="1399" 
d="M320 1281v-1119h303q245 0 377 144t132 415q0 270 -132 415t-377 145h-303zM140 1443h495q321 -1 501 -191t180 -530t-180 -532q-180 -190 -501 -190h-495v1443z" />
    <glyph glyph-name="E" unicode="E" horiz-adv-x="1131" 
d="M1034 162v-162h-894v1443h894v-162h-714v-463h677v-160h-677v-496h714z" />
    <glyph glyph-name="F" unicode="F" horiz-adv-x="1081" 
d="M320 0h-180v1443h876v-162h-696v-496h639v-160h-639v-625z" />
    <glyph glyph-name="G" unicode="G" horiz-adv-x="1447" 
d="M1357 597q1 -293 -161 -457t-458 -164t-474 204q-180 204 -180 546q0 341 179 541t482 200q235 -1 399 -129t204 -343h-189q-45 146 -153 226t-261 80q-223 1 -349 -151t-127 -422q0 -270 128 -428t334 -158t326 114t120 294v26h-407v158h587v-137z" />
    <glyph glyph-name="H" unicode="H" horiz-adv-x="1432" 
d="M1292 0h-180v657h-792v-657h-180v1443h180v-624h792v624h180v-1443z" />
    <glyph glyph-name="I" unicode="I" horiz-adv-x="460" 
d="M320 0h-180v1443h180v-1443z" />
    <glyph glyph-name="J" unicode="J" horiz-adv-x="1014" 
d="M42 339h179q3 -91 67 -149t172 -58t171 70t63 201v1040h180v-1041q0 -204 -112 -320t-302 -116t-304 104t-114 269z" />
    <glyph glyph-name="K" unicode="K" horiz-adv-x="1260" 
d="M320 0h-180v1443h180v-704h10l637 704h227l-593 -639l646 -804h-230l-541 676l-156 -172v-504z" />
    <glyph glyph-name="L" unicode="L" horiz-adv-x="1074" 
d="M1016 162v-162h-876v1443h180v-1281h696z" />
    <glyph glyph-name="M" unicode="M" horiz-adv-x="1702" 
d="M1562 1443v-1443h-168v1112h-7l-460 -1102h-152l-460 1102h-7v-1112h-168v1443h209l498 -1204h8l498 1204h209z" />
    <glyph glyph-name="N" unicode="N" horiz-adv-x="1432" 
d="M318 0h-178v1443h175l790 -1133h9v1133h178v-1443h-175l-790 1129h-9v-1129z" />
    <glyph glyph-name="O" unicode="O" horiz-adv-x="1498" 
d="M749 1301q-221 -1 -351 -157t-129 -422q-1 -266 129 -424q130 -156 351 -156t351 156t129 424q1 266 -129 422t-351 157zM749 1467q307 0 486 -201t179 -545q0 -345 -179 -545t-486 -200t-486 200t-179 545q0 344 179 545t486 201z" />
    <glyph glyph-name="P" unicode="P" horiz-adv-x="1213" 
d="M320 1283v-608h318q154 1 239 81t85 224t-84 224t-240 79h-318zM140 1443h545q203 1 333 -129t129 -334q0 -204 -130 -335q-130 -130 -334 -130h-363v-515h-180v1443z" />
    <glyph glyph-name="Q" unicode="Q" horiz-adv-x="1498" 
d="M1229 721q1 267 -129 423t-351 157q-221 -1 -351 -157t-129 -422q-1 -266 129 -424q130 -156 351 -156q81 0 153 23l-180 248h202l123 -168q182 153 182 476zM749 -24q-307 0 -486 200t-179 545q0 344 179 545t486 201t486 -201t179 -545q0 -208 -68 -367t-194 -254
l191 -263h-202l-134 184q-115 -45 -258 -45z" />
    <glyph glyph-name="R" unicode="R" horiz-adv-x="1237" 
d="M320 571v-571h-180v1443h551q209 1 335 -117t125 -313q0 -151 -77 -261t-213 -153l334 -599h-211l-309 571h-355zM320 1283v-553h355q139 0 215 72t75 204q0 132 -79 204q-79 73 -219 73h-347z" />
    <glyph glyph-name="S" unicode="S" horiz-adv-x="1216" 
d="M618 138q150 0 246 70t96 168t-66 157t-213 97l-185 48q-200 50 -292 142t-92 239q0 180 142 294t363 114q220 1 361 -115t147 -297h-180q-12 116 -100 183q-89 67 -229 67t-228 -66t-89 -160q1 -95 65 -147t211 -90l151 -40q224 -56 322 -149t98 -248q0 -197 -146 -313
t-384 -116q-240 0 -386 115t-159 306h181q12 -117 114 -188t252 -71z" />
    <glyph glyph-name="T" unicode="T" horiz-adv-x="1210" 
d="M695 0h-180v1281h-465v162h1110v-162h-465v-1281z" />
    <glyph glyph-name="U" unicode="U" horiz-adv-x="1426" 
d="M320 1443v-925q0 -168 104 -272t289 -104t289 104t104 272v925h180v-937q0 -234 -154 -382t-419 -148t-419 148t-154 382v937h180z" />
    <glyph glyph-name="V" unicode="V" horiz-adv-x="1292" 
d="M735 0h-178l-532 1443h189l429 -1224h6l429 1224h189z" />
    <glyph glyph-name="W" unicode="W" horiz-adv-x="1892" 
d="M941 1145l-333 -1145h-170l-393 1443h188l289 -1178h8l325 1178h182l325 -1178h8l289 1178h188l-393 -1443h-170l-333 1145h-10z" />
    <glyph glyph-name="X" unicode="X" horiz-adv-x="1300" 
d="M45 0l491 723v7l-485 713h217l385 -580h7l390 580h205l-498 -722v-6l487 -715h-216l-383 575h-7l-389 -575h-204z" />
    <glyph glyph-name="Y" unicode="Y" horiz-adv-x="1254" 
d="M717 0h-180v621l-512 822h205l394 -648h6l394 648h205l-512 -822v-621z" />
    <glyph glyph-name="Z" unicode="Z" horiz-adv-x="1263" 
d="M98 0v128l823 1146v7h-795v162h1022v-128l-819 -1146v-7h836v-162h-1067z" />
    <glyph glyph-name="bracketleft" unicode="[" horiz-adv-x="664" 
d="M205 1444h452v-136h-284v-1413h296v-135h-464v1684z" />
    <glyph glyph-name="backslash" unicode="\" horiz-adv-x="590" 
d="M444 -329l-444 1773h149l441 -1773h-146z" />
    <glyph glyph-name="bracketright" unicode="]" horiz-adv-x="664" 
d="M459 1444v-1684h-464v135h297v1413h-284v136h451z" />
    <glyph glyph-name="asciicircum" unicode="^" horiz-adv-x="896" 
d="M440 1291l-218 -475h-167l298 627h190l298 -627h-167l-218 475h-16z" />
    <glyph glyph-name="underscore" unicode="_" horiz-adv-x="828" 
d="M882 -235h-936v128h936v-128z" />
    <glyph glyph-name="grave" unicode="`" horiz-adv-x="1005" 
d="M705 1250h-148l-261 300h198z" />
    <glyph glyph-name="a" unicode="a" horiz-adv-x="1062" 
d="M433 -10q-164 0 -264 87t-100 228t104 221t300 91l302 18v90q0 100 -64 154q-65 54 -171 54t-170 -45t-81 -121h-167q4 137 121 229t297 92t295 -94q114 -94 114 -254v-740h-165v187h-4q-46 -89 -140 -143t-207 -54zM485 141q117 1 203 77t87 192v87l-282 -18
q-246 -15 -246 -173q1 -75 61 -120t177 -45z" />
    <glyph glyph-name="b" unicode="b" horiz-adv-x="1173" 
d="M618 933q-142 1 -230 -109t-87 -286q-1 -176 87 -284q88 -109 230 -109t226 107q86 106 86 286t-86 288q-84 108 -226 107zM648 -10q-242 0 -351 192h-4v-182h-165v1506h174v-603h4q51 89 141 137t205 48q204 0 330 -152t126 -398t-126 -397t-334 -151z" />
    <glyph glyph-name="c" unicode="c" horiz-adv-x="1060" 
d="M546 933q-130 0 -217 -108t-87 -288t88 -286t215 -106q250 0 295 200h171q-21 -159 -145 -257t-307 -98q-224 0 -359 148t-135 399t135 401q136 150 342 150t328 -106t139 -255h-171q-17 91 -90 149q-72 58 -202 57z" />
    <glyph glyph-name="d" unicode="d" horiz-adv-x="1173" 
d="M557 933q-141 0 -227 -108q-86 -109 -87 -287q1 -178 87 -286t227 -107q141 0 228 109t87 285t-87 285t-228 109zM65 538q0 246 128 398t330 152q115 0 205 -48t139 -137h4v603h174v-1506h-166v182h-3q-109 -192 -349 -192q-204 0 -333 152q-129 150 -129 396z" />
    <glyph glyph-name="e" unicode="e" horiz-adv-x="1084" 
d="M559 -10q-227 0 -361 147t-133 398q0 251 133 402t351 151t344 -142t126 -387v-68h-774v-10q0 -154 87 -246t231 -92q101 1 175 45t96 120h172q-22 -138 -148 -228t-299 -90zM548 935q-128 0 -210 -84q-84 -84 -93 -221h593q-2 137 -82 221t-208 84z" />
    <glyph glyph-name="f" unicode="f" horiz-adv-x="629" 
d="M175 0v934h-150v144h150v100q1 150 69 219t218 69q48 0 97 -9v-144q-37 8 -93 8q-115 0 -117 -143v-100h210v-144h-210v-934h-174z" />
    <glyph glyph-name="g" unicode="g" horiz-adv-x="1163" 
d="M579 -385q-205 -1 -327 81t-141 216h181q20 -66 94 -106t198 -40t205 68q82 68 82 182v169h-4q-51 -89 -142 -137t-204 -48q-205 0 -331 150t-125 394q0 246 126 395t334 149q113 0 205 -48t146 -137h3v175h166v-1048q-1 -193 -131 -304t-335 -111zM554 155
q142 -1 230 107t87 282q1 174 -87 281q-88 108 -230 108q-142 -1 -226 -107q-85 -106 -85 -282t85 -283q84 -106 226 -106z" />
    <glyph glyph-name="h" unicode="h" horiz-adv-x="1141" 
d="M128 0v1506h174v-603h4q102 185 342 185q176 0 278 -109t102 -291v-688h-174v657q0 131 -66 203t-197 73q-131 0 -210 -85t-79 -228v-620h-174z" />
    <glyph glyph-name="i" unicode="i" horiz-adv-x="430" 
d="M216 1252q-46 0 -78 32t-33 78q1 46 33 78t78 32t77 -32q32 -32 32 -78t-32 -78q-31 -32 -77 -32zM128 0v1078h174v-1078h-174z" />
    <glyph glyph-name="j" unicode="j" horiz-adv-x="430" 
d="M216 1252q-46 0 -78 32t-33 78q1 46 33 78t78 32t77 -32q32 -32 32 -78t-32 -78q-31 -32 -77 -32zM302 1078v-1131q0 -165 -80 -241t-251 -76h-31v147h27q89 -1 125 37t36 130v1134h174z" />
    <glyph glyph-name="k" unicode="k" horiz-adv-x="1026" 
d="M302 0h-174v1506h174v-910l483 482h212l-471 -466l485 -612h-202l-405 505l-102 -96v-409z" />
    <glyph glyph-name="l" unicode="l" horiz-adv-x="430" 
d="M128 0v1506h174v-1506h-174z" />
    <glyph glyph-name="m" unicode="m" horiz-adv-x="1701" 
d="M118 0v1078h164v-175h4q38 85 120 135t188 50q107 0 186 -53t114 -151h4q46 96 136 150t203 54q159 0 255 -96t96 -256v-736h-174v696q0 112 -60 174t-167 63q-107 0 -177 -72t-70 -183v-678h-174v717q0 98 -62 157t-166 59q-104 1 -175 -75t-71 -189v-669h-174z" />
    <glyph glyph-name="n" unicode="n" horiz-adv-x="1115" 
d="M118 0v1078h164v-175h4q103 185 342 185q178 0 276 -106t98 -291v-691h-174v661q0 272 -252 272q-132 1 -208 -83t-76 -224v-626h-174z" />
    <glyph glyph-name="o" unicode="o" horiz-adv-x="1124" 
d="M562 145q150 1 236 105q84 104 84 290t-84 289q-84 104 -236 104q-152 -1 -236 -105t-84 -289t85 -289t235 -105zM562 -10q-227 0 -362 149t-135 400t135 400t362 149t362 -149t135 -400t-135 -400t-362 -149z" />
    <glyph glyph-name="p" unicode="p" horiz-adv-x="1163" 
d="M606 145q142 -1 228 107t86 286t-86 287q-86 108 -228 108q-141 0 -228 -109t-87 -285q1 -176 87 -285t228 -109zM636 1088q206 0 334 -152t128 -397t-127 -397t-331 -152q-114 0 -204 48t-140 137h-4v-535h-174v1438h165v-175h4q47 85 142 135t207 50z" />
    <glyph glyph-name="q" unicode="q" horiz-adv-x="1163" 
d="M554 145q141 -1 229 109t88 285t-88 285t-229 109q-141 1 -226 -107t-85 -288t85 -286q85 -107 226 -107zM525 1088q117 0 208 -48t143 -137h3v175h166v-1438h-174v535h-4q-51 -89 -141 -137t-205 -48q-204 0 -330 152t-126 398q1 246 127 397t333 151z" />
    <glyph glyph-name="r" unicode="r" horiz-adv-x="649" 
d="M118 0v1078h164v-175h4q24 85 95 135t166 50q42 0 72 -6v-171q-28 10 -95 10q-104 0 -168 -70t-64 -184v-667h-174z" />
    <glyph glyph-name="s" unicode="s" horiz-adv-x="984" 
d="M100 777q0 136 112 223t281 87q169 1 281 -87t117 -221h-167q-8 76 -70 120t-162 44t-160 -43q-61 -43 -61 -114q0 -108 182 -153l164 -41q163 -42 229 -106t67 -192t-119 -216t-300 -88t-296 86q-115 86 -128 227h175q13 -81 79 -125t175 -44q111 0 175 42t64 108
q0 64 -38 98t-130 58l-189 49q-281 73 -281 288z" />
    <glyph glyph-name="t" unicode="t" horiz-adv-x="634" 
d="M349 287q0 -144 122 -144q57 0 87 5v-147q-38 -9 -112 -9q-146 0 -208 66t-63 222v654h-150v144h150v243h174v-243h210v-144h-210v-647z" />
    <glyph glyph-name="u" unicode="u" horiz-adv-x="1115" 
d="M997 1078v-1078h-164v178h-4q-102 -188 -343 -188q-176 0 -274 106t-99 291v691h174v-661q0 -272 252 -272q132 -1 208 83t76 224v626h174z" />
    <glyph glyph-name="v" unicode="v" horiz-adv-x="1022" 
d="M997 1078l-398 -1078h-176l-398 1078h182l302 -890h4l303 890h181z" />
    <glyph glyph-name="w" unicode="w" horiz-adv-x="1512" 
d="M1482 1078l-302 -1078h-176l-246 838h-4l-246 -838h-176l-302 1078h172l219 -881h4l247 881h168l247 -881h4l219 881h172z" />
    <glyph glyph-name="x" unicode="x" horiz-adv-x="991" 
d="M496 413h-4l-263 -413h-194l369 539l-363 539h194l263 -407h4l260 407h194l-365 -532l360 -546h-194z" />
    <glyph glyph-name="y" unicode="y" horiz-adv-x="1026" 
d="M210 -391q-39 0 -76 7v147q30 -6 88 -6q58 1 103 41t78 137l21 64l-399 1079h185l302 -901h4l302 901h183l-422 -1144q-69 -187 -147 -256t-222 -69z" />
    <glyph glyph-name="z" unicode="z" horiz-adv-x="990" 
d="M95 0v126l601 805v3h-600v144h796v-129l-597 -802v-3h600v-144h-800z" />
    <glyph glyph-name="braceleft" unicode="{" horiz-adv-x="734" 
d="M490 365v-334q0 -118 55 -171t179 -53h45v-141h-60q-195 0 -289 87t-94 266v289q0 119 -39 165t-139 46v191q100 0 139 46t39 167v255q0 176 94 260t289 84h60v-141h-45q-126 -1 -180 -53t-54 -172v-296q0 -216 -179 -234v-25q179 -17 179 -236z" />
    <glyph glyph-name="bar" unicode="|" horiz-adv-x="446" 
d="M296 -326h-146v1769h146v-1769z" />
    <glyph glyph-name="braceright" unicode="}" horiz-adv-x="734" 
d="M244 860v296q0 120 -54 172t-180 53h-45v141h60q195 0 289 -84t94 -260v-255q0 -121 39 -167t139 -46v-191q-100 0 -139 -46t-39 -165v-289q0 -179 -94 -266t-289 -87h-60v141h45q124 0 179 53t55 171v334q0 219 179 236v25q-179 18 -179 234z" />
    <glyph glyph-name="asciitilde" unicode="~" horiz-adv-x="1239" 
d="M415 737q-130 0 -141 -179h-160q-1 160 81 252t214 92t257 -125q95 -100 158 -100q131 0 142 179h159q1 -160 -81 -252t-213 -92q-132 0 -243 112q-110 112 -173 113z" />
    <glyph glyph-name="nonbreakingspace" unicode="&#xa0;" horiz-adv-x="490" 
 />
    <glyph glyph-name="exclamdown" unicode="&#xa1;" horiz-adv-x="546" 
d="M274 885q-48 0 -82 33q-33 34 -33 82t33 80q34 32 82 33q48 -1 80 -33t33 -80q-1 -48 -33 -82q-32 -33 -80 -33zM183 -342l12 964h156l12 -964h-180z" />
    <glyph glyph-name="cent" unicode="&#xa2;" horiz-adv-x="1239" 
d="M719 0h-172v171q-199 31 -316 181t-117 372t118 370q118 149 315 178v171h172v-169q167 -18 281 -124t125 -250h-174q-21 104 -105 164t-224 60q-138 0 -234 -112t-96 -288q0 -177 96 -291t248 -114q274 0 315 219h174q-17 -148 -129 -250t-277 -119v-169z" />
    <glyph glyph-name="sterling" unicode="&#xa3;" horiz-adv-x="1239" 
d="M374 154h786v-154h-1062v152q132 30 220 130t88 219q0 66 -24 152h-284v144h234q-61 171 -61 263q-1 196 137 306t380 111q187 0 300 -53v-160q-38 22 -122 38t-169 16q-161 0 -251 -68t-91 -175q0 -108 60 -278h471v-144h-424q21 -84 21 -145q1 -118 -59 -207t-150 -143
v-4z" />
    <glyph glyph-name="currency" unicode="&#xa4;" horiz-adv-x="1239" 
d="M1011 655q0 -120 -68 -218l169 -169l-106 -106l-169 169q-97 -66 -216 -66t-219 67l-169 -170l-106 106l170 170q-67 100 -67 218t67 217l-170 170l106 106l169 -169q100 67 218 67t218 -67l168 169l106 -106l-168 -169q67 -99 67 -219zM357 656q-1 -108 77 -186t187 -78
t186 78t77 186t-77 186t-186 78t-187 -78t-77 -186z" />
    <glyph glyph-name="yen" unicode="&#xa5;" horiz-adv-x="1239" 
d="M987 269h-277v-269h-180v269h-277v136h277v166h-277v136h223l-458 736h205l394 -647h6l393 647h205l-457 -736h223v-136h-277v-166h277v-136z" />
    <glyph glyph-name="brokenbar" unicode="&#xa6;" horiz-adv-x="448" 
d="M297 -326h-146v669h146v-669zM297 774h-146v669h146v-669z" />
    <glyph glyph-name="section" unicode="&#xa7;" horiz-adv-x="988" 
d="M502 -257q-176 0 -288 83q-114 83 -124 216h176q10 -69 77 -111t167 -42t164 44t63 107q0 63 -47 101t-151 66l-141 38q-164 43 -240 113t-77 170q1 100 59 169t164 98v16q-219 85 -219 273q0 140 111 226t284 87q173 0 280 -78t124 -211h-173q-11 65 -73 104t-160 39
q-98 1 -158 -43q-62 -44 -62 -108t46 -101q46 -38 149 -66l141 -38q162 -43 238 -111t75 -170q0 -102 -71 -181t-183 -101v-16q254 -57 254 -257q-1 -139 -115 -227t-290 -89zM730 564q0 139 -170 176l-83 18q-91 0 -155 -56t-64 -126q0 -138 171 -176l83 -18q92 0 155 55
t63 127z" />
    <glyph glyph-name="dieresis" unicode="&#xa8;" horiz-adv-x="1004" 
d="M699 1261q-46 0 -79 33t-33 79t33 79q34 33 80 33q46 -1 78 -33t33 -78q0 -46 -33 -80q-33 -33 -79 -33zM305 1261q-46 0 -79 33t-33 79t33 79q34 33 80 33q46 -1 78 -33t33 -78q0 -46 -33 -80q-33 -33 -79 -33z" />
    <glyph glyph-name="copyright" unicode="&#xa9;" horiz-adv-x="1706" 
d="M856 924q-102 0 -170 -80t-69 -217q0 -139 69 -219q70 -80 170 -80q197 0 236 151h139q-19 -123 -115 -199t-260 -76q-166 0 -274 114t-107 308q-1 194 107 308t273 114t261 -80t115 -200h-139q-18 68 -76 112t-160 44zM854 -28q180 0 330 85t235 235q86 150 86 334
t-86 335q-85 151 -235 235t-331 84t-330 -84t-235 -235t-87 -335q1 -184 87 -334t236 -235t330 -85zM854 -168q-220 0 -402 104t-287 286t-105 404t105 406q105 182 287 285t402 103t402 -103t286 -285t104 -406q0 -222 -104 -404t-286 -286t-402 -104z" />
    <glyph glyph-name="ordfeminine" unicode="&#xaa;" horiz-adv-x="729" 
d="M268 712q-92 0 -158 59q-68 59 -68 155t71 150t206 62l194 11v56q1 61 -39 94t-105 33t-105 -28t-49 -75h-137q2 97 84 160t210 63t206 -64q80 -64 80 -172v-497h-140v120h-3q-65 -127 -247 -127zM336 828q72 0 124 46q53 46 53 117v56l-175 -11q-149 -11 -149 -107
q-1 -45 37 -73t110 -28z" />
    <glyph glyph-name="guillemotleft" unicode="&#xab;" horiz-adv-x="1303" 
d="M338 572v-14l351 -413h-204l-350 416v8l350 416h204zM816 572v-14l351 -413h-204l-350 416v8l350 416h204z" />
    <glyph glyph-name="logicalnot" unicode="&#xac;" horiz-adv-x="1239" 
d="M1093 654v-528h-148v380h-799v148h947z" />
    <glyph glyph-name="registered" unicode="&#xae;" horiz-adv-x="1160" 
d="M494 1216v-130h107q35 0 55 18t20 50q0 62 -72 62h-110zM494 846h-95v450h221q70 0 114 -39t44 -95t-28 -92t-78 -44l129 -180h-119l-109 167h-79v-167zM580 692q154 0 262 108t108 262t-108 262t-262 108t-262 -108t-108 -262t108 -262t262 -108zM580 592
q-132 0 -242 62t-174 170t-64 238q0 198 140 334t340 136t340 -136t140 -334t-140 -334t-340 -136z" />
    <glyph glyph-name="macron" unicode="&#xaf;" horiz-adv-x="1000" 
d="M817 1426v-106h-634v106h634z" />
    <glyph glyph-name="degree" unicode="&#xb0;" horiz-adv-x="733" 
d="M368 953q64 0 110 46q46 47 46 111t-46 110t-110 46t-112 -46q-47 -46 -47 -110t47 -110q48 -46 112 -47zM366 824q-118 0 -202 83q-82 83 -82 202t82 202t202 83q118 0 202 -83t83 -202q1 -119 -83 -202t-202 -83z" />
    <glyph glyph-name="plusminus" unicode="&#xb1;" horiz-adv-x="1239" 
d="M693 662v-291h-147v291h-435v136h435v291h147v-291h435v-136h-435zM1128 112h-1017v148h1017v-148z" />
    <glyph glyph-name="two.sups" unicode="&#xb2;" horiz-adv-x="617" 
d="M45 1601q1 101 73 163t186 62t184 -56t70 -145q0 -53 -28 -101t-99 -115l-165 -155v-3h301v-126h-513v108l264 247q47 46 65 76t18 64q-1 34 -29 58t-73 25q-45 0 -75 -29t-30 -73v-3h-149v3z" />
    <glyph glyph-name="three.sups" unicode="&#xb3;" horiz-adv-x="643" 
d="M230 1419v113h84q46 0 74 24t27 64q1 40 -27 62t-75 22t-77 -26t-31 -67h-147q2 99 74 157t185 58q114 0 182 -50t68 -123q-1 -71 -39 -115t-103 -55v-4q78 -7 123 -51t45 -125q-1 -81 -77 -137t-198 -57q-122 0 -195 59t-78 158h154q3 -41 35 -65t81 -24t81 25
q32 24 32 66t-30 66t-84 25h-84z" />
    <glyph glyph-name="acute" unicode="&#xb4;" horiz-adv-x="1005" 
d="M447 1250h-148l211 300h198z" />
    <glyph glyph-name="paragraph" unicode="&#xb6;" horiz-adv-x="1201" 
d="M921 -220v1663h180v-1663h-180zM774 -220h-180v795h-20q-202 -1 -338 121t-136 310t136 312q136 125 339 125h199v-1663z" />
    <glyph glyph-name="periodcentered" unicode="&#xb7;" horiz-adv-x="520" 
d="M260 491q-48 0 -81 33q-33 34 -33 82t33 80t81 33q48 -1 82 -33q32 -32 32 -80t-32 -82q-34 -33 -82 -33z" />
    <glyph glyph-name="cedilla" unicode="&#xb8;" horiz-adv-x="1005" 
d="M359 -230v74l63 164l109 -8l-52 -142q209 0 209 -150q0 -76 -62 -126t-151 -51t-153 17v98q38 -15 122 -15q120 0 120 73q0 34 -36 50t-114 16h-55z" />
    <glyph glyph-name="one.sups" unicode="&#xb9;" horiz-adv-x="497" 
d="M251 1125v545h-3l-178 -122v142l176 120h158v-685h-153z" />
    <glyph glyph-name="ordmasculine" unicode="&#xba;" horiz-adv-x="768" 
d="M384 831q92 0 144 66t51 184q1 118 -51 184t-144 66t-142 -66q-52 -66 -52 -184t52 -184q50 -66 142 -66zM384 710q-158 0 -250 100t-93 271q0 171 93 271t250 100t250 -100t93 -271q-1 -171 -93 -271t-250 -100z" />
    <glyph glyph-name="guillemotright" unicode="&#xbb;" horiz-adv-x="1302" 
d="M964 572l-351 413h204l350 -416v-8l-350 -416h-204l351 413v14zM486 572l-351 413h204l350 -416v-8l-350 -416h-204l351 413v14z" />
    <glyph glyph-name="onequarter" unicode="&#xbc;" horiz-adv-x="1462" 
d="M261 758v545h-3l-178 -122v142l176 120h158v-685h-153zM989 238h204v335h-3q-139 -214 -201 -332v-3zM1189 0v115h-339v137q78 151 267 433h226v-442h87v-128h-87v-115h-154zM265 0h-174l1056 1443h172z" />
    <glyph glyph-name="onehalf" unicode="&#xbd;" horiz-adv-x="1462" 
d="M908 476q0 100 72 162t187 63q114 0 184 -56t70 -145q0 -53 -28 -101t-99 -115l-165 -155v-3h301v-126h-513v108l264 247q47 45 65 75t18 64t-28 60q-28 24 -74 24q-45 0 -75 -29t-30 -73v-3h-149v3zM261 758v545h-3l-178 -122v142l176 120h158v-685h-153zM265 0h-174
l1056 1443h172z" />
    <glyph glyph-name="threequarters" unicode="&#xbe;" horiz-adv-x="1572" 
d="M230 1052v113h84q46 0 74 24q28 23 27 63q1 40 -27 62t-75 23t-77 -25t-31 -68h-147q2 98 74 156t185 59q114 -1 182 -51t68 -122q-1 -72 -39 -116t-103 -54v-4q78 -7 123 -51t45 -125q-1 -82 -77 -138t-198 -56t-195 59t-78 158h154q3 -41 35 -65t81 -24t81 25t32 67
t-30 66t-84 24h-84zM1099 238h204v335h-3q-139 -214 -201 -332v-3zM1299 0v115h-339v137q78 151 267 433h226v-442h87v-128h-87v-115h-154zM375 0h-174l1056 1443h172z" />
    <glyph glyph-name="questiondown" unicode="&#xbf;" horiz-adv-x="1002" 
d="M532 885q-48 0 -81 33q-33 34 -33 82t33 80t81 33q48 -1 82 -33q32 -32 32 -80t-32 -82q-34 -33 -82 -33zM518 -357q-194 0 -314 103q-118 103 -118 261q0 216 209 343q94 56 128 106t34 130v65h175v-92q2 -97 -46 -169t-144 -130t-133 -112t-37 -141t68 -147t178 -61
q112 1 180 63t77 170h171q-8 -171 -121 -280t-307 -109z" />
    <glyph glyph-name="Agrave" unicode="&#xc0;" horiz-adv-x="1292" 
d="M572 1550l-281 299h198l231 -299h-148zM643 1224l-231 -658h468l-231 658h-6zM1078 0l-145 413h-574l-145 -413h-189l532 1443h178l532 -1443h-189z" />
    <glyph glyph-name="Aacute" unicode="&#xc1;" horiz-adv-x="1292" 
d="M723 1550h-148l231 299h198zM643 1224l-231 -658h468l-231 658h-6zM1078 0l-145 413h-574l-145 -413h-189l532 1443h178l532 -1443h-189z" />
    <glyph glyph-name="Acircumflex" unicode="&#xc2;" horiz-adv-x="1292" 
d="M575 1849h142l292 -299h-168l-194 201h-2l-194 -201h-168zM643 1224l-231 -658h468l-231 658h-6zM1078 0l-145 413h-574l-145 -413h-189l532 1443h178l532 -1443h-189z" />
    <glyph glyph-name="Atilde" unicode="&#xc3;" horiz-adv-x="1292" 
d="M525 1687q-69 0 -69 -137h-114q0 118 47 184t131 66q48 0 88 -24t64 -52q64 -76 102 -76q62 0 62 138h114q0 -115 -48 -183t-122 -68q-74 -1 -128 53q-22 22 -42 46q-48 54 -85 53zM643 1224l-231 -658h468l-231 658h-6zM1078 0l-145 413h-574l-145 -413h-189l532 1443
h178l532 -1443h-189z" />
    <glyph glyph-name="Adieresis" unicode="&#xc4;" horiz-adv-x="1292" 
d="M843 1585q-46 0 -79 33t-33 79t33 79q34 33 80 33q46 -1 78 -33t33 -78q0 -46 -33 -80q-33 -33 -79 -33zM449 1585q-46 0 -79 33t-33 79t33 79q34 33 80 33q46 -1 78 -33t33 -78q0 -46 -33 -80q-33 -33 -79 -33zM643 1224l-231 -658h468l-231 658h-6zM1078 0l-145 413
h-574l-145 -413h-189l532 1443h178l532 -1443h-189z" />
    <glyph glyph-name="Aring" unicode="&#xc5;" horiz-adv-x="1292" 
d="M646 1590q48 0 82 34t34 82t-34 82t-82 34t-82 -34t-34 -82t34 -82t82 -34zM646 1507q-82 1 -140 59t-59 140q1 82 59 140t140 59q82 -1 140 -59t59 -140q-1 -82 -59 -140t-140 -59zM643 1224l-231 -658h468l-231 658h-6zM1078 0l-145 413h-574l-145 -413h-189l532 1443
h178l532 -1443h-189z" />
    <glyph glyph-name="AE" unicode="&#xc6;" horiz-adv-x="1973" 
d="M962 0v459h-555l-217 -459h-185l687 1443h1144v-162h-694v-473h657v-160h-657v-486h694v-162h-874zM962 612v680h-160l-322 -680h482z" />
    <glyph glyph-name="Ccedilla" unicode="&#xc7;" horiz-adv-x="1405" 
d="M734 1301q-211 0 -338 -158q-127 -159 -127 -423t126 -421t340 -157q159 0 268 73t148 205h182q-46 -200 -185 -314t-354 -128l-44 -120q209 0 209 -150q0 -76 -62 -126t-151 -51t-153 17v98q37 -15 122 -15q120 0 120 73q1 34 -35 50t-115 16h-55v74l51 134
q-277 18 -437 218t-160 532q0 334 177 536t473 203q236 1 400 -131t199 -348h-182q-35 142 -149 228t-268 85z" />
    <glyph glyph-name="Egrave" unicode="&#xc8;" horiz-adv-x="1131" 
d="M513 1550l-281 299h198l231 -299h-148zM1034 162v-162h-894v1443h894v-162h-714v-463h677v-160h-677v-496h714z" />
    <glyph glyph-name="Eacute" unicode="&#xc9;" horiz-adv-x="1131" 
d="M664 1550h-148l231 299h198zM1034 162v-162h-894v1443h894v-162h-714v-463h677v-160h-677v-496h714z" />
    <glyph glyph-name="Ecircumflex" unicode="&#xca;" horiz-adv-x="1131" 
d="M516 1849h142l292 -299h-168l-194 201h-2l-194 -201h-168zM1034 162v-162h-894v1443h894v-162h-714v-463h677v-160h-677v-496h714z" />
    <glyph glyph-name="Edieresis" unicode="&#xcb;" horiz-adv-x="1131" 
d="M784 1585q-46 0 -79 33t-33 79t33 79t79 33q46 -1 79 -33t33 -78t-33 -80q-33 -33 -79 -33zM390 1585q-46 0 -79 33t-33 79t33 79t79 33q46 -1 79 -33t33 -78t-33 -80q-33 -33 -79 -33zM1034 162v-162h-894v1443h894v-162h-714v-463h677v-160h-677v-496h714z" />
    <glyph glyph-name="Igrave" unicode="&#xcc;" horiz-adv-x="460" 
d="M156 1550l-281 299h198l231 -299h-148zM320 0h-180v1443h180v-1443z" />
    <glyph glyph-name="Iacute" unicode="&#xcd;" horiz-adv-x="460" 
d="M307 1550h-148l231 299h198zM320 0h-180v1443h180v-1443z" />
    <glyph glyph-name="Icircumflex" unicode="&#xce;" horiz-adv-x="460" 
d="M159 1849h142l292 -299h-168l-194 201h-2l-194 -201h-168zM320 0h-180v1443h180v-1443z" />
    <glyph glyph-name="Idieresis" unicode="&#xcf;" horiz-adv-x="460" 
d="M427 1585q-46 0 -79 33t-33 79t33 79q34 33 80 33q46 -1 78 -33t33 -78q0 -46 -33 -80q-33 -33 -79 -33zM33 1585q-46 0 -79 33t-33 79t33 79q34 33 80 33q46 -1 78 -33t33 -78q0 -46 -33 -80q-33 -33 -79 -33zM320 0h-180v1443h180v-1443z" />
    <glyph glyph-name="Eth" unicode="&#xd0;" horiz-adv-x="1412" 
d="M153 1443h495q321 -1 501 -191t180 -530q1 -340 -179 -532q-180 -190 -502 -190h-495v663h-129v163h129v617zM333 162h303q245 0 377 144t132 415q1 270 -131 415t-378 145h-303v-455h277v-163h-277v-501z" />
    <glyph glyph-name="Ntilde" unicode="&#xd1;" horiz-adv-x="1432" 
d="M595 1687q-69 0 -69 -137h-114q0 118 47 184t131 66q48 0 88 -24t64 -52q64 -76 102 -76q62 0 62 138h114q0 -115 -48 -183t-122 -68q-74 -1 -128 53q-22 22 -42 46q-48 54 -85 53zM318 0h-178v1443h175l790 -1133h9v1133h178v-1443h-175l-790 1129h-9v-1129z" />
    <glyph glyph-name="Ograve" unicode="&#xd2;" horiz-adv-x="1498" 
d="M675 1550l-281 299h198l231 -299h-148zM749 1301q-221 -1 -351 -157t-129 -422q-1 -266 129 -424q130 -156 351 -156t351 156t129 424q1 266 -129 422t-351 157zM749 1467q307 0 486 -201t179 -545q0 -345 -179 -545t-486 -200t-486 200t-179 545q0 344 179 545t486 201z
" />
    <glyph glyph-name="Oacute" unicode="&#xd3;" horiz-adv-x="1498" 
d="M826 1550h-148l231 299h198zM749 1301q-221 -1 -351 -157t-129 -422q-1 -266 129 -424q130 -156 351 -156t351 156t129 424q1 266 -129 422t-351 157zM749 1467q307 0 486 -201t179 -545q0 -345 -179 -545t-486 -200t-486 200t-179 545q0 344 179 545t486 201z" />
    <glyph glyph-name="Ocircumflex" unicode="&#xd4;" horiz-adv-x="1498" 
d="M678 1849h142l292 -299h-168l-194 201h-2l-194 -201h-168zM749 1301q-221 -1 -351 -157t-129 -422q-1 -266 129 -424q130 -156 351 -156t351 156t129 424q1 266 -129 422t-351 157zM749 1467q307 0 486 -201t179 -545q0 -345 -179 -545t-486 -200t-486 200t-179 545
q0 344 179 545t486 201z" />
    <glyph glyph-name="Otilde" unicode="&#xd5;" horiz-adv-x="1498" 
d="M628 1687q-69 0 -69 -137h-114q0 118 47 184t131 66q47 0 87 -24t64 -52q64 -76 103 -76q62 0 62 138h114q0 -115 -48 -183t-122 -68q-73 -1 -127 53q-22 22 -43 46q-48 54 -85 53zM749 1301q-221 -1 -351 -157t-129 -422q-1 -266 129 -424q130 -156 351 -156t351 156
t129 424q1 266 -129 422t-351 157zM749 1467q307 0 486 -201t179 -545q0 -345 -179 -545t-486 -200t-486 200t-179 545q0 344 179 545t486 201z" />
    <glyph glyph-name="Odieresis" unicode="&#xd6;" horiz-adv-x="1498" 
d="M946 1585q-46 0 -79 33t-33 79t33 79t79 33q46 -1 79 -33t33 -78t-33 -80q-33 -33 -79 -33zM552 1585q-46 0 -79 33t-33 79t33 79t79 33q46 -1 79 -33t33 -78t-33 -80q-33 -33 -79 -33zM749 1301q-221 -1 -351 -157t-129 -422q-1 -266 129 -424q130 -156 351 -156
t351 156t129 424q1 266 -129 422t-351 157zM749 1467q307 0 486 -201t179 -545q0 -345 -179 -545t-486 -200t-486 200t-179 545q0 344 179 545t486 201z" />
    <glyph glyph-name="multiply" unicode="&#xd7;" horiz-adv-x="1239" 
d="M620 475l-308 -307l-104 104l307 308l-307 308l104 104l308 -307l307 307l104 -104l-306 -308l306 -308l-104 -104z" />
    <glyph glyph-name="Oslash" unicode="&#xd8;" horiz-adv-x="1498" 
d="M1414 713q0 -337 -179 -537t-486 -200q-226 0 -387 113l-104 -136l-100 76l110 142q-184 203 -184 549t179 546q179 201 486 201q249 0 415 -134l120 155l98 -69l-132 -172q164 -198 164 -534zM749 1301q-221 -1 -351 -157t-129 -414q0 -258 113 -411l673 872
q-122 110 -306 110zM749 142q221 0 351 156t129 404q0 246 -94 394l-665 -866q116 -88 279 -88z" />
    <glyph glyph-name="Ugrave" unicode="&#xd9;" horiz-adv-x="1426" 
d="M639 1550l-281 299h198l231 -299h-148zM320 1443v-925q0 -168 104 -272t289 -104t289 104t104 272v925h180v-937q0 -234 -154 -382t-419 -148t-419 148t-154 382v937h180z" />
    <glyph glyph-name="Uacute" unicode="&#xda;" horiz-adv-x="1426" 
d="M790 1550h-148l231 299h198zM320 1443v-925q0 -168 104 -272t289 -104t289 104t104 272v925h180v-937q0 -234 -154 -382t-419 -148t-419 148t-154 382v937h180z" />
    <glyph glyph-name="Ucircumflex" unicode="&#xdb;" horiz-adv-x="1426" 
d="M642 1849h142l292 -299h-168l-194 201h-2l-194 -201h-168zM320 1443v-925q0 -168 104 -272t289 -104t289 104t104 272v925h180v-937q0 -234 -154 -382t-419 -148t-419 148t-154 382v937h180z" />
    <glyph glyph-name="Udieresis" unicode="&#xdc;" horiz-adv-x="1426" 
d="M910 1585q-46 0 -79 33t-33 79t33 79t79 33q46 -1 79 -33t33 -78t-33 -80q-33 -33 -79 -33zM516 1585q-46 0 -79 33t-33 79t33 79t79 33q46 -1 79 -33t33 -78t-33 -80q-33 -33 -79 -33zM320 1443v-925q0 -168 104 -272t289 -104t289 104t104 272v925h180v-937
q0 -234 -154 -382t-419 -148t-419 148t-154 382v937h180z" />
    <glyph glyph-name="Yacute" unicode="&#xdd;" horiz-adv-x="1254" 
d="M704 1550h-148l231 299h198zM717 0h-180v621l-512 822h205l394 -648h6l394 648h205l-512 -822v-621z" />
    <glyph glyph-name="Thorn" unicode="&#xde;" horiz-adv-x="1232" 
d="M340 1017v-512h322q130 0 209 66t79 191t-79 190t-209 65h-322zM160 1443h180v-266h373q172 0 297 -111t125 -304q0 -96 -35 -176q-34 -80 -94 -132q-125 -109 -295 -109h-371v-345h-180v1443z" />
    <glyph glyph-name="germandbls" unicode="&#xdf;" horiz-adv-x="1238" 
d="M353 0h-171v1101q0 179 114 287t302 108q186 0 302 -105t116 -270q0 -127 -62 -220t-167 -126v-4q160 -21 248 -119t88 -251q-1 -187 -125 -301t-330 -114q-83 0 -144 13v153q54 -14 132 -14q136 0 216 72t80 198t-90 198t-250 72h-61v170h51q116 0 180 70t65 184
t-67 178t-181 64t-179 -69t-67 -191v-1084z" />
    <glyph glyph-name="agrave" unicode="&#xe0;" horiz-adv-x="1062" 
d="M591 1250h-148l-261 300h198zM433 -10q-164 0 -264 87t-100 228t104 221t300 91l302 18v90q0 100 -64 154q-65 54 -171 54t-170 -45t-81 -121h-167q4 137 121 229t297 92t295 -94q114 -94 114 -254v-740h-165v187h-4q-46 -89 -140 -143t-207 -54zM485 141q117 1 203 77
t87 192v87l-282 -18q-246 -15 -246 -173q1 -75 61 -120t177 -45z" />
    <glyph glyph-name="aacute" unicode="&#xe1;" horiz-adv-x="1062" 
d="M600 1250h-148l211 300h198zM433 -10q-164 0 -264 87t-100 228t104 221t300 91l302 18v90q0 100 -64 154q-65 54 -171 54t-170 -45t-81 -121h-167q4 137 121 229t297 92t295 -94q114 -94 114 -254v-740h-165v187h-4q-46 -89 -140 -143t-207 -54zM485 141q117 1 203 77
t87 192v87l-282 -18q-246 -15 -246 -173q1 -75 61 -120t177 -45z" />
    <glyph glyph-name="acircumflex" unicode="&#xe2;" horiz-adv-x="1062" 
d="M588 1550l277 -300h-163l-173 197h-6l-173 -197h-163l277 300h124zM433 -10q-164 0 -264 87t-100 228t104 221t300 91l302 18v90q0 100 -64 154q-65 54 -171 54t-170 -45t-81 -121h-167q4 137 121 229t297 92t295 -94q114 -94 114 -254v-740h-165v187h-4
q-46 -89 -140 -143t-207 -54zM485 141q117 1 203 77t87 192v87l-282 -18q-246 -15 -246 -173q1 -75 61 -120t177 -45z" />
    <glyph glyph-name="atilde" unicode="&#xe3;" horiz-adv-x="1062" 
d="M409 1410q-69 0 -69 -137h-114q0 118 47 184t126 66q79 1 133 -53q23 -22 58 -61q35 -38 68 -38q62 0 62 138h114q0 -115 -48 -183t-122 -68t-128 54q-22 22 -42 44q-48 54 -85 54zM433 -10q-164 0 -264 87t-100 228t104 221t300 91l302 18v90q0 100 -64 154
q-65 54 -171 54t-170 -45t-81 -121h-167q4 137 121 229t297 92t295 -94q114 -94 114 -254v-740h-165v187h-4q-46 -89 -140 -143t-207 -54zM485 141q117 1 203 77t87 192v87l-282 -18q-246 -15 -246 -173q1 -75 61 -120t177 -45z" />
    <glyph glyph-name="adieresis" unicode="&#xe4;" horiz-adv-x="1062" 
d="M723 1261q-46 0 -79 33t-33 79t33 79q34 33 80 33q46 -1 78 -33t33 -78q0 -46 -33 -80q-33 -33 -79 -33zM329 1261q-46 0 -79 33t-33 79t33 79q34 33 80 33q46 -1 78 -33t33 -78q0 -46 -33 -80q-33 -33 -79 -33zM433 -10q-164 0 -264 87t-100 228t104 221t300 91l302 18
v90q0 100 -64 154q-65 54 -171 54t-170 -45t-81 -121h-167q4 137 121 229t297 92t295 -94q114 -94 114 -254v-740h-165v187h-4q-46 -89 -140 -143t-207 -54zM485 141q117 1 203 77t87 192v87l-282 -18q-246 -15 -246 -173q1 -75 61 -120t177 -45z" />
    <glyph glyph-name="aring" unicode="&#xe5;" horiz-adv-x="1062" 
d="M526 1267q48 0 82 34t34 82t-34 82t-82 34t-82 -34t-34 -82t34 -82t82 -34zM526 1184q-82 0 -140 58t-59 141q1 83 59 141t140 58t140 -58t59 -141q-1 -83 -59 -141t-140 -58zM433 -10q-164 0 -264 87t-100 228t104 221t300 91l302 18v90q0 100 -64 154q-65 54 -171 54
t-170 -45t-81 -121h-167q4 137 121 229t297 92t295 -94q114 -94 114 -254v-740h-165v187h-4q-46 -89 -140 -143t-207 -54zM485 141q117 1 203 77t87 192v87l-282 -18q-246 -15 -246 -173q1 -75 61 -120t177 -45z" />
    <glyph glyph-name="ae" unicode="&#xe6;" horiz-adv-x="1769" 
d="M478 141q116 -1 206 77t90 192v81l-285 -15q-117 -6 -179 -50t-63 -120q0 -76 58 -120t173 -45zM1246 935q-126 1 -207 -83q-82 -84 -91 -222h575q-3 141 -77 223t-200 82zM1262 1088q204 0 323 -142t119 -387v-67h-756v-11q0 -155 86 -247t229 -91q97 -1 165 43t91 122
h172q-23 -142 -143 -230t-270 -88q-294 0 -405 223h-10q-134 -223 -406 -223q-178 0 -283 85t-105 227q1 142 105 222t297 90l303 15v77q0 100 -70 164t-180 63q-108 -1 -172 -45t-70 -121h-171q9 141 120 231t265 90t253 -56t138 -157h9q113 213 366 213z" />
    <glyph glyph-name="ccedilla" unicode="&#xe7;" horiz-adv-x="1060" 
d="M784 -292q0 -76 -62 -126t-151 -51t-153 17v98q38 -15 122 -15q120 0 120 73q0 34 -36 50t-114 16h-55v74l57 148q-204 16 -326 162t-121 390q0 244 135 394q136 150 342 150t328 -106t139 -255h-171q-17 91 -90 149q-72 58 -202 57q-130 0 -217 -108t-87 -288t88 -286
t215 -106q250 0 295 200h171q-20 -144 -124 -239t-262 -112l-50 -136q209 0 209 -150z" />
    <glyph glyph-name="egrave" unicode="&#xe8;" horiz-adv-x="1084" 
d="M616 1250h-148l-261 300h198zM559 -10q-227 0 -361 147t-133 398q0 251 133 402t351 151t344 -142t126 -387v-68h-774v-10q0 -154 87 -246t231 -92q101 1 175 45t96 120h172q-22 -138 -148 -228t-299 -90zM548 935q-128 0 -210 -84q-84 -84 -93 -221h593q-2 137 -82 221
t-208 84z" />
    <glyph glyph-name="eacute" unicode="&#xe9;" horiz-adv-x="1084" 
d="M625 1250h-148l211 300h198zM559 -10q-227 0 -361 147t-133 398q0 251 133 402t351 151t344 -142t126 -387v-68h-774v-10q0 -154 87 -246t231 -92q101 1 175 45t96 120h172q-22 -138 -148 -228t-299 -90zM548 935q-128 0 -210 -84q-84 -84 -93 -221h593q-2 137 -82 221
t-208 84z" />
    <glyph glyph-name="ecircumflex" unicode="&#xea;" horiz-adv-x="1084" 
d="M613 1550l277 -300h-163l-173 197h-6l-173 -197h-163l277 300h124zM559 -10q-227 0 -361 147t-133 398q0 251 133 402t351 151t344 -142t126 -387v-68h-774v-10q0 -154 87 -246t231 -92q101 1 175 45t96 120h172q-22 -138 -148 -228t-299 -90zM548 935q-128 0 -210 -84
q-84 -84 -93 -221h593q-2 137 -82 221t-208 84z" />
    <glyph glyph-name="edieresis" unicode="&#xeb;" horiz-adv-x="1084" 
d="M748 1261q-46 0 -79 33t-33 79t33 79t79 33q46 -1 79 -33t33 -78t-33 -80q-33 -33 -79 -33zM354 1261q-46 0 -79 33t-33 79t33 79t79 33q46 -1 79 -33t33 -78t-33 -80q-33 -33 -79 -33zM559 -10q-227 0 -361 147t-133 398q0 251 133 402t351 151t344 -142t126 -387v-68
h-774v-10q0 -154 87 -246t231 -92q101 1 175 45t96 120h172q-22 -138 -148 -228t-299 -90zM548 935q-128 0 -210 -84q-84 -84 -93 -221h593q-2 137 -82 221t-208 84z" />
    <glyph glyph-name="igrave" unicode="&#xec;" horiz-adv-x="430" 
d="M280 1250h-148l-261 300h198zM128 0v1078h174v-1078h-174z" />
    <glyph glyph-name="iacute" unicode="&#xed;" horiz-adv-x="430" 
d="M289 1250h-148l211 300h198zM128 0v1078h174v-1078h-174z" />
    <glyph glyph-name="icircumflex" unicode="&#xee;" horiz-adv-x="430" 
d="M277 1550l277 -300h-163l-173 197h-6l-173 -197h-163l277 300h124zM128 0v1078h174v-1078h-174z" />
    <glyph glyph-name="idieresis" unicode="&#xef;" horiz-adv-x="430" 
d="M412 1261q-46 0 -79 33t-33 79t33 79t79 33q46 -1 79 -33t33 -78t-33 -80q-33 -33 -79 -33zM18 1261q-46 0 -79 33t-33 79t33 79t79 33q46 -1 79 -33t33 -78t-33 -80q-33 -33 -79 -33zM128 0v1078h174v-1078h-174z" />
    <glyph glyph-name="eth" unicode="&#xf0;" horiz-adv-x="1140" 
d="M576 902q-144 0 -228 -104q-86 -104 -86 -279t86 -279t230 -104t230 104t86 278t-87 279t-231 105zM574 -19q-226 0 -358 144q-132 143 -132 391t128 394t343 147q92 0 179 -49t121 -120h15q-22 84 -73 182t-109 169l-278 -90l-35 112l231 75q-62 73 -200 190h206
q77 -65 145 -141l250 81l35 -112l-203 -64q221 -306 221 -719q0 -273 -130 -431t-356 -159z" />
    <glyph glyph-name="ntilde" unicode="&#xf1;" horiz-adv-x="1115" 
d="M443 1410q-69 0 -69 -137h-114q0 118 47 184t126 66q79 1 133 -53q23 -22 58 -61q35 -38 68 -38q62 0 62 138h114q0 -115 -48 -183t-122 -68t-128 54q-22 22 -42 44q-48 54 -85 54zM118 0v1078h164v-175h4q103 185 342 185q178 0 276 -106t98 -291v-691h-174v661
q0 272 -252 272q-132 1 -208 -83t-76 -224v-626h-174z" />
    <glyph glyph-name="ograve" unicode="&#xf2;" horiz-adv-x="1124" 
d="M627 1250h-148l-261 300h198zM562 145q150 1 236 105q84 104 84 290t-84 289q-84 104 -236 104q-152 -1 -236 -105t-84 -289t85 -289t235 -105zM562 -10q-227 0 -362 149t-135 400t135 400t362 149t362 -149t135 -400t-135 -400t-362 -149z" />
    <glyph glyph-name="oacute" unicode="&#xf3;" horiz-adv-x="1124" 
d="M636 1250h-148l211 300h198zM562 145q150 1 236 105q84 104 84 290t-84 289q-84 104 -236 104q-152 -1 -236 -105t-84 -289t85 -289t235 -105zM562 -10q-227 0 -362 149t-135 400t135 400t362 149t362 -149t135 -400t-135 -400t-362 -149z" />
    <glyph glyph-name="ocircumflex" unicode="&#xf4;" horiz-adv-x="1124" 
d="M624 1550l277 -300h-163l-173 197h-6l-173 -197h-163l277 300h124zM562 145q150 1 236 105q84 104 84 290t-84 289q-84 104 -236 104q-152 -1 -236 -105t-84 -289t85 -289t235 -105zM562 -10q-227 0 -362 149t-135 400t135 400t362 149t362 -149t135 -400t-135 -400
t-362 -149z" />
    <glyph glyph-name="otilde" unicode="&#xf5;" horiz-adv-x="1124" 
d="M445 1410q-69 0 -69 -137h-114q0 118 47 184t126 66q79 1 133 -53q23 -22 58 -61q35 -38 68 -38q62 0 62 138h114q0 -115 -48 -183t-122 -68t-128 54q-22 22 -42 44q-48 54 -85 54zM562 145q150 1 236 105q84 104 84 290t-84 289q-84 104 -236 104q-152 -1 -236 -105
t-84 -289t85 -289t235 -105zM562 -10q-227 0 -362 149t-135 400t135 400t362 149t362 -149t135 -400t-135 -400t-362 -149z" />
    <glyph glyph-name="odieresis" unicode="&#xf6;" horiz-adv-x="1124" 
d="M759 1261q-46 0 -79 33t-33 79t33 79q34 33 80 33q46 -1 78 -33t33 -78q0 -46 -33 -80q-33 -33 -79 -33zM365 1261q-46 0 -79 33t-33 79t33 79q34 33 80 33q46 -1 78 -33t33 -78q0 -46 -33 -80q-33 -33 -79 -33zM562 145q150 1 236 105q84 104 84 290t-84 289
q-84 104 -236 104q-152 -1 -236 -105t-84 -289t85 -289t235 -105zM562 -10q-227 0 -362 149t-135 400t135 400t362 149t362 -149t135 -400t-135 -400t-362 -149z" />
    <glyph glyph-name="divide" unicode="&#xf7;" horiz-adv-x="1239" 
d="M1128 496h-1017v148h1017v-148zM620 88q-54 0 -90 35t-35 89q-1 54 35 90t90 36t89 -36q36 -36 36 -89q1 -53 -35 -89t-90 -36zM620 802q-54 0 -90 35t-35 89q-1 54 35 90t90 36t89 -36q36 -36 36 -89q1 -53 -35 -89t-90 -36z" />
    <glyph glyph-name="oslash" unicode="&#xf8;" horiz-adv-x="1124" 
d="M1059 542q0 -254 -135 -403t-362 -149q-143 0 -253 62l-61 -89l-104 69l66 96q-145 150 -145 406t135 405t362 149q148 0 260 -66l66 96l100 -64l-72 -106q143 -152 143 -406zM562 933q-152 -1 -236 -105t-84 -278t67 -277l422 615q-71 45 -169 45zM562 145
q152 1 236 105t84 277t-65 275l-417 -616q68 -41 162 -41z" />
    <glyph glyph-name="ugrave" unicode="&#xf9;" horiz-adv-x="1115" 
d="M620 1250h-148l-261 300h198zM997 1078v-1078h-164v178h-4q-102 -188 -343 -188q-176 0 -274 106t-99 291v691h174v-661q0 -272 252 -272q132 -1 208 83t76 224v626h174z" />
    <glyph glyph-name="uacute" unicode="&#xfa;" horiz-adv-x="1115" 
d="M629 1250h-148l211 300h198zM997 1078v-1078h-164v178h-4q-102 -188 -343 -188q-176 0 -274 106t-99 291v691h174v-661q0 -272 252 -272q132 -1 208 83t76 224v626h174z" />
    <glyph glyph-name="ucircumflex" unicode="&#xfb;" horiz-adv-x="1115" 
d="M617 1550l277 -300h-163l-173 197h-6l-173 -197h-163l277 300h124zM997 1078v-1078h-164v178h-4q-102 -188 -343 -188q-176 0 -274 106t-99 291v691h174v-661q0 -272 252 -272q132 -1 208 83t76 224v626h174z" />
    <glyph glyph-name="udieresis" unicode="&#xfc;" horiz-adv-x="1115" 
d="M752 1261q-46 0 -79 33t-33 79t33 79t79 33q46 -1 79 -33t33 -78t-33 -80q-33 -33 -79 -33zM358 1261q-46 0 -79 33t-33 79t33 79t79 33q46 -1 79 -33t33 -78t-33 -80q-33 -33 -79 -33zM997 1078v-1078h-164v178h-4q-102 -188 -343 -188q-176 0 -274 106t-99 291v691h174
v-661q0 -272 252 -272q132 -1 208 83t76 224v626h174z" />
    <glyph glyph-name="yacute" unicode="&#xfd;" horiz-adv-x="1026" 
d="M588 1250h-148l211 300h198zM210 -391q-39 0 -76 7v147q30 -6 88 -6q58 1 103 41t78 137l21 64l-399 1079h185l302 -901h4l302 901h183l-422 -1144q-69 -187 -147 -256t-222 -69z" />
    <glyph glyph-name="thorn" unicode="&#xfe;" horiz-adv-x="1171" 
d="M613 136q147 0 231 107t84 296t-84 296t-230 107q-147 0 -233 -108t-86 -294q-1 -186 85 -295t233 -109zM653 1097q205 0 329 -152q124 -151 124 -405t-124 -406t-329 -153q-115 0 -205 48t-133 133h-15v-522h-172v1866h164v-608h16q52 93 144 146t201 53z" />
    <glyph glyph-name="ydieresis" unicode="&#xff;" horiz-adv-x="1026" 
d="M711 1261q-46 0 -79 33t-33 79t33 79q34 33 80 33q46 -1 78 -33t33 -78q0 -46 -33 -80q-33 -33 -79 -33zM317 1261q-46 0 -79 33t-33 79t33 79q34 33 80 33q46 -1 78 -33t33 -78q0 -46 -33 -80q-33 -33 -79 -33zM210 -391q-39 0 -76 7v147q30 -6 88 -6q58 1 103 41
t78 137l21 64l-399 1079h185l302 -901h4l302 901h183l-422 -1144q-69 -187 -147 -256t-222 -69z" />
    <glyph glyph-name="Amacron" unicode="&#x100;" horiz-adv-x="1292" 
d="M963 1748v-106h-634v106h634zM643 1224l-231 -658h468l-231 658h-6zM1078 0l-145 413h-574l-145 -413h-189l532 1443h178l532 -1443h-189z" />
    <glyph glyph-name="amacron" unicode="&#x101;" horiz-adv-x="1062" 
d="M843 1426v-106h-634v106h634zM433 -10q-164 0 -264 87t-100 228t104 221t300 91l302 18v90q0 100 -64 154q-65 54 -171 54t-170 -45t-81 -121h-167q4 137 121 229t297 92t295 -94q114 -94 114 -254v-740h-165v187h-4q-46 -89 -140 -143t-207 -54zM485 141q117 1 203 77
t87 192v87l-282 -18q-246 -15 -246 -173q1 -75 61 -120t177 -45z" />
    <glyph glyph-name="Abreve" unicode="&#x102;" horiz-adv-x="1292" 
d="M336 1849h119q0 -83 55 -139t136 -57q81 1 136 57t55 139h119q0 -131 -86 -215t-224 -84t-224 84t-86 215zM643 1224l-231 -658h468l-231 658h-6zM1078 0l-145 413h-574l-145 -413h-189l532 1443h178l532 -1443h-189z" />
    <glyph glyph-name="abreve" unicode="&#x103;" horiz-adv-x="1062" 
d="M203 1550h123q0 -86 58 -144t141 -59q83 1 141 59t58 144h123q1 -138 -89 -224t-233 -86t-233 86t-89 224zM433 -10q-164 0 -264 87t-100 228t104 221t300 91l302 18v90q0 100 -64 154q-65 54 -171 54t-170 -45t-81 -121h-167q4 137 121 229t297 92t295 -94
q114 -94 114 -254v-740h-165v187h-4q-46 -89 -140 -143t-207 -54zM485 141q117 1 203 77t87 192v87l-282 -18q-246 -15 -246 -173q1 -75 61 -120t177 -45z" />
    <glyph glyph-name="Aogonek" unicode="&#x104;" horiz-adv-x="1292" 
d="M1150 -432q-106 0 -174 58t-69 148q0 136 167 237l-141 402h-574l-145 -413h-189l532 1443h178l532 -1443q-89 -30 -140 -81q-51 -52 -51 -102q0 -49 32 -77t78 -28q47 0 68 6v-134q-44 -16 -104 -16zM643 1224l-231 -658h468l-231 658h-6z" />
    <glyph glyph-name="aogonek" unicode="&#x105;" horiz-adv-x="1062" 
d="M763 -190q-1 -42 31 -70t79 -28t68 6v-134q-44 -16 -104 -16q-107 0 -175 58t-68 140t52 148t138 98v175h-4q-46 -89 -140 -143t-207 -54q-164 0 -264 87t-100 228t104 221t300 91l302 18v90q0 100 -64 154q-65 54 -171 54t-170 -45t-81 -121h-167q4 137 121 229t297 92
t295 -94q114 -94 114 -254v-740q-186 -78 -186 -190zM485 141q117 1 203 77t87 192v87l-282 -18q-246 -15 -246 -173q1 -75 61 -120t177 -45z" />
    <glyph glyph-name="Cacute" unicode="&#x106;" horiz-adv-x="1405" 
d="M811 1552h-148l231 299h198zM734 -24q-298 0 -474 202t-176 542q0 342 177 544t473 203q236 1 400 -131t199 -348h-182q-35 142 -149 228t-268 85q-211 0 -338 -158q-127 -159 -127 -423t126 -421t340 -157q159 0 268 73t148 205h182q-50 -214 -205 -329t-394 -115z" />
    <glyph glyph-name="cacute" unicode="&#x107;" horiz-adv-x="1060" 
d="M631 1250h-148l211 300h198zM546 933q-130 0 -217 -108t-87 -288t88 -286t215 -106q250 0 295 200h171q-21 -159 -145 -257t-307 -98q-224 0 -359 148t-135 399t135 401q136 150 342 150t328 -106t139 -255h-171q-17 91 -90 149q-72 58 -202 57z" />
    <glyph glyph-name="Ccircumflex" unicode="&#x108;" horiz-adv-x="1405" 
d="M663 1851h142l292 -299h-168l-194 201h-2l-194 -201h-168zM734 -24q-298 0 -474 202t-176 542q0 342 177 544t473 203q236 1 400 -131t199 -348h-182q-35 142 -149 228t-268 85q-211 0 -338 -158q-127 -159 -127 -423t126 -421t340 -157q159 0 268 73t148 205h182
q-50 -214 -205 -329t-394 -115z" />
    <glyph glyph-name="ccircumflex" unicode="&#x109;" horiz-adv-x="1060" 
d="M619 1550l277 -300h-163l-173 197h-6l-173 -197h-163l277 300h124zM546 933q-130 0 -217 -108t-87 -288t88 -286t215 -106q250 0 295 200h171q-21 -159 -145 -257t-307 -98q-224 0 -359 148t-135 399t135 401q136 150 342 150t328 -106t139 -255h-171q-17 91 -90 149
q-72 58 -202 57z" />
    <glyph glyph-name="Cdotaccent" unicode="&#x10a;" horiz-adv-x="1405" 
d="M734 1587q-50 -1 -86 35t-35 86q-1 50 35 86t86 35q50 1 86 -35t35 -86q1 -50 -35 -86t-86 -35zM734 -24q-298 0 -474 202t-176 542q0 342 177 544t473 203q236 1 400 -131t199 -348h-182q-35 142 -149 228t-268 85q-211 0 -338 -158q-127 -159 -127 -423t126 -421
t340 -157q159 0 268 73t148 205h182q-50 -214 -205 -329t-394 -115z" />
    <glyph glyph-name="cdotaccent" unicode="&#x10b;" horiz-adv-x="1060" 
d="M557 1261q-51 1 -87 37t-37 87q1 51 37 87t87 37q51 -1 87 -37t37 -87q-1 -51 -37 -87t-87 -37zM546 933q-130 0 -217 -108t-87 -288t88 -286t215 -106q250 0 295 200h171q-21 -159 -145 -257t-307 -98q-224 0 -359 148t-135 399t135 401q136 150 342 150t328 -106
t139 -255h-171q-17 91 -90 149q-72 58 -202 57z" />
    <glyph glyph-name="Ccaron" unicode="&#x10c;" horiz-adv-x="1405" 
d="M663 1552l-292 299h168l194 -201h2l194 201h168l-292 -299h-142zM734 -24q-298 0 -474 202t-176 542q0 342 177 544t473 203q236 1 400 -131t199 -348h-182q-35 142 -149 228t-268 85q-211 0 -338 -158q-127 -159 -127 -423t126 -421t340 -157q159 0 268 73t148 205h182
q-50 -214 -205 -329t-394 -115z" />
    <glyph glyph-name="ccaron" unicode="&#x10d;" horiz-adv-x="1060" 
d="M619 1250h-124l-277 300h163l173 -197h6l173 197h163zM546 933q-130 0 -217 -108t-87 -288t88 -286t215 -106q250 0 295 200h171q-21 -159 -145 -257t-307 -98q-224 0 -359 148t-135 399t135 401q136 150 342 150t328 -106t139 -255h-171q-17 91 -90 149q-72 58 -202 57z
" />
    <glyph glyph-name="Dcaron" unicode="&#x10e;" horiz-adv-x="1399" 
d="M479 1550l-292 299h168l194 -201h2l194 201h168l-292 -299h-142zM320 1281v-1119h303q245 0 377 144t132 415q0 270 -132 415t-377 145h-303zM140 1443h495q321 -1 501 -191t180 -530t-180 -532q-180 -190 -501 -190h-495v1443z" />
    <glyph glyph-name="dcaron" unicode="&#x10f;" horiz-adv-x="1307" 
d="M557 933q-141 0 -227 -108q-86 -109 -87 -287q1 -178 87 -286t227 -107q141 0 228 109t87 285t-87 285t-228 109zM65 538q0 246 128 398t330 152q115 0 205 -48t139 -137h4v603h174v-1506h-166v182h-3q-109 -192 -349 -192q-204 0 -333 152q-129 150 -129 396zM1196 1506
h140l-30 -488h-110v488z" />
    <glyph glyph-name="Dcroat" unicode="&#x110;" horiz-adv-x="1412" 
d="M153 1443h495q321 -1 501 -191t180 -530q1 -340 -179 -532q-180 -190 -502 -190h-495v663h-129v163h129v617zM333 162h303q245 0 377 144t132 415q1 270 -131 415t-378 145h-303v-455h277v-163h-277v-501z" />
    <glyph glyph-name="dcroat" unicode="&#x111;" horiz-adv-x="1191" 
d="M65 538q0 246 128 398t330 152q115 0 205 -48t139 -137h4v364h-250v124h250v115h174v-115h132v-124h-132v-1267h-166v182h-3q-109 -192 -349 -192q-204 0 -333 152q-129 150 -129 396zM557 145q141 0 228 109t87 285t-87 285t-228 109t-227 -108q-86 -109 -87 -287
q1 -178 87 -286t227 -107z" />
    <glyph glyph-name="Emacron" unicode="&#x112;" horiz-adv-x="1131" 
d="M904 1748v-106h-634v106h634zM1034 162v-162h-894v1443h894v-162h-714v-463h677v-160h-677v-496h714z" />
    <glyph glyph-name="emacron" unicode="&#x113;" horiz-adv-x="1084" 
d="M868 1426v-106h-634v106h634zM559 -10q-227 0 -361 147t-133 398q0 251 133 402t351 151t344 -142t126 -387v-68h-774v-10q0 -154 87 -246t231 -92q101 1 175 45t96 120h172q-22 -138 -148 -228t-299 -90zM548 935q-128 0 -210 -84q-84 -84 -93 -221h593q-2 137 -82 221
t-208 84z" />
    <glyph glyph-name="Ebreve" unicode="&#x114;" horiz-adv-x="1131" 
d="M277 1849h119q0 -83 55 -139t136 -57q81 1 136 57t55 139h119q-1 -131 -87 -215t-223 -84t-223 84t-87 215zM1034 162v-162h-894v1443h894v-162h-714v-463h677v-160h-677v-496h714z" />
    <glyph glyph-name="ebreve" unicode="&#x115;" horiz-adv-x="1084" 
d="M228 1550h123q-1 -86 57 -144t142 -59q84 1 142 59t57 144h123q0 -138 -90 -224t-232 -86t-232 86t-90 224zM559 -10q-227 0 -361 147t-133 398q0 251 133 402t351 151t344 -142t126 -387v-68h-774v-10q0 -154 87 -246t231 -92q101 1 175 45t96 120h172
q-22 -138 -148 -228t-299 -90zM548 935q-128 0 -210 -84q-84 -84 -93 -221h593q-2 137 -82 221t-208 84z" />
    <glyph glyph-name="Edotaccent" unicode="&#x116;" horiz-adv-x="1131" 
d="M587 1585q-49 -1 -85 35t-36 86t36 86t85 35q49 1 85 -35t36 -86t-36 -86t-85 -35zM1034 162v-162h-894v1443h894v-162h-714v-463h677v-160h-677v-496h714z" />
    <glyph glyph-name="edotaccent" unicode="&#x117;" horiz-adv-x="1084" 
d="M551 1261q-51 1 -87 37t-37 87q1 51 37 87t87 37q51 -1 87 -37t37 -87q-1 -51 -37 -87t-87 -37zM559 -10q-227 0 -361 147t-133 398q0 251 133 402t351 151t344 -142t126 -387v-68h-774v-10q0 -154 87 -246t231 -92q101 1 175 45t96 120h172q-22 -138 -148 -228t-299 -90
zM548 935q-128 0 -210 -84q-84 -84 -93 -221h593q-2 137 -82 221t-208 84z" />
    <glyph glyph-name="Eogonek" unicode="&#x118;" horiz-adv-x="1131" 
d="M638 -226q0 134 142 222v4h-640v1443h894v-162h-714v-463h677v-160h-677v-496h714v-150l-43 -14q-78 -26 -131 -78t-53 -102q-1 -50 31 -78t78 -28t69 6v-134q-45 -16 -104 -16q-107 0 -175 58t-68 148z" />
    <glyph glyph-name="eogonek" unicode="&#x119;" horiz-adv-x="1084" 
d="M548 935q-128 0 -210 -84q-84 -84 -93 -221h593q-2 137 -82 221t-208 84zM743 -432q-107 0 -175 58t-68 146q0 122 129 220v4q-32 -6 -70 -6q-227 0 -361 147t-133 398q0 251 133 402t351 151t344 -142t126 -387v-68h-774v-10q0 -154 87 -246t231 -92q101 1 175 45
t96 120h172q-24 -146 -205 -286q-132 -102 -132 -212q-1 -42 31 -70t79 -28t68 6v-134q-44 -16 -104 -16z" />
    <glyph glyph-name="Ecaron" unicode="&#x11a;" horiz-adv-x="1131" 
d="M516 1550l-292 299h168l194 -201h2l194 201h168l-292 -299h-142zM1034 162v-162h-894v1443h894v-162h-714v-463h677v-160h-677v-496h714z" />
    <glyph glyph-name="ecaron" unicode="&#x11b;" horiz-adv-x="1084" 
d="M613 1250h-124l-277 300h163l173 -197h6l173 197h163zM559 -10q-227 0 -361 147t-133 398q0 251 133 402t351 151t344 -142t126 -387v-68h-774v-10q0 -154 87 -246t231 -92q101 1 175 45t96 120h172q-22 -138 -148 -228t-299 -90zM548 935q-128 0 -210 -84
q-84 -84 -93 -221h593q-2 137 -82 221t-208 84z" />
    <glyph glyph-name="Gcircumflex" unicode="&#x11c;" horiz-adv-x="1447" 
d="M674 1849h142l292 -299h-168l-194 201h-2l-194 -201h-168zM1357 597q1 -293 -161 -457t-458 -164t-474 204q-180 204 -180 546q0 341 179 541t482 200q235 -1 399 -129t204 -343h-189q-45 146 -153 226t-261 80q-223 1 -349 -151t-127 -422q0 -270 128 -428t334 -158
t326 114t120 294v26h-407v158h587v-137z" />
    <glyph glyph-name="gcircumflex" unicode="&#x11d;" horiz-adv-x="1163" 
d="M617 1550l277 -300h-163l-173 197h-6l-173 -197h-163l277 300h124zM579 -385q-205 -1 -327 81t-141 216h181q20 -66 94 -106t198 -40t205 68q82 68 82 182v169h-4q-51 -89 -142 -137t-204 -48q-205 0 -331 150t-125 394q0 246 126 395t334 149q113 0 205 -48t146 -137h3
v175h166v-1048q-1 -193 -131 -304t-335 -111zM554 155q142 -1 230 107t87 282q1 174 -87 281q-88 108 -230 108q-142 -1 -226 -107q-85 -106 -85 -282t85 -283q84 -106 226 -106z" />
    <glyph glyph-name="Gbreve" unicode="&#x11e;" horiz-adv-x="1447" 
d="M435 1849h119q0 -83 55 -139t136 -57q81 1 136 57t55 139h119q-1 -131 -87 -215t-223 -84t-223 84t-87 215zM1357 597q1 -293 -161 -457t-458 -164t-474 204q-180 204 -180 546q0 341 179 541t482 200q235 -1 399 -129t204 -343h-189q-45 146 -153 226t-261 80
q-223 1 -349 -151t-127 -422q0 -270 128 -428t334 -158t326 114t120 294v26h-407v158h587v-137z" />
    <glyph glyph-name="gbreve" unicode="&#x11f;" horiz-adv-x="1163" 
d="M232 1550h123q-1 -86 57 -144t142 -59q84 1 142 59t57 144h123q0 -138 -90 -224t-232 -86t-232 86t-90 224zM579 -385q-205 -1 -327 81t-141 216h181q20 -66 94 -106t198 -40t205 68q82 68 82 182v169h-4q-51 -89 -142 -137t-204 -48q-205 0 -331 150t-125 394
q0 246 126 395t334 149q113 0 205 -48t146 -137h3v175h166v-1048q-1 -193 -131 -304t-335 -111zM554 155q142 -1 230 107t87 282q1 174 -87 281q-88 108 -230 108q-142 -1 -226 -107q-85 -106 -85 -282t85 -283q84 -106 226 -106z" />
    <glyph glyph-name="Gdotaccent" unicode="&#x120;" horiz-adv-x="1447" 
d="M745 1585q-49 -1 -85 35t-36 86t36 86t85 35q49 1 85 -35t36 -86t-36 -86t-85 -35zM1357 597q1 -293 -161 -457t-458 -164t-474 204q-180 204 -180 546q0 341 179 541t482 200q235 -1 399 -129t204 -343h-189q-45 146 -153 226t-261 80q-223 1 -349 -151t-127 -422
q0 -270 128 -428t334 -158t326 114t120 294v26h-407v158h587v-137z" />
    <glyph glyph-name="gdotaccent" unicode="&#x121;" horiz-adv-x="1163" 
d="M555 1261q-51 1 -87 37t-37 87q1 51 37 87t87 37q51 -1 87 -37t37 -87q-1 -51 -37 -87t-87 -37zM579 -385q-205 -1 -327 81t-141 216h181q20 -66 94 -106t198 -40t205 68q82 68 82 182v169h-4q-51 -89 -142 -137t-204 -48q-205 0 -331 150t-125 394q0 246 126 395
t334 149q113 0 205 -48t146 -137h3v175h166v-1048q-1 -193 -131 -304t-335 -111zM554 155q142 -1 230 107t87 282q1 174 -87 281q-88 108 -230 108q-142 -1 -226 -107q-85 -106 -85 -282t85 -283q84 -106 226 -106z" />
    <glyph glyph-name="Gcommaaccent" unicode="&#x122;" horiz-adv-x="1447" 
d="M730 -541h-126l91 369h153zM1357 597q1 -293 -161 -457t-458 -164t-474 204q-180 204 -180 546q0 341 179 541t482 200q235 -1 399 -129t204 -343h-189q-45 146 -153 226t-261 80q-223 1 -349 -151t-127 -422q0 -270 128 -428t334 -158t326 114t120 294v26h-407v158h587
v-137z" />
    <glyph glyph-name="gcommaaccent" unicode="&#x123;" horiz-adv-x="1163" 
d="M542 -908h-126l91 369h153zM579 -385q-205 -1 -327 81t-141 216h181q20 -66 94 -106t198 -40t205 68q82 68 82 182v169h-4q-51 -89 -142 -137t-204 -48q-205 0 -331 150t-125 394q0 246 126 395t334 149q113 0 205 -48t146 -137h3v175h166v-1048q-1 -193 -131 -304
t-335 -111zM554 155q142 -1 230 107t87 282q1 174 -87 281q-88 108 -230 108q-142 -1 -226 -107q-85 -106 -85 -282t85 -283q84 -106 226 -106z" />
    <glyph glyph-name="Hcircumflex" unicode="&#x124;" horiz-adv-x="1432" 
d="M645 1849h142l292 -299h-168l-194 201h-2l-194 -201h-168zM1292 0h-180v657h-792v-657h-180v1443h180v-624h792v624h180v-1443z" />
    <glyph glyph-name="hcircumflex" unicode="&#x125;" horiz-adv-x="1141" 
d="M145 1912h142l292 -299h-168l-194 201h-2l-194 -201h-168zM128 0v1506h174v-603h4q102 185 342 185q176 0 278 -109t102 -291v-688h-174v657q0 131 -66 203t-197 73q-131 0 -210 -85t-79 -228v-620h-174z" />
    <glyph glyph-name="Hbar" unicode="&#x126;" horiz-adv-x="1432" 
d="M1427 1218v-143h-135v-1075h-180v657h-792v-657h-180v1075h-135v143h135v225h180v-225h792v225h180v-225h135zM1112 819v256h-792v-256h792z" />
    <glyph glyph-name="hbar" unicode="&#x127;" horiz-adv-x="1141" 
d="M302 903h4q102 185 342 185q176 0 278 -109t102 -291v-688h-174v657q0 131 -66 203t-197 73q-131 0 -210 -85t-79 -228v-620h-174v1267h-114v124h114v115h174v-115h268v-124h-268v-364z" />
    <glyph glyph-name="Itilde" unicode="&#x128;" horiz-adv-x="460" 
d="M109 1687q-69 0 -69 -137h-114q0 118 47 184t131 66q48 0 88 -24t64 -52q64 -76 102 -76q62 0 62 138h114q0 -115 -48 -183t-122 -68q-74 -1 -128 53q-22 22 -42 46q-48 54 -85 53zM320 0h-180v1443h180v-1443z" />
    <glyph glyph-name="itilde" unicode="&#x129;" horiz-adv-x="430" 
d="M98 1410q-69 0 -69 -137h-114q0 118 47 184t126 66q79 1 133 -53q23 -22 58 -61q35 -38 68 -38q62 0 62 138h114q0 -115 -48 -183t-122 -68q-73 0 -127 54q-22 22 -43 44q-48 54 -85 54zM128 0v1078h174v-1078h-174z" />
    <glyph glyph-name="Imacron" unicode="&#x12a;" horiz-adv-x="460" 
d="M547 1748v-106h-634v106h634zM320 0h-180v1443h180v-1443z" />
    <glyph glyph-name="imacron" unicode="&#x12b;" horiz-adv-x="430" 
d="M532 1426v-106h-634v106h634zM128 0v1078h174v-1078h-174z" />
    <glyph glyph-name="Ibreve" unicode="&#x12c;" horiz-adv-x="460" 
d="M-80 1849h119q0 -83 55 -139t136 -57q81 1 136 57t55 139h119q0 -131 -86 -215t-224 -84t-224 84t-86 215zM320 0h-180v1443h180v-1443z" />
    <glyph glyph-name="ibreve" unicode="&#x12d;" horiz-adv-x="430" 
d="M-108 1550h123q-1 -86 57 -144t142 -59q84 1 142 59t57 144h123q0 -138 -90 -224t-232 -86t-232 86t-90 224zM128 0v1078h174v-1078h-174z" />
    <glyph glyph-name="Iogonek" unicode="&#x12e;" horiz-adv-x="460" 
d="M-1 -228q0 143 141 228v1443h180v-1443q-152 -91 -152 -190q0 -42 32 -70t78 -28t68 6v-134q-45 -16 -104 -16q-106 0 -174 58t-69 146z" />
    <glyph glyph-name="iogonek" unicode="&#x12f;" horiz-adv-x="430" 
d="M150 -190q0 -42 32 -70t78 -28t68 6v-134q-45 -16 -104 -16q-106 0 -174 58t-69 136q0 153 147 242v1074h174v-1078q-152 -91 -152 -190zM216 1252q-46 0 -78 32t-33 78q1 46 33 78t78 32t77 -32q32 -32 32 -78t-32 -78q-31 -32 -77 -32z" />
    <glyph glyph-name="Idotaccent" unicode="&#x130;" horiz-adv-x="460" 
d="M230 1585q-50 -1 -86 35t-35 86q-1 50 35 86t86 35q50 1 86 -35t35 -86q1 -50 -35 -86t-86 -35zM320 0h-180v1443h180v-1443z" />
    <glyph glyph-name="dotlessi" unicode="&#x131;" horiz-adv-x="430" 
d="M128 0v1078h174v-1078h-174z" />
    <glyph glyph-name="u0132" unicode="&#x132;" horiz-adv-x="1474" 
d="M502 339h179q3 -91 67 -149t172 -58t171 70t63 201v1040h180v-1041q0 -204 -112 -320t-302 -116t-304 104t-114 269zM320 0h-180v1443h180v-1443z" />
    <glyph glyph-name="u0133" unicode="&#x133;" horiz-adv-x="860" 
d="M646 1252q-46 0 -78 32t-33 78q1 46 33 78t78 32t77 -32q32 -32 32 -78t-32 -78q-31 -32 -77 -32zM732 1078v-1131q0 -165 -80 -241t-251 -76h-31v147h27q89 -1 125 37t36 130v1134h174zM216 1252q-46 0 -78 32t-33 78q1 46 33 78t78 32t77 -32q32 -32 32 -78t-32 -78
q-31 -32 -77 -32zM128 0v1078h174v-1078h-174z" />
    <glyph glyph-name="Jcircumflex" unicode="&#x134;" horiz-adv-x="1014" 
d="M713 1849h142l292 -299h-168l-194 201h-2l-194 -201h-168zM42 339h179q3 -91 67 -149t172 -58t171 70t63 201v1040h180v-1041q0 -204 -112 -320t-302 -116t-304 104t-114 269z" />
    <glyph glyph-name="jcircumflex" unicode="&#x135;" horiz-adv-x="428" 
d="M276 1550l277 -300h-163l-173 197h-6l-173 -197h-163l277 300h124zM302 1078v-1131q0 -165 -80 -241t-251 -76h-31v147h27q89 -1 125 37t36 130v1134h174z" />
    <glyph glyph-name="Kcommaaccent" unicode="&#x136;" horiz-adv-x="1260" 
d="M594 -541h-126l91 369h153zM320 0h-180v1443h180v-704h10l637 704h227l-593 -639l646 -804h-230l-541 676l-156 -172v-504z" />
    <glyph glyph-name="kcommaaccent" unicode="&#x137;" horiz-adv-x="1026" 
d="M541 -541h-126l91 369h153zM302 0h-174v1506h174v-910l483 482h212l-471 -466l485 -612h-202l-405 505l-102 -96v-409z" />
    <glyph glyph-name="Lacute" unicode="&#x139;" horiz-adv-x="1074" 
d="M307 1550h-148l231 299h198zM1016 162v-162h-876v1443h180v-1281h696z" />
    <glyph glyph-name="lacute" unicode="&#x13a;" horiz-adv-x="430" 
d="M292 1613h-148l231 299h198zM128 0v1506h174v-1506h-174z" />
    <glyph glyph-name="Lcommaaccent" unicode="&#x13b;" horiz-adv-x="1074" 
d="M563 -541h-126l91 369h153zM1016 162v-162h-876v1443h180v-1281h696z" />
    <glyph glyph-name="lcommaaccent" unicode="&#x13c;" horiz-adv-x="430" 
d="M200 -541h-126l91 369h153zM128 0v1506h174v-1506h-174z" />
    <glyph glyph-name="Lcaron" unicode="&#x13d;" horiz-adv-x="1074" 
d="M1016 162v-162h-876v1443h180v-1281h696zM589 1443h170l-50 -488h-120v488z" />
    <glyph glyph-name="lcaron" unicode="&#x13e;" horiz-adv-x="565" 
d="M128 0v1506h174v-1506h-174zM453 1506h140l-30 -488h-110v488z" />
    <glyph glyph-name="Lslash" unicode="&#x141;" horiz-adv-x="1074" 
d="M320 162h696v-162h-876v699l-122 -56v143l122 56v601h180v-519l336 153v-143l-336 -153v-619z" />
    <glyph glyph-name="lslash" unicode="&#x142;" horiz-adv-x="456" 
d="M315 0h-174v707l-127 -61v143l127 61v656h174v-573l127 61v-143l-127 -61v-790z" />
    <glyph glyph-name="Nacute" unicode="&#x143;" horiz-adv-x="1432" 
d="M793 1550h-148l231 299h198zM318 0h-178v1443h175l790 -1133h9v1133h178v-1443h-175l-790 1129h-9v-1129z" />
    <glyph glyph-name="nacute" unicode="&#x144;" horiz-adv-x="1115" 
d="M634 1250h-148l211 300h198zM118 0v1078h164v-175h4q103 185 342 185q178 0 276 -106t98 -291v-691h-174v661q0 272 -252 272q-132 1 -208 -83t-76 -224v-626h-174z" />
    <glyph glyph-name="Ncommaaccent" unicode="&#x145;" horiz-adv-x="1432" 
d="M701 -541h-126l91 369h153zM318 0h-178v1443h175l790 -1133h9v1133h178v-1443h-175l-790 1129h-9v-1129z" />
    <glyph glyph-name="ncommaaccent" unicode="&#x146;" horiz-adv-x="1115" 
d="M555 -541h-126l91 369h153zM118 0v1078h164v-175h4q103 185 342 185q178 0 276 -106t98 -291v-691h-174v661q0 272 -252 272q-132 1 -208 -83t-76 -224v-626h-174z" />
    <glyph glyph-name="Ncaron" unicode="&#x147;" horiz-adv-x="1432" 
d="M645 1550l-292 299h168l194 -201h2l194 201h168l-292 -299h-142zM318 0h-178v1443h175l790 -1133h9v1133h178v-1443h-175l-790 1129h-9v-1129z" />
    <glyph glyph-name="ncaron" unicode="&#x148;" horiz-adv-x="1115" 
d="M622 1250h-124l-277 300h163l173 -197h6l173 197h163zM118 0v1078h164v-175h4q103 185 342 185q178 0 276 -106t98 -291v-691h-174v661q0 272 -252 272q-132 1 -208 -83t-76 -224v-626h-174z" />
    <glyph glyph-name="Omacron" unicode="&#x14c;" horiz-adv-x="1498" 
d="M1066 1748v-106h-634v106h634zM749 1301q-221 -1 -351 -157t-129 -422q-1 -266 129 -424q130 -156 351 -156t351 156t129 424q1 266 -129 422t-351 157zM749 1467q307 0 486 -201t179 -545q0 -345 -179 -545t-486 -200t-486 200t-179 545q0 344 179 545t486 201z" />
    <glyph glyph-name="omacron" unicode="&#x14d;" horiz-adv-x="1124" 
d="M879 1426v-106h-634v106h634zM562 145q150 1 236 105q84 104 84 290t-84 289q-84 104 -236 104q-152 -1 -236 -105t-84 -289t85 -289t235 -105zM562 -10q-227 0 -362 149t-135 400t135 400t362 149t362 -149t135 -400t-135 -400t-362 -149z" />
    <glyph glyph-name="Obreve" unicode="&#x14e;" horiz-adv-x="1498" 
d="M439 1849h119q0 -83 55 -139t136 -57q81 1 136 57t55 139h119q-1 -131 -87 -215t-223 -84t-223 84t-87 215zM749 1301q-221 -1 -351 -157t-129 -422q-1 -266 129 -424q130 -156 351 -156t351 156t129 424q1 266 -129 422t-351 157zM749 1467q307 0 486 -201t179 -545
q0 -345 -179 -545t-486 -200t-486 200t-179 545q0 344 179 545t486 201z" />
    <glyph glyph-name="obreve" unicode="&#x14f;" horiz-adv-x="1124" 
d="M239 1550h123q0 -86 58 -144t141 -59q83 1 141 59t58 144h123q1 -138 -89 -224t-233 -86t-233 86t-89 224zM562 145q150 1 236 105q84 104 84 290t-84 289q-84 104 -236 104q-152 -1 -236 -105t-84 -289t85 -289t235 -105zM562 -10q-227 0 -362 149t-135 400t135 400
t362 149t362 -149t135 -400t-135 -400t-362 -149z" />
    <glyph glyph-name="Ohungarumlaut" unicode="&#x150;" horiz-adv-x="1498" 
d="M663 1550h-138l231 299h188zM973 1550h-138l231 299h188zM749 1301q-221 -1 -351 -157t-129 -422q-1 -266 129 -424q130 -156 351 -156t351 156t129 424q1 266 -129 422t-351 157zM749 1467q307 0 486 -201t179 -545q0 -345 -179 -545t-486 -200t-486 200t-179 545
q0 344 179 545t486 201z" />
    <glyph glyph-name="ohungarumlaut" unicode="&#x151;" horiz-adv-x="1124" 
d="M336 1250l196 300h195l-255 -300h-136zM652 1250l196 300h195l-255 -300h-136zM562 145q150 1 236 105q84 104 84 290t-84 289q-84 104 -236 104q-152 -1 -236 -105t-84 -289t85 -289t235 -105zM562 -10q-227 0 -362 149t-135 400t135 400t362 149t362 -149t135 -400
t-135 -400t-362 -149z" />
    <glyph glyph-name="OE" unicode="&#x152;" horiz-adv-x="2216" 
d="M1245 0v228q-75 -120 -203 -186t-286 -66q-310 0 -491 201t-181 545t181 544q181 201 491 201q162 -1 288 -65t201 -183v224h874v-162h-694v-463h656v-160h-656v-496h694v-162h-874zM756 1301q-224 -1 -356 -157t-131 -422q-1 -266 131 -424q132 -156 356 -156t354 156
q132 156 132 423q0 266 -132 423q-130 157 -354 157z" />
    <glyph glyph-name="oe" unicode="&#x153;" horiz-adv-x="1901" 
d="M242 539q0 -185 85 -289t235 -105q150 1 236 105q84 104 84 290t-84 289q-84 104 -236 104q-152 -1 -236 -105t-84 -289zM1365 935q-127 0 -211 -84t-92 -221h593q-3 137 -83 221t-207 84zM1397 -10q-298 0 -425 213h-8q-70 -109 -168 -161t-234 -52q-227 0 -362 149
t-135 400t135 400t362 149q137 0 234 -52t168 -164h8q60 102 164 159t232 57q216 0 342 -142t126 -387v-68h-774v-10q0 -154 87 -246t231 -92q100 1 174 45t97 120h172q-22 -138 -148 -228t-278 -90z" />
    <glyph glyph-name="Racute" unicode="&#x154;" horiz-adv-x="1237" 
d="M612 1550h-148l231 299h198zM320 571v-571h-180v1443h551q209 1 335 -117t125 -313q0 -151 -77 -261t-213 -153l334 -599h-211l-309 571h-355zM320 1283v-553h355q139 0 215 72t75 204q0 132 -79 204q-79 73 -219 73h-347z" />
    <glyph glyph-name="racute" unicode="&#x155;" horiz-adv-x="649" 
d="M440 1250h-148l211 300h198zM118 0v1078h164v-175h4q24 85 95 135t166 50q42 0 72 -6v-171q-28 10 -95 10q-104 0 -168 -70t-64 -184v-667h-174z" />
    <glyph glyph-name="Rcommaaccent" unicode="&#x156;" horiz-adv-x="1237" 
d="M520 -541h-126l91 369h153zM320 571v-571h-180v1443h551q209 1 335 -117t125 -313q0 -151 -77 -261t-213 -153l334 -599h-211l-309 571h-355zM320 1283v-553h355q139 0 215 72t75 204q0 132 -79 204q-79 73 -219 73h-347z" />
    <glyph glyph-name="rcommaaccent" unicode="&#x157;" horiz-adv-x="649" 
d="M190 -541h-126l91 369h153zM118 0v1078h164v-175h4q24 85 95 135t166 50q42 0 72 -6v-171q-28 10 -95 10q-104 0 -168 -70t-64 -184v-667h-174z" />
    <glyph glyph-name="Rcaron" unicode="&#x158;" horiz-adv-x="1237" 
d="M464 1550l-292 299h168l194 -201h2l194 201h168l-292 -299h-142zM320 571v-571h-180v1443h551q209 1 335 -117t125 -313q0 -151 -77 -261t-213 -153l334 -599h-211l-309 571h-355zM320 1283v-553h355q139 0 215 72t75 204q0 132 -79 204q-79 73 -219 73h-347z" />
    <glyph glyph-name="rcaron" unicode="&#x159;" horiz-adv-x="649" 
d="M428 1250h-124l-277 300h163l173 -197h6l173 197h163zM118 0v1078h164v-175h4q24 85 95 135t166 50q42 0 72 -6v-171q-28 10 -95 10q-104 0 -168 -70t-64 -184v-667h-174z" />
    <glyph glyph-name="Sacute" unicode="&#x15a;" horiz-adv-x="1216" 
d="M699 1550h-148l231 299h198zM618 138q150 0 246 70t96 168t-66 157t-213 97l-185 48q-200 50 -292 142t-92 239q0 180 142 294t363 114q220 1 361 -115t147 -297h-180q-12 116 -100 183q-89 67 -229 67t-228 -66t-89 -160q1 -95 65 -147t211 -90l151 -40
q224 -56 322 -149t98 -248q0 -197 -146 -313t-384 -116q-240 0 -386 115t-159 306h181q12 -117 114 -188t252 -71z" />
    <glyph glyph-name="sacute" unicode="&#x15b;" horiz-adv-x="984" 
d="M573 1250h-148l211 300h198zM100 777q0 136 112 223t281 87q169 1 281 -87t117 -221h-167q-8 76 -70 120t-162 44t-160 -43q-61 -43 -61 -114q0 -108 182 -153l164 -41q163 -42 229 -106t67 -192t-119 -216t-300 -88t-296 86q-115 86 -128 227h175q13 -81 79 -125
t175 -44q111 0 175 42t64 108q0 64 -38 98t-130 58l-189 49q-281 73 -281 288z" />
    <glyph glyph-name="Scircumflex" unicode="&#x15c;" horiz-adv-x="1216" 
d="M551 1849h142l292 -299h-168l-194 201h-2l-194 -201h-168zM618 138q150 0 246 70t96 168t-66 157t-213 97l-185 48q-200 50 -292 142t-92 239q0 180 142 294t363 114q220 1 361 -115t147 -297h-180q-12 116 -100 183q-89 67 -229 67t-228 -66t-89 -160q1 -95 65 -147
t211 -90l151 -40q224 -56 322 -149t98 -248q0 -197 -146 -313t-384 -116q-240 0 -386 115t-159 306h181q12 -117 114 -188t252 -71z" />
    <glyph glyph-name="scircumflex" unicode="&#x15d;" horiz-adv-x="984" 
d="M561 1550l277 -300h-163l-173 197h-6l-173 -197h-163l277 300h124zM100 777q0 136 112 223t281 87q169 1 281 -87t117 -221h-167q-8 76 -70 120t-162 44t-160 -43q-61 -43 -61 -114q0 -108 182 -153l164 -41q163 -42 229 -106t67 -192t-119 -216t-300 -88t-296 86
q-115 86 -128 227h175q13 -81 79 -125t175 -44q111 0 175 42t64 108q0 64 -38 98t-130 58l-189 49q-281 73 -281 288z" />
    <glyph glyph-name="Scedilla" unicode="&#x15e;" horiz-adv-x="1216" 
d="M1146 390q0 -170 -128 -284t-352 -128l-44 -120q209 0 209 -150q0 -76 -62 -126t-151 -51t-153 17v98q37 -15 122 -15q120 0 120 73q1 34 -35 50t-115 16h-55v74l51 134q-208 14 -339 127t-143 292h181q12 -117 114 -188t252 -71t246 70t96 168t-66 157t-213 97l-185 48
q-200 50 -292 142t-92 239q0 180 142 294t363 114q220 1 361 -115t147 -297h-180q-12 116 -100 183q-89 67 -229 67t-228 -66t-89 -160q1 -95 65 -147t211 -90l151 -40q224 -56 322 -149t98 -263z" />
    <glyph glyph-name="scedilla" unicode="&#x15f;" horiz-adv-x="984" 
d="M913 300q0 -122 -100 -206q-100 -85 -261 -101l-49 -135q209 0 209 -150q0 -76 -62 -126t-151 -51t-153 17v98q38 -15 122 -15q120 0 120 73q0 34 -36 50t-114 16h-55v74l57 148q-156 12 -257 96t-113 215h175q13 -81 79 -125t175 -44q111 0 175 42t64 108q0 64 -38 98
t-130 58l-189 49q-281 73 -281 288q0 136 112 223t281 87q169 1 281 -87t117 -221h-167q-8 76 -70 120t-162 44t-160 -43q-61 -43 -61 -114q0 -108 182 -153l164 -41q163 -42 229 -106t67 -186z" />
    <glyph glyph-name="Scaron" unicode="&#x160;" horiz-adv-x="1216" 
d="M551 1550l-292 299h168l194 -201h2l194 201h168l-292 -299h-142zM618 138q150 0 246 70t96 168t-66 157t-213 97l-185 48q-200 50 -292 142t-92 239q0 180 142 294t363 114q220 1 361 -115t147 -297h-180q-12 116 -100 183q-89 67 -229 67t-228 -66t-89 -160
q1 -95 65 -147t211 -90l151 -40q224 -56 322 -149t98 -248q0 -197 -146 -313t-384 -116q-240 0 -386 115t-159 306h181q12 -117 114 -188t252 -71z" />
    <glyph glyph-name="scaron" unicode="&#x161;" horiz-adv-x="984" 
d="M561 1250h-124l-277 300h163l173 -197h6l173 197h163zM100 777q0 136 112 223t281 87q169 1 281 -87t117 -221h-167q-8 76 -70 120t-162 44t-160 -43q-61 -43 -61 -114q0 -108 182 -153l164 -41q163 -42 229 -106t67 -192t-119 -216t-300 -88t-296 86q-115 86 -128 227
h175q13 -81 79 -125t175 -44q111 0 175 42t64 108q0 64 -38 98t-130 58l-189 49q-281 73 -281 288z" />
    <glyph glyph-name="Tcedilla" unicode="&#x162;" horiz-adv-x="1210" 
d="M695 0h-22l-52 -142q209 0 209 -150q0 -76 -62 -126t-151 -51t-153 17v98q38 -15 122 -15q120 0 120 73q0 34 -36 50t-114 16h-55v74l60 156h-46v1281h-465v162h1110v-162h-465v-1281z" />
    <glyph glyph-name="tcedilla" unicode="&#x163;" horiz-adv-x="634" 
d="M349 287q0 -144 122 -144q57 0 87 5v-147q-38 -9 -112 -9h-14l-49 -134q209 0 209 -150q0 -76 -62 -126t-151 -51t-153 17v98q37 -15 122 -15q120 0 120 73q0 34 -36 50t-114 16h-55v74l62 163q-79 23 -115 89t-35 184v654h-150v144h150v243h174v-243h210v-144h-210v-647
z" />
    <glyph glyph-name="Tcaron" unicode="&#x164;" horiz-adv-x="1210" 
d="M534 1550l-292 299h168l194 -201h2l194 201h168l-292 -299h-142zM695 0h-180v1281h-465v162h1110v-162h-465v-1281z" />
    <glyph glyph-name="tcaron" unicode="&#x165;" horiz-adv-x="723" 
d="M349 287q0 -144 122 -144q57 0 87 5v-147q-38 -9 -112 -9q-146 0 -208 66t-63 222v654h-150v144h150v243h174v-243h210v-144h-210v-647zM500 1720h140l-30 -488h-110v488z" />
    <glyph glyph-name="Tbar" unicode="&#x166;" horiz-adv-x="1250" 
d="M1160 1281h-465v-488h325v-143h-325v-650h-180v650h-285v143h285v488h-465v162h1110v-162z" />
    <glyph glyph-name="tbar" unicode="&#x167;" horiz-adv-x="636" 
d="M349 287q0 -144 122 -144q57 0 87 5v-147q-38 -9 -112 -9q-146 0 -208 66t-63 222v215h-150v144h150v295h-150v144h150v243h174v-243h210v-144h-210v-295h212v-144h-212v-208z" />
    <glyph glyph-name="Utilde" unicode="&#x168;" horiz-adv-x="1426" 
d="M592 1687q-69 0 -69 -137h-114q0 118 47 184t131 66q47 0 87 -24t64 -52q64 -76 103 -76q62 0 62 138h114q0 -115 -48 -183t-122 -68q-73 -1 -127 53q-22 22 -43 46q-48 54 -85 53zM320 1443v-925q0 -168 104 -272t289 -104t289 104t104 272v925h180v-937
q0 -234 -154 -382t-419 -148t-419 148t-154 382v937h180z" />
    <glyph glyph-name="utilde" unicode="&#x169;" horiz-adv-x="1115" 
d="M438 1410q-69 0 -69 -137h-114q0 118 47 184t126 66q79 1 133 -53q23 -22 58 -61q35 -38 68 -38q62 0 62 138h114q0 -115 -48 -183t-122 -68q-73 0 -127 54q-22 22 -43 44q-48 54 -85 54zM997 1078v-1078h-164v178h-4q-102 -188 -343 -188q-176 0 -274 106t-99 291v691
h174v-661q0 -272 252 -272q132 -1 208 83t76 224v626h174z" />
    <glyph glyph-name="Umacron" unicode="&#x16a;" horiz-adv-x="1426" 
d="M1030 1748v-106h-634v106h634zM320 1443v-925q0 -168 104 -272t289 -104t289 104t104 272v925h180v-937q0 -234 -154 -382t-419 -148t-419 148t-154 382v937h180z" />
    <glyph glyph-name="umacron" unicode="&#x16b;" horiz-adv-x="1115" 
d="M872 1426v-106h-634v106h634zM997 1078v-1078h-164v178h-4q-102 -188 -343 -188q-176 0 -274 106t-99 291v691h174v-661q0 -272 252 -272q132 -1 208 83t76 224v626h174z" />
    <glyph glyph-name="Ubreve" unicode="&#x16c;" horiz-adv-x="1426" 
d="M403 1849h119q0 -83 55 -139t136 -57q81 1 136 57t55 139h119q-1 -131 -87 -215t-223 -84t-223 84t-87 215zM320 1443v-925q0 -168 104 -272t289 -104t289 104t104 272v925h180v-937q0 -234 -154 -382t-419 -148t-419 148t-154 382v937h180z" />
    <glyph glyph-name="ubreve" unicode="&#x16d;" horiz-adv-x="1115" 
d="M232 1550h123q-1 -86 57 -144t142 -59q84 1 142 59t57 144h123q0 -138 -90 -224t-232 -86t-232 86t-90 224zM997 1078v-1078h-164v178h-4q-102 -188 -343 -188q-176 0 -274 106t-99 291v691h174v-661q0 -272 252 -272q132 -1 208 83t76 224v626h174z" />
    <glyph glyph-name="Uring" unicode="&#x16e;" horiz-adv-x="1426" 
d="M713 1590q48 0 82 34t34 82t-34 82t-82 34t-82 -34t-34 -82t34 -82t82 -34zM713 1507q-83 1 -141 59t-58 140t58 140t141 59q83 -1 141 -59t58 -140t-58 -140t-141 -59zM320 1443v-925q0 -168 104 -272t289 -104t289 104t104 272v925h180v-937q0 -234 -154 -382
t-419 -148t-419 148t-154 382v937h180z" />
    <glyph glyph-name="uring" unicode="&#x16f;" horiz-adv-x="1115" 
d="M555 1267q48 0 82 34t34 82t-34 82t-82 34t-82 -34t-34 -82t34 -82t82 -34zM555 1184q-83 0 -141 58t-58 141t58 141t141 58t141 -58t58 -141t-58 -141t-141 -58zM997 1078v-1078h-164v178h-4q-102 -188 -343 -188q-176 0 -274 106t-99 291v691h174v-661q0 -272 252 -272
q132 -1 208 83t76 224v626h174z" />
    <glyph glyph-name="Uhungarumlaut" unicode="&#x170;" horiz-adv-x="1426" 
d="M627 1550h-138l231 299h188zM937 1550h-138l231 299h188zM320 1443v-925q0 -168 104 -272t289 -104t289 104t104 272v925h180v-937q0 -234 -154 -382t-419 -148t-419 148t-154 382v937h180z" />
    <glyph glyph-name="uhungarumlaut" unicode="&#x171;" horiz-adv-x="1115" 
d="M329 1250l196 300h195l-255 -300h-136zM645 1250l196 300h195l-255 -300h-136zM997 1078v-1078h-164v178h-4q-102 -188 -343 -188q-176 0 -274 106t-99 291v691h174v-661q0 -272 252 -272q132 -1 208 83t76 224v626h174z" />
    <glyph glyph-name="Uogonek" unicode="&#x172;" horiz-adv-x="1426" 
d="M967 -432q-107 0 -175 58t-68 146q0 118 129 224v4q-67 -24 -140 -24q-259 0 -416 145t-157 385v937h180v-925q0 -172 107 -274t286 -102t286 102t107 274v925h180v-937q0 -142 -62 -256t-196 -226q-135 -112 -135 -214q-1 -42 31 -70t79 -28t68 6v-134q-44 -16 -104 -16
z" />
    <glyph glyph-name="uogonek" unicode="&#x173;" horiz-adv-x="1115" 
d="M811 -190q-1 -42 31 -70t79 -28t68 6v-134q-44 -16 -104 -16q-107 0 -175 58t-68 140t52 148t139 98v166h-4q-102 -188 -343 -188q-176 0 -274 106t-99 291v691h174v-661q0 -272 252 -272q132 -1 208 83t76 224v626h174v-1078q-186 -78 -186 -190z" />
    <glyph glyph-name="Wcircumflex" unicode="&#x174;" horiz-adv-x="1892" 
d="M875 1849h142l292 -299h-168l-194 201h-2l-194 -201h-168zM941 1145l-333 -1145h-170l-393 1443h188l289 -1178h8l325 1178h182l325 -1178h8l289 1178h188l-393 -1443h-170l-333 1145h-10z" />
    <glyph glyph-name="wcircumflex" unicode="&#x175;" horiz-adv-x="1512" 
d="M818 1550l277 -300h-163l-173 197h-6l-173 -197h-163l277 300h124zM1482 1078l-302 -1078h-176l-246 838h-4l-246 -838h-176l-302 1078h172l219 -881h4l247 881h168l247 -881h4l219 881h172z" />
    <glyph glyph-name="Ycircumflex" unicode="&#x176;" horiz-adv-x="1254" 
d="M556 1849h142l292 -299h-168l-194 201h-2l-194 -201h-168zM717 0h-180v621l-512 822h205l394 -648h6l394 648h205l-512 -822v-621z" />
    <glyph glyph-name="ycircumflex" unicode="&#x177;" horiz-adv-x="1026" 
d="M576 1550l277 -300h-163l-173 197h-6l-173 -197h-163l277 300h124zM210 -391q-39 0 -76 7v147q30 -6 88 -6q58 1 103 41t78 137l21 64l-399 1079h185l302 -901h4l302 901h183l-422 -1144q-69 -187 -147 -256t-222 -69z" />
    <glyph glyph-name="Ydieresis" unicode="&#x178;" horiz-adv-x="1254" 
d="M824 1585q-46 0 -79 33t-33 79t33 79t79 33q46 -1 79 -33t33 -78t-33 -80q-33 -33 -79 -33zM430 1585q-46 0 -79 33t-33 79t33 79t79 33q46 -1 79 -33t33 -78t-33 -80q-33 -33 -79 -33zM717 0h-180v621l-512 822h205l394 -648h6l394 648h205l-512 -822v-621z" />
    <glyph glyph-name="Zacute" unicode="&#x179;" horiz-adv-x="1263" 
d="M709 1550h-148l231 299h198zM98 0v128l823 1146v7h-795v162h1022v-128l-819 -1146v-7h836v-162h-1067z" />
    <glyph glyph-name="zacute" unicode="&#x17a;" horiz-adv-x="990" 
d="M569 1250h-148l211 300h198zM95 0v126l601 805v3h-600v144h796v-129l-597 -802v-3h600v-144h-800z" />
    <glyph glyph-name="Zdotaccent" unicode="&#x17b;" horiz-adv-x="1263" 
d="M632 1585q-50 -1 -86 35t-35 86q-1 50 35 86t86 35q50 1 86 -35t35 -86q1 -50 -35 -86t-86 -35zM98 0v128l823 1146v7h-795v162h1022v-128l-819 -1146v-7h836v-162h-1067z" />
    <glyph glyph-name="zdotaccent" unicode="&#x17c;" horiz-adv-x="990" 
d="M495 1261q-51 1 -87 37t-37 87q1 51 37 87t87 37q51 -1 87 -37t37 -87q-1 -51 -37 -87t-87 -37zM95 0v126l601 805v3h-600v144h796v-129l-597 -802v-3h600v-144h-800z" />
    <glyph glyph-name="Zcaron" unicode="&#x17d;" horiz-adv-x="1263" 
d="M561 1550l-292 299h168l194 -201h2l194 201h168l-292 -299h-142zM98 0v128l823 1146v7h-795v162h1022v-128l-819 -1146v-7h836v-162h-1067z" />
    <glyph glyph-name="zcaron" unicode="&#x17e;" horiz-adv-x="990" 
d="M557 1250h-124l-277 300h163l173 -197h6l173 197h163zM95 0v126l601 805v3h-600v144h796v-129l-597 -802v-3h600v-144h-800z" />
    <glyph glyph-name="florin" unicode="&#x192;" horiz-adv-x="1239" 
d="M237 135q113 0 169 53t73 174l53 368h-336v144h357l34 237q27 175 129 265t275 91q124 0 212 -41v-157q-86 42 -196 42t-171 -51t-77 -160l-32 -226h368v-144h-389l-56 -388q-51 -366 -395 -366q-121 0 -218 47v167q88 -55 200 -55z" />
    <glyph glyph-name="Ohorn" unicode="&#x1a0;" horiz-adv-x="1498" 
d="M749 142q221 0 351 156t129 424q1 267 -129 423t-351 156q-221 -1 -351 -157t-129 -422q-1 -266 129 -424q130 -156 351 -156zM749 -24q-307 0 -486 200t-179 545q0 344 179 545t486 201q73 0 207 -20t202 -20q68 1 92 21t24 72v140h159v-192q-1 -76 -51 -124t-131 -47
h-59v-6q94 -68 158 -230t64 -340q0 -345 -179 -545t-486 -200z" />
    <glyph glyph-name="ohorn" unicode="&#x1a1;" horiz-adv-x="1168" 
d="M1059 539q0 -251 -135 -400t-362 -149t-362 149t-135 400t135 400t362 149q66 0 144 -12t134 -13q56 1 80 21t24 72v137h159v-189q0 -68 -41 -114t-103 -46h-56v-4q74 -52 115 -158t41 -243zM562 145q150 1 236 105q84 104 84 290t-84 289q-84 104 -236 104
q-152 -1 -236 -105t-84 -289t85 -289t235 -105z" />
    <glyph glyph-name="Uhorn" unicode="&#x1af;" horiz-adv-x="1573" 
d="M1288 1443q91 0 91 88v159h159v-189q0 -87 -54 -137t-148 -49h-50v-809q0 -240 -157 -385t-416 -145t-416 145t-157 385v937h180v-925q0 -172 107 -274t286 -102t286 102t107 274v925h182z" />
    <glyph glyph-name="uhorn" unicode="&#x1b0;" horiz-adv-x="1209" 
d="M969 1078q91 0 91 88v152h159v-182q0 -86 -54 -136t-148 -50h-20v-950h-164v178h-4q-101 -188 -343 -188q-175 0 -274 106t-99 291v691h174v-661q0 -272 252 -272q130 0 207 83t77 224v626h146z" />
    <glyph glyph-name="u01C4" unicode="&#x1c4;" horiz-adv-x="2662" 
d="M1960 1550l-292 299h168l194 -201h2l194 201h168l-292 -299h-142zM1497 0v128l823 1146v7h-795v162h1022v-128l-819 -1146v-7h836v-162h-1067zM320 1281v-1119h303q245 0 377 144t132 415q0 270 -132 415t-377 145h-303zM140 1443h495q321 -1 501 -191t180 -530
t-180 -532q-180 -190 -501 -190h-495v1443z" />
    <glyph glyph-name="u01C5" unicode="&#x1c5;" horiz-adv-x="2389" 
d="M1956 1250h-124l-277 300h163l173 -197h6l173 197h163zM1494 0v126l601 805v3h-600v144h796v-129l-597 -802v-3h600v-144h-800zM320 1281v-1119h303q245 0 377 144t132 415q0 270 -132 415t-377 145h-303zM140 1443h495q321 -1 501 -191t180 -530t-180 -532
q-180 -190 -501 -190h-495v1443z" />
    <glyph glyph-name="u01C6" unicode="&#x1c6;" horiz-adv-x="2163" 
d="M1730 1250h-124l-277 300h163l173 -197h6l173 197h163zM1268 0v126l601 805v3h-600v144h796v-129l-597 -802v-3h600v-144h-800zM557 933q-141 0 -227 -108q-86 -109 -87 -287q1 -178 87 -286t227 -107q141 0 228 109t87 285t-87 285t-228 109zM65 538q0 246 128 398
t330 152q115 0 205 -48t139 -137h4v603h174v-1506h-166v182h-3q-109 -192 -349 -192q-204 0 -333 152q-129 150 -129 396z" />
    <glyph glyph-name="u01C7" unicode="&#x1c7;" horiz-adv-x="2088" 
d="M1116 339h179q3 -91 67 -149t172 -58t171 70t63 201v1040h180v-1041q0 -204 -112 -320t-302 -116t-304 104t-114 269zM1016 162v-162h-876v1443h180v-1281h696z" />
    <glyph glyph-name="u01C8" unicode="&#x1c8;" horiz-adv-x="1504" 
d="M1290 1252q-46 0 -78 32t-33 78q1 46 33 78t78 32t77 -32q32 -32 32 -78t-32 -78q-31 -32 -77 -32zM1376 1078v-1131q0 -165 -80 -241t-251 -76h-31v147h27q89 -1 125 37t36 130v1134h174zM1016 162v-162h-876v1443h180v-1281h696z" />
    <glyph glyph-name="u01C9" unicode="&#x1c9;" horiz-adv-x="860" 
d="M646 1252q-46 0 -78 32t-33 78q1 46 33 78t78 32t77 -32q32 -32 32 -78t-32 -78q-31 -32 -77 -32zM732 1078v-1131q0 -165 -80 -241t-251 -76h-31v147h27q89 -1 125 37t36 130v1134h174zM128 0v1506h174v-1506h-174z" />
    <glyph glyph-name="u01CA" unicode="&#x1ca;" horiz-adv-x="2446" 
d="M1474 339h179q3 -91 67 -149t172 -58t171 70t63 201v1040h180v-1041q0 -204 -112 -320t-302 -116t-304 104t-114 269zM318 0h-178v1443h175l790 -1133h9v1133h178v-1443h-175l-790 1129h-9v-1129z" />
    <glyph glyph-name="u01CB" unicode="&#x1cb;" horiz-adv-x="1862" 
d="M1648 1252q-46 0 -78 32t-33 78q1 46 33 78t78 32t77 -32q32 -32 32 -78t-32 -78q-31 -32 -77 -32zM1734 1078v-1131q0 -165 -80 -241t-251 -76h-31v147h27q89 -1 125 37t36 130v1134h174zM318 0h-178v1443h175l790 -1133h9v1133h178v-1443h-175l-790 1129h-9v-1129z" />
    <glyph glyph-name="u01CC" unicode="&#x1cc;" horiz-adv-x="1545" 
d="M1330 1252q-46 0 -78 32t-32 78t32 78t78 32t78 -32t32 -78t-32 -78t-78 -32zM1417 1078v-1131q1 -165 -79 -241t-252 -76h-31v147h27q88 -1 124 37t37 130v1134h174zM118 0v1078h164v-175h4q103 185 342 185q178 0 276 -106t98 -291v-691h-174v661q0 272 -252 272
q-132 1 -208 -83t-76 -224v-626h-174z" />
    <glyph glyph-name="Acaron" unicode="&#x1cd;" horiz-adv-x="1292" 
d="M575 1550l-292 299h168l194 -201h2l194 201h168l-292 -299h-142zM643 1224l-231 -658h468l-231 658h-6zM1078 0l-145 413h-574l-145 -413h-189l532 1443h178l532 -1443h-189z" />
    <glyph glyph-name="acaron" unicode="&#x1ce;" horiz-adv-x="1062" 
d="M588 1250h-124l-277 300h163l173 -197h6l173 197h163zM433 -10q-164 0 -264 87t-100 228t104 221t300 91l302 18v90q0 100 -64 154q-65 54 -171 54t-170 -45t-81 -121h-167q4 137 121 229t297 92t295 -94q114 -94 114 -254v-740h-165v187h-4q-46 -89 -140 -143t-207 -54z
M485 141q117 1 203 77t87 192v87l-282 -18q-246 -15 -246 -173q1 -75 61 -120t177 -45z" />
    <glyph glyph-name="Icaron" unicode="&#x1cf;" horiz-adv-x="460" 
d="M159 1550l-292 299h168l194 -201h2l194 201h168l-292 -299h-142zM320 0h-180v1443h180v-1443z" />
    <glyph glyph-name="icaron" unicode="&#x1d0;" horiz-adv-x="430" 
d="M277 1250h-124l-277 300h163l173 -197h6l173 197h163zM128 0v1078h174v-1078h-174z" />
    <glyph glyph-name="Ocaron" unicode="&#x1d1;" horiz-adv-x="1498" 
d="M678 1550l-292 299h168l194 -201h2l194 201h168l-292 -299h-142zM749 1301q-221 -1 -351 -157t-129 -422q-1 -266 129 -424q130 -156 351 -156t351 156t129 424q1 266 -129 422t-351 157zM749 1467q307 0 486 -201t179 -545q0 -345 -179 -545t-486 -200t-486 200
t-179 545q0 344 179 545t486 201z" />
    <glyph glyph-name="ocaron" unicode="&#x1d2;" horiz-adv-x="1124" 
d="M624 1250h-124l-277 300h163l173 -197h6l173 197h163zM562 145q150 1 236 105q84 104 84 290t-84 289q-84 104 -236 104q-152 -1 -236 -105t-84 -289t85 -289t235 -105zM562 -10q-227 0 -362 149t-135 400t135 400t362 149t362 -149t135 -400t-135 -400t-362 -149z" />
    <glyph glyph-name="Ucaron" unicode="&#x1d3;" horiz-adv-x="1426" 
d="M642 1550l-292 299h168l194 -201h2l194 201h168l-292 -299h-142zM320 1443v-925q0 -168 104 -272t289 -104t289 104t104 272v925h180v-937q0 -234 -154 -382t-419 -148t-419 148t-154 382v937h180z" />
    <glyph glyph-name="ucaron" unicode="&#x1d4;" horiz-adv-x="1115" 
d="M617 1250h-124l-277 300h163l173 -197h6l173 197h163zM997 1078v-1078h-164v178h-4q-102 -188 -343 -188q-176 0 -274 106t-99 291v691h174v-661q0 -272 252 -272q132 -1 208 83t76 224v626h174z" />
    <glyph glyph-name="Udieresismacron" unicode="&#x1d5;" horiz-adv-x="1426" 
d="M900 1790q40 0 69 -29t29 -70t-29 -70t-69 -29t-70 29q-29 29 -29 69t29 70q30 30 70 30zM396 2025h634v-106h-634v106zM526 1790q40 0 70 -30q29 -30 29 -70t-29 -69q-30 -29 -70 -29t-69 29t-29 70t29 70t69 29zM320 1443v-925q0 -168 104 -272t289 -104t289 104
t104 272v925h180v-937q0 -234 -154 -382t-419 -148t-419 148t-154 382v937h180z" />
    <glyph glyph-name="udieresismacron" unicode="&#x1d6;" horiz-adv-x="1115" 
d="M872 1764v-106h-634v106h634zM752 1261q-44 -1 -76 31t-31 76q-1 44 31 76q32 31 76 31t76 -31q31 -32 31 -76t-31 -76q-32 -32 -76 -31zM358 1261q-44 -1 -76 31t-31 76q-1 44 31 76q32 31 76 31t76 -31q31 -32 31 -76t-31 -76q-32 -32 -76 -31zM997 1078v-1078h-164
v178h-4q-102 -188 -343 -188q-176 0 -274 106t-99 291v691h174v-661q0 -272 252 -272q132 -1 208 83t76 224v626h174z" />
    <glyph glyph-name="Udieresisacute" unicode="&#x1d7;" horiz-adv-x="1426" 
d="M900 1592q-40 0 -70 29q-29 29 -29 69t29 70q30 30 70 30t69 -29t29 -70t-29 -70t-69 -29zM526 1592q-40 0 -69 29t-29 70t29 70t69 29t70 -30q29 -30 29 -70t-29 -69q-30 -29 -70 -29zM645 1849l185 204h187l-236 -204h-136zM320 1443v-925q0 -168 104 -272t289 -104
t289 104t104 272v925h180v-937q0 -234 -154 -382t-419 -148t-419 148t-154 382v937h180z" />
    <glyph glyph-name="udieresisacute" unicode="&#x1d8;" horiz-adv-x="1115" 
d="M752 1261q-46 0 -79 33t-33 79t33 79t79 33q46 -1 79 -33t33 -78t-33 -80q-33 -33 -79 -33zM358 1261q-46 0 -79 33t-33 79t33 79t79 33q46 -1 79 -33t33 -78t-33 -80q-33 -33 -79 -33zM480 1592l161 257h188l-199 -257h-150zM997 1078v-1078h-164v178h-4
q-102 -188 -343 -188q-176 0 -274 106t-99 291v691h174v-661q0 -272 252 -272q132 -1 208 83t76 224v626h174z" />
    <glyph glyph-name="Udieresiscaron" unicode="&#x1d9;" horiz-adv-x="1426" 
d="M900 1790q40 0 69 -29t29 -70t-29 -70t-69 -29t-70 29q-29 29 -29 69t29 70q30 30 70 30zM526 1790q40 0 70 -30q29 -30 29 -70t-29 -69q-30 -29 -70 -29t-69 29t-29 70t29 70t69 29zM636 1849l-267 204h183l154 -119h14l154 119h183l-267 -204h-154zM320 1443v-925
q0 -168 104 -272t289 -104t289 104t104 272v925h180v-937q0 -234 -154 -382t-419 -148t-419 148t-154 382v937h180z" />
    <glyph glyph-name="udieresiscaron" unicode="&#x1da;" horiz-adv-x="1115" 
d="M640 1592h-170l-261 257h161l182 -180h6l182 180h161zM752 1261q-46 0 -79 33t-33 79t33 79t79 33q46 -1 79 -33t33 -78t-33 -80q-33 -33 -79 -33zM358 1261q-46 0 -79 33t-33 79t33 79t79 33q46 -1 79 -33t33 -78t-33 -80q-33 -33 -79 -33zM997 1078v-1078h-164v178h-4
q-102 -188 -343 -188q-176 0 -274 106t-99 291v691h174v-661q0 -272 252 -272q132 -1 208 83t76 224v626h174z" />
    <glyph glyph-name="Udieresisgrave" unicode="&#x1db;" horiz-adv-x="1426" 
d="M900 1592q-40 0 -70 29q-29 29 -29 69t29 70q30 30 70 30t69 -29t29 -70t-29 -70t-69 -29zM526 1592q-40 0 -69 29t-29 70t29 70t69 29t70 -30q29 -30 29 -70t-29 -69q-30 -29 -70 -29zM781 1849h-136l-236 204h187zM320 1443v-925q0 -168 104 -272t289 -104t289 104
t104 272v925h180v-937q0 -234 -154 -382t-419 -148t-419 148t-154 382v937h180z" />
    <glyph glyph-name="udieresisgrave" unicode="&#x1dc;" horiz-adv-x="1115" 
d="M752 1261q-46 0 -79 33t-33 79t33 79t79 33q46 -1 79 -33t33 -78t-33 -80q-33 -33 -79 -33zM358 1261q-46 0 -79 33t-33 79t33 79t79 33q46 -1 79 -33t33 -78t-33 -80q-33 -33 -79 -33zM630 1592h-150l-199 257h188zM997 1078v-1078h-164v178h-4q-102 -188 -343 -188
q-176 0 -274 106t-99 291v691h174v-661q0 -272 252 -272q132 -1 208 83t76 224v626h174z" />
    <glyph glyph-name="Adieresismacron" unicode="&#x1de;" horiz-adv-x="1292" 
d="M832 1790q40 0 70 -29q29 -29 29 -70t-29 -70q-30 -29 -70 -29t-69 29t-29 69t29 70t69 30zM329 2025h634v-106h-634v106zM460 1790q40 0 69 -30t29 -70t-29 -69t-69 -29t-70 29q-29 29 -29 70t29 70q30 29 70 29zM643 1224l-231 -658h468l-231 658h-6zM1078 0l-145 413
h-574l-145 -413h-189l532 1443h178l532 -1443h-189z" />
    <glyph glyph-name="adieresismacron" unicode="&#x1df;" horiz-adv-x="1062" 
d="M843 1764v-106h-634v106h634zM724 1261q-44 -1 -76 31t-32 76t32 76q32 31 76 31t75 -31q31 -32 31 -76t-31 -76t-75 -31zM330 1261q-44 -1 -76 31t-32 76t32 76q32 31 76 31t75 -31q31 -32 31 -76t-31 -76t-75 -31zM433 -10q-164 0 -264 87t-100 228t104 221t300 91
l302 18v90q0 100 -64 154q-65 54 -171 54t-170 -45t-81 -121h-167q4 137 121 229t297 92t295 -94q114 -94 114 -254v-740h-165v187h-4q-46 -89 -140 -143t-207 -54zM485 141q117 1 203 77t87 192v87l-282 -18q-246 -15 -246 -173q1 -75 61 -120t177 -45z" />
    <glyph glyph-name="Adotmacron" unicode="&#x1e0;" horiz-adv-x="1292" 
d="M963 2025v-106h-634v106h634zM646 1574q-49 0 -83 34t-34 82t34 82t83 34t83 -34t34 -82t-34 -82t-83 -34zM643 1224l-231 -658h468l-231 658h-6zM1078 0l-145 413h-574l-145 -413h-189l532 1443h178l532 -1443h-189z" />
    <glyph glyph-name="adotmacron" unicode="&#x1e1;" horiz-adv-x="1062" 
d="M843 1764v-106h-634v106h634zM526 1261q-50 -1 -86 35t-36 86t36 86t86 37q50 -1 86 -37t36 -86t-36 -86t-86 -35zM433 -10q-164 0 -264 87t-100 228t104 221t300 91l302 18v90q0 100 -64 154q-65 54 -171 54t-170 -45t-81 -121h-167q4 137 121 229t297 92t295 -94
q114 -94 114 -254v-740h-165v187h-4q-46 -89 -140 -143t-207 -54zM485 141q117 1 203 77t87 192v87l-282 -18q-246 -15 -246 -173q1 -75 61 -120t177 -45z" />
    <glyph glyph-name="AEmacron" unicode="&#x1e2;" horiz-adv-x="1973" 
d="M1716 1748v-106h-634v106h634zM962 0v459h-555l-217 -459h-185l687 1443h1144v-162h-694v-473h657v-160h-657v-486h694v-162h-874zM962 612v680h-160l-322 -680h482z" />
    <glyph glyph-name="aemacron" unicode="&#x1e3;" horiz-adv-x="1769" 
d="M1207 1426v-106h-634v106h634zM478 141q116 -1 206 77t90 192v81l-285 -15q-117 -6 -179 -50t-63 -120q0 -76 58 -120t173 -45zM1246 935q-126 1 -207 -83q-82 -84 -91 -222h575q-3 141 -77 223t-200 82zM1262 1088q204 0 323 -142t119 -387v-67h-756v-11q0 -155 86 -247
t229 -91q97 -1 165 43t91 122h172q-23 -142 -143 -230t-270 -88q-294 0 -405 223h-10q-134 -223 -406 -223q-178 0 -283 85t-105 227q1 142 105 222t297 90l303 15v77q0 100 -70 164t-180 63q-108 -1 -172 -45t-70 -121h-171q9 141 120 231t265 90t253 -56t138 -157h9
q113 213 366 213z" />
    <glyph glyph-name="Gcaron" unicode="&#x1e6;" horiz-adv-x="1447" 
d="M674 1550l-292 299h168l194 -201h2l194 201h168l-292 -299h-142zM1357 597q1 -293 -161 -457t-458 -164t-474 204q-180 204 -180 546q0 341 179 541t482 200q235 -1 399 -129t204 -343h-189q-45 146 -153 226t-261 80q-223 1 -349 -151t-127 -422q0 -270 128 -428
t334 -158t326 114t120 294v26h-407v158h587v-137z" />
    <glyph glyph-name="gcaron" unicode="&#x1e7;" horiz-adv-x="1163" 
d="M617 1250h-124l-277 300h163l173 -197h6l173 197h163zM579 -385q-205 -1 -327 81t-141 216h181q20 -66 94 -106t198 -40t205 68q82 68 82 182v169h-4q-51 -89 -142 -137t-204 -48q-205 0 -331 150t-125 394q0 246 126 395t334 149q113 0 205 -48t146 -137h3v175h166
v-1048q-1 -193 -131 -304t-335 -111zM554 155q142 -1 230 107t87 282q1 174 -87 281q-88 108 -230 108q-142 -1 -226 -107q-85 -106 -85 -282t85 -283q84 -106 226 -106z" />
    <glyph glyph-name="Kcaron" unicode="&#x1e8;" horiz-adv-x="1260" 
d="M538 1550l-292 299h168l194 -201h2l194 201h168l-292 -299h-142zM320 0h-180v1443h180v-704h10l637 704h227l-593 -639l646 -804h-230l-541 676l-156 -172v-504z" />
    <glyph glyph-name="kcaron" unicode="&#x1e9;" horiz-adv-x="1026" 
d="M144 1613l-292 299h168l194 -201h2l194 201h168l-292 -299h-142zM302 0h-174v1506h174v-910l483 482h212l-471 -466l485 -612h-202l-405 505l-102 -96v-409z" />
    <glyph glyph-name="Oogonek" unicode="&#x1ea;" horiz-adv-x="1498" 
d="M749 1301q-221 -1 -351 -157t-129 -422q-1 -266 129 -424q130 -156 351 -156t351 156t129 424q1 266 -129 422t-351 157zM1021 -432q-107 0 -175 58t-68 146q0 118 129 224v4q-70 -24 -158 -24q-307 0 -486 200t-179 545q0 344 179 545t486 201t486 -201t179 -545
q0 -219 -79 -385t-255 -314q-133 -111 -133 -212q-1 -42 31 -70t79 -28t68 6v-134q-44 -16 -104 -16z" />
    <glyph glyph-name="oogonek" unicode="&#x1eb;" horiz-adv-x="1124" 
d="M562 145q150 1 236 105q84 104 84 290t-84 289q-84 104 -236 104q-152 -1 -236 -105t-84 -289t85 -289t235 -105zM768 -432q-106 0 -174 58t-69 146q0 116 119 220v4q-26 -6 -82 -6q-227 0 -362 149t-135 400t135 400t362 149t362 -149t135 -400q0 -331 -243 -515
q-122 -92 -122 -214q0 -42 32 -70t78 -28q47 0 68 6v-134q-42 -16 -104 -16z" />
    <glyph glyph-name="Oogonekmacron" unicode="&#x1ec;" horiz-adv-x="1497" 
d="M749 1301q-221 -1 -351 -157t-129 -422q-1 -266 129 -424q130 -156 351 -156t351 156t129 424q1 266 -129 422t-351 157zM1021 -432q-107 0 -175 58t-68 146q0 118 129 224v4q-70 -24 -158 -24q-307 0 -486 200t-179 545q0 344 179 545t486 201t486 -201t179 -545
q0 -219 -79 -385t-255 -314q-133 -111 -133 -212q-1 -42 31 -70t79 -28t68 6v-134q-44 -16 -104 -16zM1066 1748v-106h-634v106h634z" />
    <glyph glyph-name="oogonekmacron" unicode="&#x1ed;" horiz-adv-x="1124" 
d="M562 145q150 1 236 105q84 104 84 290t-84 289q-84 104 -236 104q-152 -1 -236 -105t-84 -289t85 -289t235 -105zM768 -432q-106 0 -174 58t-69 146q0 116 119 220v4q-26 -6 -82 -6q-227 0 -362 149t-135 400t135 400t362 149t362 -149t135 -400q0 -331 -243 -515
q-122 -92 -122 -214q0 -42 32 -70t78 -28q47 0 68 6v-134q-42 -16 -104 -16zM879 1426v-106h-634v106h634z" />
    <glyph glyph-name="u01F1" unicode="&#x1f1;" horiz-adv-x="2662" 
d="M1497 0v128l823 1146v7h-795v162h1022v-128l-819 -1146v-7h836v-162h-1067zM320 1281v-1119h303q245 0 377 144t132 415q0 270 -132 415t-377 145h-303zM140 1443h495q321 -1 501 -191t180 -530t-180 -532q-180 -190 -501 -190h-495v1443z" />
    <glyph glyph-name="u01F2" unicode="&#x1f2;" horiz-adv-x="2389" 
d="M1494 0v126l601 805v3h-600v144h796v-129l-597 -802v-3h600v-144h-800zM320 1281v-1119h303q245 0 377 144t132 415q0 270 -132 415t-377 145h-303zM140 1443h495q321 -1 501 -191t180 -530t-180 -532q-180 -190 -501 -190h-495v1443z" />
    <glyph glyph-name="u01F3" unicode="&#x1f3;" horiz-adv-x="2163" 
d="M1268 0v126l601 805v3h-600v144h796v-129l-597 -802v-3h600v-144h-800zM557 933q-141 0 -227 -108q-86 -109 -87 -287q1 -178 87 -286t227 -107q141 0 228 109t87 285t-87 285t-228 109zM65 538q0 246 128 398t330 152q115 0 205 -48t139 -137h4v603h174v-1506h-166v182
h-3q-109 -192 -349 -192q-204 0 -333 152q-129 150 -129 396z" />
    <glyph glyph-name="Gacute" unicode="&#x1f4;" horiz-adv-x="1447" 
d="M822 1550h-148l231 299h198zM1357 597q1 -293 -161 -457t-458 -164t-474 204q-180 204 -180 546q0 341 179 541t482 200q235 -1 399 -129t204 -343h-189q-45 146 -153 226t-261 80q-223 1 -349 -151t-127 -422q0 -270 128 -428t334 -158t326 114t120 294v26h-407v158h587
v-137z" />
    <glyph glyph-name="gacute" unicode="&#x1f5;" horiz-adv-x="1163" 
d="M629 1250h-148l211 300h198zM579 -385q-205 -1 -327 81t-141 216h181q20 -66 94 -106t198 -40t205 68q82 68 82 182v169h-4q-51 -89 -142 -137t-204 -48q-205 0 -331 150t-125 394q0 246 126 395t334 149q113 0 205 -48t146 -137h3v175h166v-1048q-1 -193 -131 -304
t-335 -111zM554 155q142 -1 230 107t87 282q1 174 -87 281q-88 108 -230 108q-142 -1 -226 -107q-85 -106 -85 -282t85 -283q84 -106 226 -106z" />
    <glyph glyph-name="Ngrave" unicode="&#x1f8;" horiz-adv-x="1432" 
d="M642 1550l-281 299h198l231 -299h-148zM318 0h-178v1443h175l790 -1133h9v1133h178v-1443h-175l-790 1129h-9v-1129z" />
    <glyph glyph-name="ngrave" unicode="&#x1f9;" horiz-adv-x="1115" 
d="M625 1250h-148l-261 300h198zM118 0v1078h164v-175h4q103 185 342 185q178 0 276 -106t98 -291v-691h-174v661q0 272 -252 272q-132 1 -208 -83t-76 -224v-626h-174z" />
    <glyph glyph-name="Aringacute" unicode="&#x1fa;" horiz-adv-x="1292" 
d="M712 2095h175l-178 -185h-117zM646 1558q49 0 83 34t34 83t-34 83t-83 34t-83 -34t-34 -83t34 -83t83 -34zM646 1476q-82 0 -140 58t-59 141q1 83 59 141t140 58t140 -58t59 -141q-1 -83 -59 -141t-140 -58zM643 1224l-231 -658h468l-231 658h-6zM1078 0l-145 413h-574
l-145 -413h-189l532 1443h178l532 -1443h-189z" />
    <glyph glyph-name="aringacute" unicode="&#x1fb;" horiz-adv-x="1062" 
d="M461 1652l121 197h158l-159 -197h-120zM410 1383q0 -48 34 -82t82 -34t82 34t34 82t-34 82t-82 34t-82 -34t-34 -82zM526 1184q-82 0 -140 58t-59 141q1 83 59 141t140 58t140 -58t59 -141q-1 -83 -59 -141t-140 -58zM433 -10q-164 0 -264 87t-100 228t104 221t300 91
l302 18v90q0 100 -64 154q-65 54 -171 54t-170 -45t-81 -121h-167q4 137 121 229t297 92t295 -94q114 -94 114 -254v-740h-165v187h-4q-46 -89 -140 -143t-207 -54zM485 141q117 1 203 77t87 192v87l-282 -18q-246 -15 -246 -173q1 -75 61 -120t177 -45z" />
    <glyph glyph-name="AEacute" unicode="&#x1fc;" horiz-adv-x="1973" 
d="M1476 1550h-148l231 299h198zM962 0v459h-555l-217 -459h-185l687 1443h1144v-162h-694v-473h657v-160h-657v-486h694v-162h-874zM962 612v680h-160l-322 -680h482z" />
    <glyph glyph-name="aeacute" unicode="&#x1fd;" horiz-adv-x="1769" 
d="M964 1250h-148l211 300h198zM478 141q116 -1 206 77t90 192v81l-285 -15q-117 -6 -179 -50t-63 -120q0 -76 58 -120t173 -45zM1246 935q-126 1 -207 -83q-82 -84 -91 -222h575q-3 141 -77 223t-200 82zM1262 1088q204 0 323 -142t119 -387v-67h-756v-11q0 -155 86 -247
t229 -91q97 -1 165 43t91 122h172q-23 -142 -143 -230t-270 -88q-294 0 -405 223h-10q-134 -223 -406 -223q-178 0 -283 85t-105 227q1 142 105 222t297 90l303 15v77q0 100 -70 164t-180 63q-108 -1 -172 -45t-70 -121h-171q9 141 120 231t265 90t253 -56t138 -157h9
q113 213 366 213z" />
    <glyph glyph-name="Oslashacute" unicode="&#x1fe;" horiz-adv-x="1498" 
d="M1414 713q0 -337 -179 -537t-486 -200q-226 0 -387 113l-104 -136l-100 76l110 142q-184 203 -184 549t179 546q179 201 486 201q249 0 415 -134l120 155l98 -69l-132 -172q164 -198 164 -534zM749 1301q-221 -1 -351 -157t-129 -414q0 -258 113 -411l673 872
q-122 110 -306 110zM749 142q221 0 351 156t129 404q0 246 -94 394l-665 -866q116 -88 279 -88zM1134 1849l-281 -299h-148l231 299h198z" />
    <glyph glyph-name="oslashacute" unicode="&#x1ff;" horiz-adv-x="1124" 
d="M1059 542q0 -254 -135 -403t-362 -149q-143 0 -253 62l-61 -89l-104 69l66 96q-145 150 -145 406t135 405t362 149q148 0 260 -66l66 96l100 -64l-72 -106q143 -152 143 -406zM562 933q-152 -1 -236 -105t-84 -278t67 -277l422 615q-71 45 -169 45zM562 145
q152 1 236 105t84 277t-65 275l-417 -616q68 -41 162 -41zM897 1550l-261 -300h-148l211 300h198z" />
    <glyph glyph-name="Adblgrave" unicode="&#x200;" horiz-adv-x="1292" 
d="M422 1550l-281 299h188l231 -299h-138zM732 1550l-281 299h188l231 -299h-138zM643 1224l-231 -658h468l-231 658h-6zM1078 0l-145 413h-574l-145 -413h-189l532 1443h178l532 -1443h-189z" />
    <glyph glyph-name="adblgrave" unicode="&#x201;" horiz-adv-x="1062" 
d="M752 1250h-136l-255 300h195zM436 1250h-136l-255 300h195zM433 -10q-164 0 -264 87t-100 228t104 221t300 91l302 18v90q0 100 -64 154q-65 54 -171 54t-170 -45t-81 -121h-167q4 137 121 229t297 92t295 -94q114 -94 114 -254v-740h-165v187h-4q-46 -89 -140 -143
t-207 -54zM485 141q117 1 203 77t87 192v87l-282 -18q-246 -15 -246 -173q1 -75 61 -120t177 -45z" />
    <glyph glyph-name="Ainvertedbreve" unicode="&#x202;" horiz-adv-x="1292" 
d="M336 1550q0 132 86 216t224 83q138 1 224 -83t86 -216h-119q0 84 -55 140t-136 56t-136 -56t-55 -140h-119zM643 1224l-231 -658h468l-231 658h-6zM1078 0l-145 413h-574l-145 -413h-189l532 1443h178l532 -1443h-189z" />
    <glyph glyph-name="ainvertedbreve" unicode="&#x203;" horiz-adv-x="1062" 
d="M204 1250q0 138 90 224t232 86t232 -86t90 -224h-123q1 86 -57 144t-142 59q-84 -1 -142 -59t-57 -144h-123zM433 -10q-164 0 -264 87t-100 228t104 221t300 91l302 18v90q0 100 -64 154q-65 54 -171 54t-170 -45t-81 -121h-167q4 137 121 229t297 92t295 -94
q114 -94 114 -254v-740h-165v187h-4q-46 -89 -140 -143t-207 -54zM485 141q117 1 203 77t87 192v87l-282 -18q-246 -15 -246 -173q1 -75 61 -120t177 -45z" />
    <glyph glyph-name="Edblgrave" unicode="&#x204;" horiz-adv-x="1131" 
d="M363 1550l-281 299h188l231 -299h-138zM673 1550l-281 299h188l231 -299h-138zM1034 162v-162h-894v1443h894v-162h-714v-463h677v-160h-677v-496h714z" />
    <glyph glyph-name="edblgrave" unicode="&#x205;" horiz-adv-x="1084" 
d="M777 1250h-136l-255 300h195zM461 1250h-136l-255 300h195zM559 -10q-227 0 -361 147t-133 398q0 251 133 402t351 151t344 -142t126 -387v-68h-774v-10q0 -154 87 -246t231 -92q101 1 175 45t96 120h172q-22 -138 -148 -228t-299 -90zM548 935q-128 0 -210 -84
q-84 -84 -93 -221h593q-2 137 -82 221t-208 84z" />
    <glyph glyph-name="Einvertedbreve" unicode="&#x206;" horiz-adv-x="1131" 
d="M277 1550q1 132 87 216t223 83q137 1 223 -83t87 -216h-119q0 84 -55 140t-136 56t-136 -56t-55 -140h-119zM1034 162v-162h-894v1443h894v-162h-714v-463h677v-160h-677v-496h714z" />
    <glyph glyph-name="einvertedbreve" unicode="&#x207;" horiz-adv-x="1084" 
d="M229 1250q-1 138 89 224t233 86t233 -86t89 -224h-123q0 86 -58 144t-141 59q-83 -1 -141 -59t-58 -144h-123zM559 -10q-227 0 -361 147t-133 398q0 251 133 402t351 151t344 -142t126 -387v-68h-774v-10q0 -154 87 -246t231 -92q101 1 175 45t96 120h172
q-22 -138 -148 -228t-299 -90zM548 935q-128 0 -210 -84q-84 -84 -93 -221h593q-2 137 -82 221t-208 84z" />
    <glyph glyph-name="Idblgrave" unicode="&#x208;" horiz-adv-x="460" 
d="M6 1550l-281 299h188l231 -299h-138zM316 1550l-281 299h188l231 -299h-138zM320 0h-180v1443h180v-1443z" />
    <glyph glyph-name="idblgrave" unicode="&#x209;" horiz-adv-x="430" 
d="M441 1250h-136l-255 300h195zM125 1250h-136l-255 300h195zM128 0v1078h174v-1078h-174z" />
    <glyph glyph-name="Iinvertedbreve" unicode="&#x20a;" horiz-adv-x="460" 
d="M-80 1550q0 132 86 216t224 83q138 1 224 -83t86 -216h-119q0 84 -55 140t-136 56t-136 -56t-55 -140h-119zM320 0h-180v1443h180v-1443z" />
    <glyph glyph-name="iinvertedbreve" unicode="&#x20b;" horiz-adv-x="430" 
d="M-107 1250q-1 138 89 224t233 86t233 -86t89 -224h-123q0 86 -58 144t-141 59q-83 -1 -141 -59t-58 -144h-123zM128 0v1078h174v-1078h-174z" />
    <glyph glyph-name="Odblgrave" unicode="&#x20c;" horiz-adv-x="1498" 
d="M525 1550l-281 299h188l231 -299h-138zM835 1550l-281 299h188l231 -299h-138zM749 1301q-221 -1 -351 -157t-129 -422q-1 -266 129 -424q130 -156 351 -156t351 156t129 424q1 266 -129 422t-351 157zM749 1467q307 0 486 -201t179 -545q0 -345 -179 -545t-486 -200
t-486 200t-179 545q0 344 179 545t486 201z" />
    <glyph glyph-name="odblgrave" unicode="&#x20d;" horiz-adv-x="1124" 
d="M788 1250h-136l-255 300h195zM472 1250h-136l-255 300h195zM562 145q150 1 236 105q84 104 84 290t-84 289q-84 104 -236 104q-152 -1 -236 -105t-84 -289t85 -289t235 -105zM562 -10q-227 0 -362 149t-135 400t135 400t362 149t362 -149t135 -400t-135 -400t-362 -149z
" />
    <glyph glyph-name="Oinvertedbreve" unicode="&#x20e;" horiz-adv-x="1498" 
d="M439 1550q1 132 87 216t223 83q137 1 223 -83t87 -216h-119q0 84 -55 140t-136 56t-136 -56t-55 -140h-119zM749 1301q-221 -1 -351 -157t-129 -422q-1 -266 129 -424q130 -156 351 -156t351 156t129 424q1 266 -129 422t-351 157zM749 1467q307 0 486 -201t179 -545
q0 -345 -179 -545t-486 -200t-486 200t-179 545q0 344 179 545t486 201z" />
    <glyph glyph-name="oinvertedbreve" unicode="&#x20f;" horiz-adv-x="1124" 
d="M240 1250q0 138 90 224t232 86t232 -86t90 -224h-123q1 86 -57 144t-142 59q-84 -1 -142 -59t-57 -144h-123zM562 145q150 1 236 105q84 104 84 290t-84 289q-84 104 -236 104q-152 -1 -236 -105t-84 -289t85 -289t235 -105zM562 -10q-227 0 -362 149t-135 400t135 400
t362 149t362 -149t135 -400t-135 -400t-362 -149z" />
    <glyph glyph-name="Rdblgrave" unicode="&#x210;" horiz-adv-x="1237" 
d="M311 1550l-281 299h188l231 -299h-138zM621 1550l-281 299h188l231 -299h-138zM320 571v-571h-180v1443h551q209 1 335 -117t125 -313q0 -151 -77 -261t-213 -153l334 -599h-211l-309 571h-355zM320 1283v-553h355q139 0 215 72t75 204q0 132 -79 204q-79 73 -219 73
h-347z" />
    <glyph glyph-name="rdblgrave" unicode="&#x211;" horiz-adv-x="649" 
d="M592 1250h-136l-255 300h195zM276 1250h-136l-255 300h195zM118 0v1078h164v-175h4q24 85 95 135t166 50q42 0 72 -6v-171q-28 10 -95 10q-104 0 -168 -70t-64 -184v-667h-174z" />
    <glyph glyph-name="Rinvertedbreve" unicode="&#x212;" horiz-adv-x="1237" 
d="M225 1550q1 132 87 216t223 83q137 1 223 -83t87 -216h-119q0 84 -55 140t-136 56t-136 -56t-55 -140h-119zM320 571v-571h-180v1443h551q209 1 335 -117t125 -313q0 -151 -77 -261t-213 -153l334 -599h-211l-309 571h-355zM320 1283v-553h355q139 0 215 72t75 204
q0 132 -79 204q-79 73 -219 73h-347z" />
    <glyph glyph-name="rinvertedbreve" unicode="&#x213;" horiz-adv-x="649" 
d="M44 1250q0 138 90 224t232 86t232 -86t90 -224h-123q1 86 -57 144t-142 59q-84 -1 -142 -59t-57 -144h-123zM118 0v1078h164v-175h4q24 85 95 135t166 50q42 0 72 -6v-171q-28 10 -95 10q-104 0 -168 -70t-64 -184v-667h-174z" />
    <glyph glyph-name="Udblgrave" unicode="&#x214;" horiz-adv-x="1426" 
d="M489 1550l-281 299h188l231 -299h-138zM799 1550l-281 299h188l231 -299h-138zM320 1443v-925q0 -168 104 -272t289 -104t289 104t104 272v925h180v-937q0 -234 -154 -382t-419 -148t-419 148t-154 382v937h180z" />
    <glyph glyph-name="udblgrave" unicode="&#x215;" horiz-adv-x="1115" 
d="M781 1250h-136l-255 300h195zM465 1250h-136l-255 300h195zM997 1078v-1078h-164v178h-4q-102 -188 -343 -188q-176 0 -274 106t-99 291v691h174v-661q0 -272 252 -272q132 -1 208 83t76 224v626h174z" />
    <glyph glyph-name="Uinvertedbreve" unicode="&#x216;" horiz-adv-x="1426" 
d="M403 1550q1 132 87 216t223 83q137 1 223 -83t87 -216h-119q0 84 -55 140t-136 56t-136 -56t-55 -140h-119zM320 1443v-925q0 -168 104 -272t289 -104t289 104t104 272v925h180v-937q0 -234 -154 -382t-419 -148t-419 148t-154 382v937h180z" />
    <glyph glyph-name="uinvertedbreve" unicode="&#x217;" horiz-adv-x="1115" 
d="M233 1250q-1 138 89 224t233 86t233 -86t89 -224h-123q0 86 -58 144t-141 59q-83 -1 -141 -59t-58 -144h-123zM997 1078v-1078h-164v178h-4q-102 -188 -343 -188q-176 0 -274 106t-99 291v691h174v-661q0 -272 252 -272q132 -1 208 83t76 224v626h174z" />
    <glyph glyph-name="Scommaaccent" unicode="&#x218;" horiz-adv-x="1216" 
d="M591 -541h-126l91 369h153zM618 138q150 0 246 70t96 168t-66 157t-213 97l-185 48q-200 50 -292 142t-92 239q0 180 142 294t363 114q220 1 361 -115t147 -297h-180q-12 116 -100 183q-89 67 -229 67t-228 -66t-89 -160q1 -95 65 -147t211 -90l151 -40q224 -56 322 -149
t98 -248q0 -197 -146 -313t-384 -116q-240 0 -386 115t-159 306h181q12 -117 114 -188t252 -71z" />
    <glyph glyph-name="scommaaccent" unicode="&#x219;" horiz-adv-x="984" 
d="M472 -541h-126l91 369h153zM100 777q0 136 112 223t281 87q169 1 281 -87t117 -221h-167q-8 76 -70 120t-162 44t-160 -43q-61 -43 -61 -114q0 -108 182 -153l164 -41q163 -42 229 -106t67 -192t-119 -216t-300 -88t-296 86q-115 86 -128 227h175q13 -81 79 -125t175 -44
q111 0 175 42t64 108q0 64 -38 98t-130 58l-189 49q-281 73 -281 288z" />
    <glyph glyph-name="Tcommaaccent" unicode="&#x21a;" horiz-adv-x="1210" 
d="M590 -541h-126l91 369h153zM695 0h-180v1281h-465v162h1110v-162h-465v-1281z" />
    <glyph glyph-name="tcommaaccent" unicode="&#x21b;" horiz-adv-x="634" 
d="M352 -541h-126l91 369h153zM349 287q0 -144 122 -144q57 0 87 5v-147q-38 -9 -112 -9q-146 0 -208 66t-63 222v654h-150v144h150v243h174v-243h210v-144h-210v-647z" />
    <glyph glyph-name="Hcaron" unicode="&#x21e;" horiz-adv-x="1432" 
d="M645 1550l-292 299h168l194 -201h2l194 201h168l-292 -299h-142zM1292 0h-180v657h-792v-657h-180v1443h180v-624h792v624h180v-1443z" />
    <glyph glyph-name="hcaron" unicode="&#x21f;" horiz-adv-x="1141" 
d="M145 1613l-292 299h168l194 -201h2l194 201h168l-292 -299h-142zM128 0v1506h174v-603h4q102 185 342 185q176 0 278 -109t102 -291v-688h-174v657q0 131 -66 203t-197 73q-131 0 -210 -85t-79 -228v-620h-174z" />
    <glyph glyph-name="Adotaccent" unicode="&#x226;" horiz-adv-x="1292" 
d="M646 1585q-50 -1 -86 35t-35 86q-1 50 35 86t86 35q50 1 86 -35t35 -86q1 -50 -35 -86t-86 -35zM643 1224l-231 -658h468l-231 658h-6zM1078 0l-145 413h-574l-145 -413h-189l532 1443h178l532 -1443h-189z" />
    <glyph glyph-name="adotaccent" unicode="&#x227;" horiz-adv-x="1062" 
d="M526 1261q-52 1 -88 37t-36 87t36 87t88 37q52 -1 88 -37t36 -87t-36 -87t-88 -37zM433 -10q-164 0 -264 87t-100 228t104 221t300 91l302 18v90q0 100 -64 154q-65 54 -171 54t-170 -45t-81 -121h-167q4 137 121 229t297 92t295 -94q114 -94 114 -254v-740h-165v187h-4
q-46 -89 -140 -143t-207 -54zM485 141q117 1 203 77t87 192v87l-282 -18q-246 -15 -246 -173q1 -75 61 -120t177 -45z" />
    <glyph glyph-name="Ecedilla" unicode="&#x228;" horiz-adv-x="1131" 
d="M1034 1281h-714v-463h677v-160h-677v-496h714v-162h-379l-52 -142q209 0 209 -150q0 -76 -62 -126t-151 -51t-153 17v98q38 -15 122 -15q120 0 120 73q0 34 -36 50t-114 16h-55v74l60 156h-403v1443h894v-162z" />
    <glyph glyph-name="ecedilla" unicode="&#x229;" horiz-adv-x="1084" 
d="M1019 491h-774v-10q0 -154 87 -246t231 -92q101 1 175 45t96 120h172q-20 -125 -126 -211t-255 -103l-50 -136q209 0 209 -150q0 -76 -62 -126t-151 -51t-153 17v98q38 -15 122 -15q120 0 120 73q0 34 -36 50t-114 16h-55v74l57 148q-207 16 -327 161t-120 389t133 395
t351 151t344 -142t126 -387v-68zM548 935q-128 0 -210 -84q-84 -84 -93 -221h593q-2 137 -82 221t-208 84z" />
    <glyph glyph-name="Odieresismacron" unicode="&#x22a;" horiz-adv-x="1498" 
d="M936 1790q40 0 69 -29t29 -70t-29 -70t-69 -29t-70 29q-29 29 -29 69t29 70q30 30 70 30zM432 2025h634v-106h-634v106zM562 1790q40 0 70 -30q29 -30 29 -70t-29 -69q-30 -29 -70 -29t-69 29t-29 70t29 70t69 29zM749 1301q-221 -1 -351 -157t-129 -422
q-1 -266 129 -424q130 -156 351 -156t351 156t129 424q1 266 -129 422t-351 157zM749 1467q307 0 486 -201t179 -545q0 -345 -179 -545t-486 -200t-486 200t-179 545q0 344 179 545t486 201z" />
    <glyph glyph-name="odieresismacron" unicode="&#x22b;" horiz-adv-x="1124" 
d="M879 1764v-106h-634v106h634zM760 1261q-44 -1 -76 31t-32 76t32 76q32 31 76 31t75 -31q31 -32 31 -76t-31 -76t-75 -31zM366 1261q-44 -1 -76 31t-32 76t32 76q32 31 76 31t75 -31q31 -32 31 -76t-31 -76t-75 -31zM562 145q150 1 236 105q84 104 84 290t-84 289
q-84 104 -236 104q-152 -1 -236 -105t-84 -289t85 -289t235 -105zM562 -10q-227 0 -362 149t-135 400t135 400t362 149t362 -149t135 -400t-135 -400t-362 -149z" />
    <glyph glyph-name="Otildemacron" unicode="&#x22c;" horiz-adv-x="1498" 
d="M1066 2025v-106h-634v106h634zM624 1687q-69 0 -69 -137h-114q0 118 47 184t131 66q47 0 87 -24t64 -52q64 -76 103 -76q62 0 62 138h114q0 -115 -48 -183t-122 -68q-73 -1 -127 53q-22 22 -43 46q-48 54 -85 53zM749 1301q-221 -1 -351 -157t-129 -422q-1 -266 129 -424
q130 -156 351 -156t351 156t129 424q1 266 -129 422t-351 157zM749 1467q307 0 486 -201t179 -545q0 -345 -179 -545t-486 -200t-486 200t-179 545q0 344 179 545t486 201z" />
    <glyph glyph-name="otildemacron" unicode="&#x22d;" horiz-adv-x="1124" 
d="M879 1764v-106h-634v106h634zM445 1398q-69 0 -69 -137h-114q0 118 47 184t126 66q79 1 133 -53q23 -22 58 -61q35 -38 68 -38q62 0 62 138h114q0 -115 -48 -183t-122 -68t-128 54q-22 22 -42 44q-48 54 -85 54zM562 145q150 1 236 105q84 104 84 290t-84 289
q-84 104 -236 104q-152 -1 -236 -105t-84 -289t85 -289t235 -105zM562 -10q-227 0 -362 149t-135 400t135 400t362 149t362 -149t135 -400t-135 -400t-362 -149z" />
    <glyph glyph-name="Odotaccent" unicode="&#x22e;" horiz-adv-x="1498" 
d="M749 1585q-49 -1 -85 35t-36 86t36 86t85 35q49 1 85 -35t36 -86t-36 -86t-85 -35zM749 1301q-221 -1 -351 -157t-129 -422q-1 -266 129 -424q130 -156 351 -156t351 156t129 424q1 266 -129 422t-351 157zM749 1467q307 0 486 -201t179 -545q0 -345 -179 -545t-486 -200
t-486 200t-179 545q0 344 179 545t486 201z" />
    <glyph glyph-name="odotaccent" unicode="&#x22f;" horiz-adv-x="1124" 
d="M562 1261q-52 1 -88 37t-36 87t36 87t88 37q52 -1 88 -37t36 -87t-36 -87t-88 -37zM562 145q150 1 236 105q84 104 84 290t-84 289q-84 104 -236 104q-152 -1 -236 -105t-84 -289t85 -289t235 -105zM562 -10q-227 0 -362 149t-135 400t135 400t362 149t362 -149t135 -400
t-135 -400t-362 -149z" />
    <glyph glyph-name="Odotaccentmacron" unicode="&#x230;" horiz-adv-x="1498" 
d="M1066 2025v-106h-634v106h634zM749 1574q-49 0 -83 34t-34 82t34 82t83 34t83 -34t34 -82t-34 -82t-83 -34zM749 1301q-221 -1 -351 -157t-129 -422q-1 -266 129 -424q130 -156 351 -156t351 156t129 424q1 266 -129 422t-351 157zM749 1467q307 0 486 -201t179 -545
q0 -345 -179 -545t-486 -200t-486 200t-179 545q0 344 179 545t486 201z" />
    <glyph glyph-name="odotaccentmacron" unicode="&#x231;" horiz-adv-x="1124" 
d="M879 1764v-106h-634v106h634zM562 1261q-50 -1 -86 35t-36 86t36 86t86 37q50 -1 86 -37t36 -86t-36 -86t-86 -35zM562 145q150 1 236 105q84 104 84 290t-84 289q-84 104 -236 104q-152 -1 -236 -105t-84 -289t85 -289t235 -105zM562 -10q-227 0 -362 149t-135 400
t135 400t362 149t362 -149t135 -400t-135 -400t-362 -149z" />
    <glyph glyph-name="Ymacron" unicode="&#x232;" horiz-adv-x="1254" 
d="M944 1748v-106h-634v106h634zM717 0h-180v621l-512 822h205l394 -648h6l394 648h205l-512 -822v-621z" />
    <glyph glyph-name="ymacron" unicode="&#x233;" horiz-adv-x="1026" 
d="M831 1426v-106h-634v106h634zM210 -391q-39 0 -76 7v147q30 -6 88 -6q58 1 103 41t78 137l21 64l-399 1079h185l302 -901h4l302 901h183l-422 -1144q-69 -187 -147 -256t-222 -69z" />
    <glyph glyph-name="dotlessj" unicode="&#x237;" horiz-adv-x="428" 
d="M302 1078v-1131q0 -165 -80 -241t-251 -76h-31v147h27q89 -1 125 37t36 130v1134h174z" />
    <glyph glyph-name="quoteright" unicode="&#x2bc;" horiz-adv-x="538" 
d="M310 934h-155l127 509h175z" />
    <glyph glyph-name="quoteright" unicode="&#x2019;" horiz-adv-x="538" 
d="M310 934h-155l127 509h175z" />
    <glyph glyph-name="circumflex" unicode="&#x2c6;" horiz-adv-x="1006" 
d="M565 1550l277 -300h-163l-173 197h-6l-173 -197h-163l277 300h124z" />
    <glyph glyph-name="caron" unicode="&#x2c7;" horiz-adv-x="1006" 
d="M565 1250h-124l-277 300h163l173 -197h6l173 197h163z" />
    <glyph glyph-name="breve" unicode="&#x2d8;" horiz-adv-x="1000" 
d="M178 1550h123q-1 -86 57 -144t142 -59q84 1 142 59t57 144h123q0 -138 -90 -224t-232 -86t-232 86t-90 224z" />
    <glyph glyph-name="dotaccent" unicode="&#x2d9;" horiz-adv-x="898" 
d="M449 1261q-51 1 -87 37t-37 87q1 51 37 87t87 37q51 -1 87 -37t37 -87q-1 -51 -37 -87t-87 -37z" />
    <glyph glyph-name="ring" unicode="&#x2da;" horiz-adv-x="1048" 
d="M524 1269q48 0 82 34t34 82t-34 82t-82 34t-82 -34t-34 -82t34 -82t82 -34zM524 1186q-82 0 -140 58t-59 141q1 83 59 141t140 58t140 -58t59 -141q-1 -83 -59 -141t-140 -58z" />
    <glyph glyph-name="ogonek" unicode="&#x2db;" horiz-adv-x="1000" 
d="M483 -230q-1 -48 31 -76t76 -29q44 0 79 9v-123q-51 -16 -133 -16q-82 1 -139 51q-58 50 -58 135q0 152 171 279h112q-139 -120 -139 -230z" />
    <glyph glyph-name="tilde" unicode="&#x2dc;" horiz-adv-x="1006" 
d="M382 1410q-69 0 -69 -137h-114q0 118 47 184t126 66q79 1 133 -53q23 -22 58 -61q35 -38 68 -38q62 0 62 138h114q0 -115 -48 -183t-122 -68q-73 0 -127 54q-22 22 -43 44q-48 54 -85 54z" />
    <glyph glyph-name="hungarumlaut" unicode="&#x2dd;" horiz-adv-x="1000" 
d="M154 1250l196 300h195l-255 -300h-136zM470 1250l196 300h195l-255 -300h-136z" />
    <glyph glyph-name="gravecmb" unicode="&#x300;" 
d="M65 1250h-148l-261 300h198z" />
    <glyph glyph-name="acutecmb" unicode="&#x301;" 
d="M74 1250h-148l211 300h198z" />
    <glyph glyph-name="circumflexcmb" unicode="&#x302;" 
d="M62 1550l277 -300h-163l-173 197h-6l-173 -197h-163l277 300h124z" />
    <glyph glyph-name="tildecmb" unicode="&#x303;" 
d="M-117 1410q-69 0 -69 -137h-114q0 118 47 184t126 66q79 1 133 -53q23 -22 58 -61q35 -38 68 -38q62 0 62 138h114q0 -115 -48 -183t-122 -68t-128 54q-22 22 -42 44q-48 54 -85 54z" />
    <glyph glyph-name="macroncmb" unicode="&#x304;" 
d="M317 1426v-106h-634v106h634z" />
    <glyph glyph-name="brevecmb" unicode="&#x306;" 
d="M-323 1550h123q0 -86 58 -144t141 -59q83 1 141 59t58 144h123q1 -138 -89 -224t-233 -86t-233 86t-89 224z" />
    <glyph glyph-name="dotaccentcmb" unicode="&#x307;" 
d="M0 1261q-52 1 -88 37t-36 87t36 87t88 37q52 -1 88 -37t36 -87t-36 -87t-88 -37z" />
    <glyph glyph-name="dieresiscmb" unicode="&#x308;" 
d="M197 1261q-46 0 -79 33t-33 79t33 79q34 33 80 33q46 -1 78 -33t33 -78q0 -46 -33 -80q-33 -33 -79 -33zM-197 1261q-46 0 -79 33t-33 79t33 79q34 33 80 33q46 -1 78 -33t33 -78q0 -46 -33 -80q-33 -33 -79 -33z" />
    <glyph glyph-name="hookabovecmb" unicode="&#x309;" 
d="M24 1560q80 0 132 -48t51 -118q0 -72 -44 -126t-118 -79l-61 84q92 31 92 105q0 32 -26 54t-68 22t-97 -24v105q59 25 139 25z" />
    <glyph glyph-name="ringcmb" unicode="&#x30a;" 
d="M0 1267q48 0 82 34t34 82t-34 82t-82 34t-82 -34t-34 -82t34 -82t82 -34zM0 1184q-82 0 -140 58t-59 141q1 83 59 141t140 58t140 -58t59 -141q-1 -83 -59 -141t-140 -58z" />
    <glyph glyph-name="hungarumlautcmb" unicode="&#x30b;" 
d="M-226 1250l196 300h195l-255 -300h-136zM90 1250l196 300h195l-255 -300h-136z" />
    <glyph glyph-name="caroncmb" unicode="&#x30c;" 
d="M62 1250h-124l-277 300h163l173 -197h6l173 197h163z" />
    <glyph glyph-name="dblgravecmb" unicode="&#x30f;" 
d="M226 1250h-136l-255 300h195zM-90 1250h-136l-255 300h195z" />
    <glyph glyph-name="invertedbrevecmb" unicode="&#x311;" 
d="M-322 1250q0 138 90 224t232 86t232 -86t90 -224h-123q1 86 -57 144t-142 59q-84 -1 -142 -59t-57 -144h-123z" />
    <glyph glyph-name="horncmb" unicode="&#x31b;" 
d="M104 1068q64 0 92 40t28 133v156h159v-204q-1 -117 -69 -191t-164 -74t-150 44v139q40 -43 104 -43z" />
    <glyph glyph-name="dotbelowcmb" unicode="&#x323;" 
d="M0 -392q-50 0 -86 36t-35 85q-1 49 35 85t86 36t86 -36t35 -85q1 -49 -35 -85t-86 -36z" />
    <glyph glyph-name="dieresisbelowcmb" unicode="&#x324;" 
d="M197 -384q-46 0 -79 33t-33 79t33 79q34 33 80 33t78 -33t33 -79q0 -46 -33 -79t-79 -33zM-197 -384q-46 0 -79 33t-33 79t33 79q34 33 80 33t78 -33t33 -79q0 -46 -33 -79t-79 -33z" />
    <glyph glyph-name="ringbelowcmb" unicode="&#x325;" 
d="M0 -475q48 0 82 34t34 82t-34 82t-82 34t-82 -34t-34 -82t34 -82t82 -34zM0 -558q-82 0 -140 58t-59 141q1 83 59 141t140 58t140 -58t59 -141q-1 -83 -59 -141t-140 -58z" />
    <glyph glyph-name="commabelowcmb" unicode="&#x326;" 
d="M-15 -541h-126l91 369h153z" />
    <glyph glyph-name="cedillacmb" unicode="&#x327;" 
d="M-104 -230v74l63 164l109 -8l-52 -142q209 0 209 -150q0 -76 -62 -126t-151 -51t-153 17v98q38 -15 122 -15q120 0 120 73q1 34 -35 50t-115 16h-55z" />
    <glyph glyph-name="ogonekcmb" unicode="&#x328;" 
d="M-71 -230q-1 -48 31 -76t76 -29q44 0 79 9v-123q-51 -16 -133 -16q-82 1 -139 51q-58 50 -58 135q0 152 171 279h112q-139 -120 -139 -230z" />
    <glyph glyph-name="circumflexbelowcmb" unicode="&#x32d;" 
d="M-71 -166h142l292 -299h-168l-194 201h-2l-194 -201h-168z" />
    <glyph glyph-name="brevebelowcmb" unicode="&#x32e;" 
d="M-310 -196h119q0 -84 55 -140t136 -56t136 56t55 140h119q0 -132 -86 -216t-224 -83q-138 -1 -224 83t-86 216z" />
    <glyph glyph-name="tildebelowcmb" unicode="&#x330;" 
d="M-121 -263q-69 0 -69 -137h-114q0 118 47 184t131 66q48 0 88 -24t64 -52q64 -76 102 -76q62 0 62 138h114q0 -115 -48 -183t-122 -68q-74 -1 -128 53q-22 22 -42 46q-48 54 -85 53z" />
    <glyph glyph-name="macronbelowcmb" unicode="&#x331;" 
d="M317 -220v-106h-634v106h634z" />
    <glyph glyph-name="greekquestionmark" unicode="&#x37e;" horiz-adv-x="520" 
d="M197 -257h-135l98 459h187zM260 726q-48 0 -81 33t-33 81t33 82q33 32 81 32t82 -32q32 -32 32 -82q0 -48 -32 -81q-34 -33 -82 -33z" />
    <glyph glyph-name="tonosgreek" unicode="&#x384;" horiz-adv-x="895" 
d="M299 1250l78 310h221l-155 -310h-144z" />
    <glyph glyph-name="dieresistonosgreek" unicode="&#x385;" horiz-adv-x="1210" 
d="M633 1250h-134l31 310h211zM885 1261q-46 0 -79 33t-33 79t33 79q34 33 80 33q46 -1 78 -33t33 -78q0 -46 -33 -80q-33 -33 -79 -33zM325 1261q-46 0 -79 33t-33 79t33 79q34 33 80 33q46 -1 78 -33t33 -78q0 -46 -33 -80q-33 -33 -79 -33z" />
    <glyph glyph-name="Alphatonosgreek" unicode="&#x386;" horiz-adv-x="1292" 
d="M248 1133h-144l78 310h221zM643 1224l-231 -658h468l-231 658h-6zM1078 0l-145 413h-574l-145 -413h-189l532 1443h178l532 -1443h-189z" />
    <glyph glyph-name="anoteleia" unicode="&#x387;" horiz-adv-x="520" 
d="M260 850q-48 0 -81 33t-33 81t33 82q33 32 81 32t82 -32q32 -32 32 -82q0 -48 -32 -81q-34 -33 -82 -33z" />
    <glyph glyph-name="Epsilontonosgreek" unicode="&#x388;" horiz-adv-x="1472" 
d="M204 1133h-144l78 310h221zM1375 162v-162h-894v1443h894v-162h-714v-463h677v-160h-677v-496h714z" />
    <glyph glyph-name="Etatonosgreek" unicode="&#x389;" horiz-adv-x="1773" 
d="M204 1133h-144l78 310h221zM1633 0h-180v657h-792v-657h-180v1443h180v-624h792v624h180v-1443z" />
    <glyph glyph-name="Iotatonosgreek" unicode="&#x38a;" horiz-adv-x="801" 
d="M204 1133h-144l78 310h221zM661 0h-180v1443h180v-1443z" />
    <glyph glyph-name="Omicrontonosgreek" unicode="&#x38c;" horiz-adv-x="1679" 
d="M180 1133h-144l78 310h221zM930 1301q-220 -1 -350 -157t-130 -422t130 -424q130 -156 350 -156t350 156t130 424q0 266 -130 422t-350 157zM930 1467q307 0 486 -201t179 -545q0 -345 -179 -545t-486 -200t-486 200t-179 545q0 344 179 545t486 201z" />
    <glyph glyph-name="Upsilontonosgreek" unicode="&#x38e;" horiz-adv-x="1625" 
d="M184 1133h-144l78 310h221zM1088 0h-180v621l-512 822h205l394 -648h6l394 648h205l-512 -822v-621z" />
    <glyph glyph-name="Omegatonosgreek" unicode="&#x38f;" horiz-adv-x="1712" 
d="M210 1133h-144l78 310h221zM1423 814q1 214 -127 350q-128 137 -348 137t-348 -137q-128 -136 -127 -350q0 -214 83 -359t258 -262v-193h-526v162h311v7q-147 102 -229 266t-82 361q0 198 82 350t233 236q150 84 345 85q195 -1 345 -85q151 -84 233 -236t82 -350
q0 -197 -82 -361t-229 -266v-7h311v-162h-526v193q175 117 258 262t83 359z" />
    <glyph glyph-name="iotadieresistonosgreek" unicode="&#x390;" horiz-adv-x="553" 
d="M265 1250h-134l31 310h211zM517 1261q-46 0 -79 33t-33 79t33 79q34 33 80 33q46 -1 78 -33t33 -78q0 -46 -33 -80q-33 -33 -79 -33zM-43 1261q-46 0 -79 33t-33 79t33 79q34 33 80 33q46 -1 78 -33t33 -78q0 -46 -33 -80q-33 -33 -79 -33zM294 287q0 -144 122 -144
q57 0 87 5l10 -147q-38 -9 -122 -9q-147 0 -209 66t-62 222v798h174v-791z" />
    <glyph glyph-name="Alphagreek" unicode="&#x391;" horiz-adv-x="1292" 
d="M643 1224l-231 -658h468l-231 658h-6zM1078 0l-145 413h-574l-145 -413h-189l532 1443h178l532 -1443h-189z" />
    <glyph glyph-name="Betagreek" unicode="&#x392;" horiz-adv-x="1256" 
d="M320 159h356q163 0 247 65t84 190q0 252 -348 252h-339v-507zM320 1284v-463h288q160 0 244 62t85 174q0 111 -71 169t-202 58h-344zM703 0h-563v1443h565q185 0 299 -99t115 -261q-1 -113 -73 -205t-176 -110v-8q146 -19 234 -115t88 -240q0 -191 -130 -298t-359 -107z
" />
    <glyph glyph-name="Gammagreek" unicode="&#x393;" horiz-adv-x="1061" 
d="M320 0h-180v1443h856v-162h-676v-1281z" />
    <glyph glyph-name="Deltagreek" unicode="&#x394;" horiz-adv-x="1298" 
d="M256 162h786v7l-390 1065h-6l-390 -1065v-7zM1243 0h-1188v127l505 1316h178l505 -1316v-127z" />
    <glyph glyph-name="Epsilongreek" unicode="&#x395;" horiz-adv-x="1131" 
d="M1034 162v-162h-894v1443h894v-162h-714v-463h677v-160h-677v-496h714z" />
    <glyph glyph-name="Zetagreek" unicode="&#x396;" horiz-adv-x="1263" 
d="M98 0v128l823 1146v7h-795v162h1022v-128l-819 -1146v-7h836v-162h-1067z" />
    <glyph glyph-name="Etagreek" unicode="&#x397;" horiz-adv-x="1432" 
d="M1292 0h-180v657h-792v-657h-180v1443h180v-624h792v624h180v-1443z" />
    <glyph glyph-name="Thetagreek" unicode="&#x398;" horiz-adv-x="1508" 
d="M755 1301q-226 0 -356 -156q-130 -155 -130 -423t130 -424q129 -156 355 -156t356 156t129 424q0 268 -129 423q-129 156 -355 156zM754 1467q312 -1 491 -201t179 -545t-179 -545t-491 -200t-490 200q-180 200 -180 545q0 344 180 545q178 201 490 201zM1057 638h-605
v162h605v-162z" />
    <glyph glyph-name="Iotagreek" unicode="&#x399;" horiz-adv-x="460" 
d="M320 0h-180v1443h180v-1443z" />
    <glyph glyph-name="Kappagreek" unicode="&#x39a;" horiz-adv-x="1260" 
d="M320 0h-180v1443h180v-704h10l637 704h227l-593 -639l646 -804h-230l-541 676l-156 -172v-504z" />
    <glyph glyph-name="Lambdagreek" unicode="&#x39b;" horiz-adv-x="1252" 
d="M1038 0l-409 1214h-6l-409 -1214h-189l512 1443h178l512 -1443h-189z" />
    <glyph glyph-name="Mugreek" unicode="&#x39c;" horiz-adv-x="1702" 
d="M1562 1443v-1443h-168v1112h-7l-460 -1102h-152l-460 1102h-7v-1112h-168v1443h209l498 -1204h8l498 1204h209z" />
    <glyph glyph-name="Nugreek" unicode="&#x39d;" horiz-adv-x="1432" 
d="M318 0h-178v1443h175l790 -1133h9v1133h178v-1443h-175l-790 1129h-9v-1129z" />
    <glyph glyph-name="Xigreek" unicode="&#x39e;" horiz-adv-x="1253" 
d="M97 164h1059v-164h-1059v164zM1069 654h-885v162h885v-162zM97 1443h1059v-164h-1059v164z" />
    <glyph glyph-name="Omicrongreek" unicode="&#x39f;" horiz-adv-x="1498" 
d="M749 1301q-221 -1 -351 -157t-129 -422q-1 -266 129 -424q130 -156 351 -156t351 156t129 424q1 266 -129 422t-351 157zM749 1467q307 0 486 -201t179 -545q0 -345 -179 -545t-486 -200t-486 200t-179 545q0 344 179 545t486 201z" />
    <glyph glyph-name="Pigreek" unicode="&#x3a0;" horiz-adv-x="1412" 
d="M1272 0h-180v1281h-772v-1281h-180v1443h1132v-1443z" />
    <glyph glyph-name="Rhogreek" unicode="&#x3a1;" horiz-adv-x="1213" 
d="M320 1283v-608h318q154 1 239 81t85 224t-84 224t-240 79h-318zM140 1443h545q203 1 333 -129t129 -334q0 -204 -130 -335q-130 -130 -334 -130h-363v-515h-180v1443z" />
    <glyph glyph-name="Sigmagreek" unicode="&#x3a3;" horiz-adv-x="1233" 
d="M316 162h819v-162h-1037v128l419 597l-402 576v142h992v-162h-769v-7l372 -533v-7l-394 -565v-7z" />
    <glyph glyph-name="Taugreek" unicode="&#x3a4;" horiz-adv-x="1210" 
d="M695 0h-180v1281h-465v162h1110v-162h-465v-1281z" />
    <glyph glyph-name="Upsilongreek" unicode="&#x3a5;" horiz-adv-x="1254" 
d="M717 0h-180v621l-512 822h205l394 -648h6l394 648h205l-512 -822v-621z" />
    <glyph glyph-name="Phigreek" unicode="&#x3a6;" horiz-adv-x="1628" 
d="M904 -58h-180v143q-298 13 -474 185t-176 448t176 448t474 185v146h180v-146q298 -13 474 -185t176 -448t-176 -448t-474 -185v-143zM258 718q0 -212 124 -338t342 -134v944q-218 -8 -342 -134t-124 -338zM1370 718q0 212 -124 338t-342 134v-944q218 8 342 134t124 338z
" />
    <glyph glyph-name="Chigreek" unicode="&#x3a7;" horiz-adv-x="1300" 
d="M45 0l491 723v7l-485 713h217l385 -580h7l390 580h205l-498 -722v-6l487 -715h-216l-383 575h-7l-389 -575h-204z" />
    <glyph glyph-name="Psigreek" unicode="&#x3a8;" horiz-adv-x="1578" 
d="M879 0h-180v339q-261 1 -420 155t-159 404v545h180v-539q0 -188 104 -292t295 -107v938h180v-938q191 3 295 107t104 292v539h180v-545q0 -251 -160 -405t-419 -154v-339z" />
    <glyph glyph-name="Omegagreek" unicode="&#x3a9;" horiz-adv-x="1528" 
d="M1239 814q1 214 -127 350q-128 137 -348 137t-348 -137q-128 -136 -127 -350q0 -214 83 -359t258 -262v-193h-526v162h311v7q-147 102 -229 266t-82 361q0 198 82 350t233 236q150 84 345 85q195 -1 345 -85q151 -84 233 -236t82 -350q0 -197 -82 -361t-229 -266v-7h311
v-162h-526v193q175 117 258 262t83 359z" />
    <glyph glyph-name="Iotadieresisgreek" unicode="&#x3aa;" horiz-adv-x="460" 
d="M427 1585q-46 0 -79 33t-33 79t33 79q34 33 80 33q46 -1 78 -33t33 -78q0 -46 -33 -80q-33 -33 -79 -33zM33 1585q-46 0 -79 33t-33 79t33 79q34 33 80 33q46 -1 78 -33t33 -78q0 -46 -33 -80q-33 -33 -79 -33zM320 0h-180v1443h180v-1443z" />
    <glyph glyph-name="Upsilondieresisgreek" unicode="&#x3ab;" horiz-adv-x="1254" 
d="M824 1585q-46 0 -79 33t-33 79t33 79t79 33q46 -1 79 -33t33 -78t-33 -80q-33 -33 -79 -33zM430 1585q-46 0 -79 33t-33 79t33 79t79 33q46 -1 79 -33t33 -78t-33 -80q-33 -33 -79 -33zM717 0h-180v621l-512 822h205l394 -648h6l394 648h205l-512 -822v-621z" />
    <glyph glyph-name="alphatonosgreek" unicode="&#x3ac;" horiz-adv-x="1229" 
d="M477 1250l78 310h221l-155 -310h-144zM1025 284q0 -134 83 -134q39 0 66 8l10 -149q-44 -10 -94 -10q-210 0 -239 177h-4q-43 -82 -135 -134t-193 -51q-203 0 -329 152t-125 397q0 245 126 397t329 152q106 1 196 -49t140 -136h3v175h166v-795zM537 146q138 0 226 108
t88 284q1 176 -87 286t-224 110t-216 -108q-81 -108 -81 -288t78 -286t216 -106z" />
    <glyph glyph-name="epsilontonosgreek" unicode="&#x3ad;" horiz-adv-x="1051" 
d="M469 1250l78 310h221l-155 -310h-144zM510 -10q-204 0 -320 82t-115 221q0 90 51 153t144 90v4q-84 30 -130 91t-46 146q0 139 116 225t323 86t323 -93t131 -258h-174q-19 104 -84 150q-65 47 -205 47t-201 -44q-62 -44 -62 -118q0 -154 249 -154h154v-149h-154
q-120 0 -188 -43t-69 -118q-1 -163 267 -163t307 191h174q-25 -158 -157 -252q-130 -94 -334 -94z" />
    <glyph glyph-name="etatonosgreek" unicode="&#x3ae;" horiz-adv-x="1227" 
d="M469 1250l78 310h221l-155 -310h-144zM240 794q0 135 -91 135q-42 0 -68 -8v149q55 10 102 10q169 0 212 -137q8 -31 9 -40h4q54 93 132 139t195 46q187 0 283 -105t96 -295v-1048h-174v1004q0 148 -58 218t-189 71q-131 0 -205 -84t-74 -221v-628h-174v794z" />
    <glyph glyph-name="iotatonosgreek" unicode="&#x3af;" horiz-adv-x="553" 
d="M131 1250l78 310h221l-155 -310h-144zM294 287q0 -144 122 -144q57 0 87 5l10 -147q-38 -9 -122 -9q-147 0 -209 66t-62 222v798h174v-791z" />
    <glyph glyph-name="upsilondieresistonosgreek" unicode="&#x3b0;" horiz-adv-x="1077" 
d="M553 1250h-134l31 310h211zM805 1261q-46 0 -79 33t-33 79t33 79q34 33 80 33q46 -1 78 -33t33 -78q0 -46 -33 -80q-33 -33 -79 -33zM245 1261q-46 0 -79 33t-33 79t33 79q34 33 80 33q46 -1 78 -33t33 -78q0 -46 -33 -80q-33 -33 -79 -33zM542 -10q-212 0 -321 114
q-108 114 -108 323v651h174v-642q-1 -146 59 -218t194 -71q134 0 204 105q71 104 71 292t-21 294t-82 240h178q46 -90 74 -226t28 -275q0 -283 -119 -435t-331 -152z" />
    <glyph glyph-name="alphagreek" unicode="&#x3b1;" horiz-adv-x="1229" 
d="M1025 283q0 -134 83 -134q39 0 66 8l10 -149q-44 -10 -94 -10q-210 0 -239 177h-4q-43 -81 -135 -133t-193 -52q-203 0 -329 152t-125 397q0 245 126 397t329 152q106 0 196 -50t140 -135h3v175h166v-795zM537 145q138 1 226 109t88 284q1 176 -87 285q-88 110 -224 110
q-136 -1 -216 -109q-81 -108 -81 -288t78 -285q78 -106 216 -106z" />
    <glyph glyph-name="betagreek" unicode="&#x3b2;" horiz-adv-x="1161" 
d="M647 -10q-249 0 -351 185h-4v-535h-174v1388q0 236 115 362t323 126t324 -99t116 -273q0 -110 -58 -192t-166 -124v-2q160 -37 242 -137t82 -253q0 -196 -125 -321t-324 -125zM458 738v149h87q136 1 207 63t71 174q-1 112 -71 175q-70 62 -186 62q-276 0 -276 -351v-472
q0 -187 86 -290t234 -103q150 0 229 79t79 217q0 137 -96 217t-280 80h-84z" />
    <glyph glyph-name="gammagreek" unicode="&#x3b3;" horiz-adv-x="1095" 
d="M1000 897q0 -231 -102 -445q-102 -213 -300 -480v-322h-172v328l-376 1100h184l296 -934h4q156 216 230 396t74 370q0 77 -10 168h163q9 -71 9 -181z" />
    <glyph glyph-name="deltagreek" unicode="&#x3b4;" horiz-adv-x="1114" 
d="M556 141q142 1 229 97t87 270t-86 268t-234 93q-146 0 -228 -103t-82 -267t86 -261t228 -97zM595 1365q-190 0 -190 -112q-1 -47 43 -84t179 -105q226 -114 324 -244t98 -310q1 -236 -135 -378t-356 -142t-356 140q-137 140 -137 358q1 218 113 348t293 147v2
q-238 106 -238 267q0 124 101 194t286 70t326 -73l-10 -153q-185 75 -341 75z" />
    <glyph glyph-name="epsilongreek" unicode="&#x3b5;" horiz-adv-x="1051" 
d="M510 -10q-204 0 -320 82t-115 221q0 90 51 153t144 90v4q-84 30 -130 91t-46 146q0 139 116 225t323 86t323 -93t131 -258h-174q-19 104 -84 150q-65 47 -205 47t-201 -44q-62 -44 -62 -118q0 -154 249 -154h154v-149h-154q-120 0 -188 -43t-69 -118q-1 -163 267 -163
t307 191h174q-25 -158 -157 -252q-130 -94 -334 -94z" />
    <glyph glyph-name="zetagreek" unicode="&#x3b6;" horiz-adv-x="884" 
d="M731 -160q-1 76 -45 116t-180 83q-242 77 -342 195t-99 332t145 416q144 204 402 365v5h-460v154h721v-153q-316 -183 -473 -375t-157 -408q1 -154 71 -234t257 -142q187 -60 257 -132t71 -186q0 -114 -73 -236l-146 30q51 95 51 170z" />
    <glyph glyph-name="etagreek" unicode="&#x3b7;" horiz-adv-x="1227" 
d="M240 794q0 135 -91 135q-42 0 -68 -8v149q55 10 102 10q169 0 212 -137q8 -31 9 -40h4q54 93 132 139t195 46q187 0 283 -105t96 -295v-1048h-174v1004q0 148 -58 218t-189 71q-131 0 -205 -84t-74 -221v-628h-174v794z" />
    <glyph glyph-name="thetagreek" unicode="&#x3b8;" horiz-adv-x="1190" 
d="M595 1361q-300 0 -322 -517h644q-22 517 -322 517zM595 145q158 1 237 133t86 412h-646q7 -280 86 -412t237 -133zM593 -10q-243 0 -371 198t-127 568q0 370 129 565t371 195t371 -197t129 -565q1 -368 -129 -566t-373 -198z" />
    <glyph glyph-name="iotagreek" unicode="&#x3b9;" horiz-adv-x="553" 
d="M294 287q0 -144 122 -144q57 0 87 5l10 -147q-38 -9 -122 -9q-147 0 -209 66t-62 222v798h174v-791z" />
    <glyph glyph-name="kappagreek" unicode="&#x3ba;" horiz-adv-x="1119" 
d="M128 0v1078h172v-578h2l342 400q90 106 150 143t126 37t111 -10v-149q-24 8 -74 8q-51 1 -91 -27t-113 -114l-115 -136l431 -652h-195l-342 531l-232 -253v-278h-172z" />
    <glyph glyph-name="lambdagreek" unicode="&#x3bb;" horiz-adv-x="1118" 
d="M211 1365q-30 0 -62 -9v149q55 11 93 11q128 0 194 -63t131 -244l333 -949q23 -65 52 -88q30 -23 70 -23t66 8l10 -149q-45 -10 -92 -10q-106 0 -162 46t-104 182l-202 585h-2l-318 -811h-178l422 1018l-54 147q-48 128 -84 164t-113 36z" />
    <glyph glyph-name="mugreek" unicode="&#x3bc;" horiz-adv-x="1216" 
d="M1002 282q0 -133 84 -133q40 0 65 8l10 -149q-38 -10 -97 -10q-183 0 -223 155q-3 12 -7 36h-2q-50 -95 -126 -147t-164 -52q-86 0 -152 38t-96 99h-2v-487h-174v1438h174v-656q0 -275 256 -275q128 -1 204 81t76 224v626h174v-796z" />
    <glyph glyph-name="nugreek" unicode="&#x3bd;" horiz-adv-x="1075" 
d="M811 910q0 77 -10 168h170q9 -71 9 -168q0 -235 -82 -443t-279 -467h-200l-369 1078h184l296 -934h4q146 204 212 386t65 380z" />
    <glyph glyph-name="xigreek" unicode="&#x3be;" horiz-adv-x="924" 
d="M731 -160q-1 76 -49 118q-48 41 -191 86q-237 74 -331 171t-95 229q0 132 79 223t226 123v2q-126 43 -184 111t-58 173q0 209 235 273v3h-231v154h741v-137l-103 -11q-246 -26 -362 -92t-116 -180t90 -160t283 -45h135v-154h-138q-420 0 -420 -257q0 -92 72 -154
t256 -122t256 -131q72 -72 73 -186q0 -114 -73 -237l-146 30q51 94 51 170z" />
    <glyph glyph-name="omicrongreek" unicode="&#x3bf;" horiz-adv-x="1114" 
d="M557 145q149 -1 231 103t83 290q0 186 -84 290q-84 105 -230 105t-230 -105q-84 -104 -84 -290q1 -186 83 -290t231 -103zM557 -10q-222 0 -357 150t-135 401t133 399t359 148t359 -148t133 -399t-135 -401t-357 -150z" />
    <glyph glyph-name="pigreek" unicode="&#x3c0;" horiz-adv-x="1335" 
d="M1035 275q0 -126 83 -126q37 0 66 8l10 -149q-46 -10 -94 -10q-120 0 -176 62t-56 198v671h-424v-929h-167v929h-212v149h1185v-149h-215v-654z" />
    <glyph glyph-name="rhogreek" unicode="&#x3c1;" horiz-adv-x="1153" 
d="M108 -360v893q0 253 132 404t352 151t358 -150t138 -398t-126 -399t-338 -151q-111 0 -201 50t-137 135h-4v-535h-174zM595 145q143 1 229 107t86 290t-86 288t-231 103q-146 0 -229 -104q-83 -105 -83 -285t86 -290t228 -109z" />
    <glyph glyph-name="sigmafinalgreek" unicode="&#x3c2;" horiz-adv-x="1042" 
d="M551 934q-144 0 -226 -100t-82 -260q1 -158 71 -238t257 -142q187 -60 257 -132t71 -186q0 -114 -73 -236l-146 30q51 95 51 170q-1 76 -45 116t-180 83q-242 75 -342 195t-99 344q0 224 129 367t336 143q407 0 463 -360h-174q-43 206 -268 206z" />
    <glyph glyph-name="sigmagreek" unicode="&#x3c3;" horiz-adv-x="1256" 
d="M555 146q145 0 231 104t85 284q0 180 -80 285q-80 104 -225 104t-234 -106q-89 -107 -89 -285q-1 -178 83 -282t229 -104zM554 -9q-218 -1 -354 149q-135 150 -135 396t145 394t390 148h591v-149h-325v-4q80 -55 126 -161t47 -228q1 -244 -133 -394t-352 -151z" />
    <glyph glyph-name="taugreek" unicode="&#x3c4;" horiz-adv-x="1013" 
d="M663 -8q-152 0 -212 68t-60 229v640h-331v149h868v-149h-363v-638q-1 -76 31 -112t107 -36q28 0 71 5l10 -147q-44 -9 -121 -9z" />
    <glyph glyph-name="upsilongreek" unicode="&#x3c5;" horiz-adv-x="1077" 
d="M542 -10q-212 0 -321 114q-108 114 -108 323v651h174v-642q-1 -146 59 -218t194 -71q134 0 204 105q71 104 71 292t-21 294t-82 240h178q46 -90 74 -226t28 -275q0 -283 -119 -435t-331 -152z" />
    <glyph glyph-name="phigreek" unicode="&#x3c6;" horiz-adv-x="1434" 
d="M234 541q0 -175 107 -283t293 -121v804q-192 -7 -296 -117t-104 -283zM1200 541q0 173 -104 283t-296 117v-804q186 13 293 121t107 283zM634 -360v351q-262 11 -418 161t-156 390t154 390t420 155v234h166v-234q266 -5 420 -155t154 -390t-156 -390t-418 -161v-351h-166
z" />
    <glyph glyph-name="chigreek" unicode="&#x3c7;" horiz-adv-x="1139" 
d="M126 929q-45 0 -71 -8v149q53 10 96 10q97 0 151 -40t114 -160l183 -371h2l297 569h183l-405 -729l220 -440q36 -73 66 -97t72 -23q42 0 65 8l10 -149q-37 -10 -113 -10t-128 36t-107 148l-189 377h-2l-294 -559h-183l403 719l-227 458q-34 67 -66 89t-77 23z" />
    <glyph glyph-name="psigreek" unicode="&#x3c8;" horiz-adv-x="1404" 
d="M614 -360v350q-236 2 -368 117t-133 320v651h174v-630q-1 -146 83 -224t244 -77v1174h167v-1174q173 1 267 103t94 292t-21 296t-82 240h178q45 -90 73 -224t29 -272q-1 -280 -143 -436t-395 -156v-350h-167z" />
    <glyph glyph-name="omegagreek" unicode="&#x3c9;" horiz-adv-x="1525" 
d="M263 508q0 -361 202 -361q99 0 155 77t56 207v338h172v-338q0 -130 56 -207t156 -77q202 0 202 361q0 305 -167 570h188q69 -106 113 -265t44 -307q0 -250 -96 -383t-276 -133q-217 0 -303 236h-6q-86 -236 -303 -236q-180 0 -276 133t-95 383q-1 148 43 307t114 265h188
q-167 -265 -167 -570z" />
    <glyph glyph-name="iotadieresisgreek" unicode="&#x3ca;" horiz-adv-x="553" 
d="M411 1261q-46 0 -79 33t-33 79t33 79q34 33 80 33q46 -1 78 -33t33 -78q0 -46 -33 -80q-33 -33 -79 -33zM17 1261q-46 0 -79 33t-33 79t33 79q34 33 80 33q46 -1 78 -33t33 -78q0 -46 -33 -80q-33 -33 -79 -33zM294 287q0 -144 122 -144q57 0 87 5l10 -147
q-38 -9 -122 -9q-147 0 -209 66t-62 222v798h174v-791z" />
    <glyph glyph-name="upsilondieresisgreek" unicode="&#x3cb;" horiz-adv-x="1077" 
d="M729 1261q-46 0 -79 33t-33 79t33 79q34 33 80 33q46 -1 78 -33t33 -78q0 -46 -33 -80q-33 -33 -79 -33zM335 1261q-46 0 -79 33t-33 79t33 79q34 33 80 33q46 -1 78 -33t33 -78q0 -46 -33 -80q-33 -33 -79 -33zM542 -10q-212 0 -321 114q-108 114 -108 323v651h174v-642
q-1 -146 59 -218t194 -71q134 0 204 105q71 104 71 292t-21 294t-82 240h178q46 -90 74 -226t28 -275q0 -283 -119 -435t-331 -152z" />
    <glyph glyph-name="omicrontonosgreek" unicode="&#x3cc;" horiz-adv-x="1114" 
d="M492 1250l78 310h221l-155 -310h-144zM557 145q149 -1 231 103t83 290q0 186 -84 290q-84 105 -230 105t-230 -105q-84 -104 -84 -290q1 -186 83 -290t231 -103zM557 -10q-222 0 -357 150t-135 401t133 399t359 148t359 -148t133 -399t-135 -401t-357 -150z" />
    <glyph glyph-name="upsilontonosgreek" unicode="&#x3cd;" horiz-adv-x="1077" 
d="M442 1250l78 310h221l-155 -310h-144zM542 -10q-212 0 -321 114q-108 114 -108 323v651h174v-642q-1 -146 59 -218t194 -71q134 0 204 105q71 104 71 292t-21 294t-82 240h178q46 -90 74 -226t28 -275q0 -283 -119 -435t-331 -152z" />
    <glyph glyph-name="omegatonosgreek" unicode="&#x3ce;" horiz-adv-x="1525" 
d="M693 1250l78 310h221l-155 -310h-144zM263 508q0 -361 202 -361q99 0 155 77t56 207v338h172v-338q0 -130 56 -207t156 -77q202 0 202 361q0 305 -167 570h188q69 -106 113 -265t44 -307q0 -250 -96 -383t-276 -133q-217 0 -303 236h-6q-86 -236 -303 -236
q-180 0 -276 133t-95 383q-1 148 43 307t114 265h188q-167 -265 -167 -570z" />
    <glyph glyph-name="Iocyrillic" unicode="&#x401;" horiz-adv-x="1151" 
d="M794 1585q-46 0 -79 33t-33 79t33 79t79 33q46 -1 79 -33t33 -78t-33 -80q-33 -33 -79 -33zM400 1585q-46 0 -79 33t-33 79t33 79t79 33q46 -1 79 -33t33 -78t-33 -80q-33 -33 -79 -33zM1044 162v-162h-894v1443h894v-162h-714v-463h677v-160h-677v-496h714z" />
    <glyph glyph-name="Djecyrillic" unicode="&#x402;" horiz-adv-x="1677" 
d="M1071 907q223 0 355 -128q132 -129 131 -337t-121 -333t-321 -125q-87 0 -130 18v161q44 -16 128 -16q123 0 193 78q70 77 71 215q-1 138 -85 222t-212 83q-128 0 -230 -60q-104 -60 -145 -150v-535h-180v1281h-465v162h1110v-162h-465v-520h8q135 146 358 146z" />
    <glyph glyph-name="Gjecyrillic" unicode="&#x403;" horiz-adv-x="1071" 
d="M660 1550h-148l231 299h198zM331 0h-181v1443h856v-164h-675v-1279z" />
    <glyph glyph-name="Ecyrillic" unicode="&#x404;" horiz-adv-x="1421" 
d="M744 -24q-298 0 -474 202t-176 542q0 342 177 544t473 203q230 1 392 -125t203 -334h-184q-39 134 -151 214t-260 79q-192 0 -318 -131t-142 -351h640v-162h-643q9 -235 136 -375t328 -140q153 0 260 68t150 192h184q-53 -206 -207 -316t-388 -110z" />
    <glyph glyph-name="Dzecyrillic" unicode="&#x405;" horiz-adv-x="1235" 
d="M628 138q150 0 246 70t95 168t-67 157t-212 97l-185 48q-200 50 -292 142t-92 239q1 180 143 294t362 114q220 1 361 -115t147 -297h-180q-12 116 -100 183t-228 67t-230 -66q-88 -66 -88 -160q0 -95 64 -147t212 -90l151 -40q224 -56 322 -149t98 -248q1 -197 -145 -313
t-386 -116t-385 115q-146 115 -159 306h181q13 -117 115 -188t252 -71z" />
    <glyph glyph-name="Icyrillic" unicode="&#x406;" horiz-adv-x="480" 
d="M330 0h-180v1443h180v-1443z" />
    <glyph glyph-name="Yicyrillic" unicode="&#x407;" horiz-adv-x="480" 
d="M437 1585q-46 0 -79 33t-33 79t33 79q34 33 80 33q46 -1 78 -33t33 -78q0 -46 -33 -80q-33 -33 -79 -33zM43 1585q-46 0 -79 33t-33 79t33 79q34 33 80 33q46 -1 78 -33t33 -78q0 -46 -33 -80q-33 -33 -79 -33zM330 0h-180v1443h180v-1443z" />
    <glyph glyph-name="Jecyrillic" unicode="&#x408;" horiz-adv-x="1034" 
d="M52 339h179q3 -91 67 -149t172 -58t171 70t63 201v1040h180v-1041q0 -204 -112 -320t-302 -116t-304 104t-114 269z" />
    <glyph glyph-name="Ljecyrillic" unicode="&#x409;" horiz-adv-x="2153" 
d="M1241 162h308q155 0 239 76t85 216q-1 140 -85 216t-239 76h-308v-584zM120 -9q-42 0 -70 10v161q22 -6 62 -6t76 20q68 37 95 132t35 239l52 896h871v-535h353q204 0 334 -127t130 -327t-130 -328q-130 -126 -332 -126h-535v1281h-527l-46 -741q-17 -275 -101 -412
t-267 -137z" />
    <glyph glyph-name="Njecyrillic" unicode="&#x40a;" horiz-adv-x="2154" 
d="M330 657v-657h-180v1443h180v-624h752v624h180v-624h353q204 0 334 -112q130 -113 130 -293q1 -180 -129 -297t-333 -117h-535v657h-752zM1262 162h308q156 0 240 67t84 185t-84 181q-84 62 -240 62h-308v-495z" />
    <glyph glyph-name="Tshecyrillic" unicode="&#x40b;" horiz-adv-x="1697" 
d="M1058 745q-112 1 -212 -59t-141 -151v-535h-180v1281h-465v162h1110v-162h-465v-518h8q64 69 159 107t204 37q220 1 350 -135t131 -365v-407h-180v395q1 167 -83 259t-236 91z" />
    <glyph glyph-name="Kjecyrillic" unicode="&#x40c;" horiz-adv-x="1267" 
d="M330 701v-701h-180v1443h180v-665h8l620 665h226l-656 -690l723 -753h-247l-666 701h-8zM961 1849l-281 -299h-148l231 299h198z" />
    <glyph glyph-name="Ushortcyrillic" unicode="&#x40e;" horiz-adv-x="1220" 
d="M312 1850h123q0 -84 53 -142t134 -58t134 58t53 142h123q0 -132 -86 -216t-224 -83q-138 -1 -224 83t-86 216zM292 -10q-54 0 -80 13v162q32 -8 96 -8q137 0 220 151l-493 1135h192l391 -935h8l382 935h187l-442 -1030q-103 -239 -203 -331t-258 -92z" />
    <glyph glyph-name="Dzhecyrillic" unicode="&#x40f;" horiz-adv-x="1431" 
d="M632 0h-482v1443h180v-1281h771v1281h180v-1443h-482v-285h-167v285z" />
    <glyph glyph-name="Acyrillic" unicode="&#x410;" horiz-adv-x="1312" 
d="M653 1224l-231 -658h468l-231 658h-6zM1088 0l-145 413h-574l-145 -413h-189l532 1443h178l532 -1443h-189z" />
    <glyph glyph-name="Becyrillic" unicode="&#x411;" horiz-adv-x="1257" 
d="M330 162h298q156 0 240 70t84 202q0 130 -84 201t-240 71h-298v-544zM1137 434q1 -192 -129 -313t-333 -121h-525v1443h843v-162h-663v-413h343q204 0 334 -122q130 -120 130 -312z" />
    <glyph glyph-name="Vecyrillic" unicode="&#x412;" horiz-adv-x="1276" 
d="M330 159h356q163 0 247 65t84 190q0 252 -348 252h-339v-507zM330 1284v-463h288q160 0 244 62t85 174q0 111 -71 169t-202 58h-344zM713 0h-563v1443h565q186 0 300 -99t114 -261q-1 -113 -73 -205t-176 -110v-8q146 -19 234 -115t88 -240q0 -191 -130 -298t-359 -107z
" />
    <glyph glyph-name="Gecyrillic" unicode="&#x413;" horiz-adv-x="1071" 
d="M331 0h-181v1443h856v-164h-675v-1279z" />
    <glyph glyph-name="Decyrillic" unicode="&#x414;" horiz-adv-x="1480" 
d="M197 0v-285h-167v447h107q75 40 111 132t44 241l55 908h893v-1281h180v-447h-167v285h-1056zM360 162h700v1119h-552l-47 -750q-7 -134 -29 -217t-72 -144v-8z" />
    <glyph glyph-name="Iecyrillic" unicode="&#x415;" horiz-adv-x="1151" 
d="M1044 162v-162h-894v1443h894v-162h-714v-463h677v-160h-677v-496h714z" />
    <glyph glyph-name="Zhecyrillic" unicode="&#x416;" horiz-adv-x="1967" 
d="M1071 701v-701h-180v701h-8l-631 -701h-232l675 750l-618 693h228l578 -665h8v665h180v-665h8l580 665h223l-616 -691l681 -752h-242l-626 701h-8z" />
    <glyph glyph-name="Zecyrillic" unicode="&#x417;" horiz-adv-x="1186" 
d="M391 657v160h195q132 1 216 73t84 184t-77 178q-77 65 -211 65t-216 -65t-93 -179h-175q14 188 146 296t340 108q208 -1 338 -109t131 -277q-1 -120 -75 -213t-193 -122v-8q144 -20 227 -116t83 -243q0 -179 -147 -301t-368 -122t-366 112t-155 298h174q11 -114 107 -182
t243 -68t237 74t90 196t-88 192t-244 69h-203z" />
    <glyph glyph-name="Iicyrillic" unicode="&#x418;" horiz-adv-x="1452" 
d="M1124 0v1148h-16l-780 -1148h-178v1443h178v-1152h16l780 1152h178v-1443h-178z" />
    <glyph glyph-name="Iishortcyrillic" unicode="&#x419;" horiz-adv-x="1452" 
d="M415 1850h123q0 -84 53 -142t134 -58t134 58t53 142h123q-1 -132 -87 -216t-223 -83q-137 -1 -223 83t-87 216zM1124 0v1148h-16l-780 -1148h-178v1443h178v-1152h16l780 1152h178v-1443h-178z" />
    <glyph glyph-name="Kacyrillic" unicode="&#x41a;" horiz-adv-x="1278" 
d="M330 701v-701h-180v1443h180v-665h8l620 665h226l-656 -690l723 -753h-247l-666 701h-8z" />
    <glyph glyph-name="Elcyrillic" unicode="&#x41b;" horiz-adv-x="1391" 
d="M1241 0h-180v1281h-527l-46 -741q-18 -288 -106 -418t-262 -131q-40 0 -70 10v161q22 -6 54 -6q102 0 152 91t62 300l52 896h871v-1443z" />
    <glyph glyph-name="Emcyrillic" unicode="&#x41c;" horiz-adv-x="1722" 
d="M1572 1443v-1443h-168v1112h-7l-460 -1102h-152l-460 1102h-7v-1112h-168v1443h209l498 -1204h8l498 1204h209z" />
    <glyph glyph-name="Encyrillic" unicode="&#x41d;" horiz-adv-x="1452" 
d="M1302 0h-180v657h-792v-657h-180v1443h180v-624h792v624h180v-1443z" />
    <glyph glyph-name="Ocyrillic" unicode="&#x41e;" horiz-adv-x="1518" 
d="M759 1301q-221 -1 -351 -157t-129 -422q-1 -266 129 -424q130 -156 351 -156t351 156t129 424q1 266 -129 422t-351 157zM759 1467q307 0 486 -201t179 -545q0 -345 -179 -545t-486 -200t-486 200t-179 545q0 344 179 545t486 201z" />
    <glyph glyph-name="Pecyrillic" unicode="&#x41f;" horiz-adv-x="1431" 
d="M1281 0h-178v1279h-772v-1279h-181v1443h1131v-1443z" />
    <glyph glyph-name="Ercyrillic" unicode="&#x420;" horiz-adv-x="1232" 
d="M330 1283v-608h318q154 1 239 81t85 224t-84 224t-240 79h-318zM150 1443h545q203 1 333 -129t129 -334q0 -204 -130 -335q-130 -130 -334 -130h-363v-515h-180v1443z" />
    <glyph glyph-name="Escyrillic" unicode="&#x421;" horiz-adv-x="1421" 
d="M744 -24q-298 0 -474 202t-176 542q0 342 177 544t473 203q230 1 392 -125t203 -334h-184q-39 134 -151 214t-260 79q-211 0 -338 -158q-127 -159 -127 -423t126 -421t340 -157q153 0 260 68t150 192h184q-53 -206 -207 -316t-388 -110z" />
    <glyph glyph-name="Tecyrillic" unicode="&#x422;" horiz-adv-x="1230" 
d="M705 0h-180v1281h-465v162h1110v-162h-465v-1281z" />
    <glyph glyph-name="Ucyrillic" unicode="&#x423;" horiz-adv-x="1220" 
d="M292 -10q-54 0 -80 13v162q32 -8 96 -8q137 0 220 151l-493 1135h192l391 -935h8l382 935h187l-442 -1030q-103 -239 -203 -331t-258 -92z" />
    <glyph glyph-name="Efcyrillic" unicode="&#x424;" horiz-adv-x="1623" 
d="M85 726q0 266 172 428q172 160 466 168v141h178v-141q293 -7 465 -168q172 -162 172 -428t-172 -426t-465 -169v-151h-178v151q-293 7 -465 168t-173 427zM1356 726q0 194 -122 311t-333 124v-869q211 8 333 124t122 310zM267 726q1 -194 123 -310t333 -124v869
q-211 -9 -333 -125t-123 -310z" />
    <glyph glyph-name="Xacyrillic" unicode="&#x425;" horiz-adv-x="1320" 
d="M55 0l491 723v7l-485 713h217l385 -580h7l390 580h205l-498 -722v-6l487 -715h-216l-383 575h-7l-389 -575h-204z" />
    <glyph glyph-name="Tsecyrillic" unicode="&#x426;" horiz-adv-x="1522" 
d="M1462 -285h-167v285h-1145v1443h180v-1281h772v1281h180v-1281h180v-447z" />
    <glyph glyph-name="Checyrillic" unicode="&#x427;" horiz-adv-x="1367" 
d="M1217 0h-180v684h-8q-143 -148 -379 -148t-380 146q-145 146 -145 384v377h180v-365q-1 -172 93 -274t239 -102t250 59t150 157v525h180v-1443z" />
    <glyph glyph-name="Shacyrillic" unicode="&#x428;" horiz-adv-x="1884" 
d="M150 0v1443h180v-1281h522v1281h180v-1281h522v1281h180v-1443h-1584z" />
    <glyph glyph-name="Shchacyrillic" unicode="&#x429;" horiz-adv-x="1974" 
d="M1914 -285h-167v285h-1597v1443h180v-1281h522v1281h180v-1281h522v1281h180v-1281h180v-447z" />
    <glyph glyph-name="Hardsigncyrillic" unicode="&#x42a;" horiz-adv-x="1502" 
d="M610 162h308q156 0 240 76t84 216t-84 216t-240 76h-308v-584zM965 0h-535v1281h-330v162h510v-535h353q204 0 334 -127t130 -327q1 -200 -129 -328q-130 -126 -333 -126z" />
    <glyph glyph-name="Yericyrillic" unicode="&#x42b;" horiz-adv-x="1670" 
d="M1520 0h-180v1443h180v-1443zM330 162h308q156 0 240 76t84 216t-84 216t-240 76h-308v-584zM150 0v1443h180v-535h353q204 0 334 -128t130 -327q0 -201 -129 -327t-333 -126h-535z" />
    <glyph glyph-name="Softsigncyrillic" unicode="&#x42c;" horiz-adv-x="1222" 
d="M330 162h308q156 0 240 76t84 216t-84 216t-240 76h-308v-584zM150 0v1443h180v-535h353q204 0 334 -128t130 -327q0 -201 -129 -327t-333 -126h-535z" />
    <glyph glyph-name="Ereversedcyrillic" unicode="&#x42d;" horiz-adv-x="1421" 
d="M682 -24q-235 0 -391 110t-209 316h184q43 -124 152 -192t263 -68q201 0 325 140t134 375h-643v162h640q-15 221 -139 351t-316 131q-149 0 -263 -80t-153 -213h-184q40 207 204 333t396 126q296 -1 470 -203t175 -544t-173 -542q-174 -202 -472 -202z" />
    <glyph glyph-name="IUcyrillic" unicode="&#x42e;" horiz-adv-x="1991" 
d="M1247 1311q-216 0 -342 -159t-126 -430q1 -270 125 -430t342 -160t342 160t124 431t-124 429t-341 159zM1254 -34q-296 0 -469 186q-172 186 -189 505h-266v-657h-180v1443h180v-624h268q26 306 198 482t462 176q290 1 465 -203q174 -204 174 -552q1 -348 -173 -552
t-470 -204z" />
    <glyph glyph-name="IAcyrillic" unicode="&#x42f;" horiz-adv-x="1287" 
d="M130 1000q0 196 130 320t332 123h545v-1443h-180v555h-290l-398 -555h-214l414 577q-155 35 -247 149t-92 274zM957 717v564h-318q-155 0 -239 -73q-84 -72 -85 -208q1 -136 85 -210t239 -73h318z" />
    <glyph glyph-name="acyrillic" unicode="&#x430;" horiz-adv-x="1082" 
d="M443 -10q-164 0 -264 87t-100 228t104 221t300 91l302 18v90q0 100 -64 154q-65 54 -171 54t-170 -45t-81 -121h-167q4 137 121 229t297 92t295 -94q114 -94 114 -254v-740h-165v187h-4q-46 -89 -140 -143t-207 -54zM495 141q117 1 203 77t87 192v87l-282 -18
q-246 -15 -246 -173q1 -75 61 -120t177 -45z" />
    <glyph glyph-name="becyrillic" unicode="&#x431;" horiz-adv-x="1164" 
d="M587 136q155 0 239 103t85 285q-1 182 -85 280t-239 98t-239 -98t-85 -280q1 -182 85 -285t239 -103zM580 -19q-240 0 -368 165q-127 165 -127 486q0 455 131 656t444 213l77 3q188 9 281 58v-153q-26 -24 -104 -42t-169 -22l-78 -3q-113 -4 -189 -32t-124 -88
q-50 -60 -76 -144t-45 -215h8q53 93 149 143t223 50q218 0 347 -142t129 -391q-1 -248 -135 -395t-374 -147z" />
    <glyph glyph-name="vecyrillic" unicode="&#x432;" horiz-adv-x="1036" 
d="M128 0v1078h457q151 0 237 -74t86 -202q0 -82 -51 -149t-125 -83v-8q100 -14 162 -83t62 -169q0 -142 -99 -226t-270 -84h-459zM785 313q0 173 -235 173h-250v-342h283q98 0 150 44t52 125zM563 934h-263v-304h235q203 0 203 154q0 74 -45 112t-130 38z" />
    <glyph glyph-name="gecyrillic" unicode="&#x433;" horiz-adv-x="888" 
d="M818 934h-518v-934h-172v1078h690v-144z" />
    <glyph glyph-name="decyrillic" unicode="&#x434;" horiz-adv-x="1222" 
d="M182 -285h-162v429h90q110 73 128 333l42 601h735v-934h172v-429h-162v285h-843v-285zM843 144v790h-409l-34 -461q-17 -227 -89 -321v-8h532z" />
    <glyph glyph-name="iecyrillic" unicode="&#x435;" horiz-adv-x="1104" 
d="M569 -10q-227 0 -361 147t-133 398q0 251 133 402t351 151t344 -142t126 -387v-68h-774v-10q0 -154 87 -246t231 -92q101 1 175 45t96 120h172q-22 -138 -148 -228t-299 -90zM558 935q-128 0 -210 -84q-84 -84 -93 -221h593q-2 137 -82 221t-208 84z" />
    <glyph glyph-name="zhecyrillic" unicode="&#x436;" horiz-adv-x="1566" 
d="M867 521v-521h-172v521h-8l-441 -521h-221l489 565l-478 513h215l436 -479h8v479h172v-479h8l436 479h214l-476 -510l492 -568h-225l-441 521h-8z" />
    <glyph glyph-name="zecyrillic" unicode="&#x437;" horiz-adv-x="981" 
d="M489 -18q-183 0 -299 80t-130 214h177q17 -71 81 -110t173 -39t174 50t65 137q0 174 -247 174h-163v144h163q211 0 211 161q0 72 -52 115t-152 43t-162 -39q-63 -39 -74 -104h-170q17 133 126 211t283 78q175 1 273 -79t98 -212q0 -84 -50 -149t-130 -84v-8
q106 -23 162 -87t55 -160q0 -150 -115 -243t-297 -93z" />
    <glyph glyph-name="iicyrillic" unicode="&#x438;" horiz-adv-x="1153" 
d="M128 0v1078h172v-809h8l545 809h172v-1078h-172v809h-8l-545 -809h-172z" />
    <glyph glyph-name="iishortcyrillic" unicode="&#x439;" horiz-adv-x="1153" 
d="M258 1550h128q0 -89 54 -148t140 -59t140 59t54 148h128q0 -138 -90 -224t-232 -86t-232 86t-90 224zM128 0v1078h172v-809h8l545 809h172v-1078h-172v809h-8l-545 -809h-172z" />
    <glyph glyph-name="kacyrillic" unicode="&#x43a;" horiz-adv-x="1029" 
d="M300 521v-521h-172v1078h172v-479h8l466 479h216l-507 -511l521 -567h-225l-471 521h-8z" />
    <glyph glyph-name="elcyrillic" unicode="&#x43b;" horiz-adv-x="1116" 
d="M84 152q76 0 114 82t48 243l42 601h700v-1078h-172v934h-372l-34 -461q-22 -293 -114 -399q-72 -83 -188 -83q-52 0 -78 11v158q24 -8 54 -8z" />
    <glyph glyph-name="emcyrillic" unicode="&#x43c;" horiz-adv-x="1455" 
d="M300 0h-172v1078h209l390 -847h8l391 847h201v-1078h-173v767h-8l-352 -737h-134l-352 737h-8v-767z" />
    <glyph glyph-name="encyrillic" unicode="&#x43d;" horiz-adv-x="1138" 
d="M838 0v488h-538v-488h-172v1078h172v-446h538v446h172v-1078h-172z" />
    <glyph glyph-name="ocyrillic" unicode="&#x43e;" horiz-adv-x="1144" 
d="M572 145q150 1 236 105q84 104 84 290t-84 289q-84 104 -236 104q-152 -1 -236 -105t-84 -289t85 -289t235 -105zM572 -10q-227 0 -362 149t-135 400t135 400t362 149t362 -149t135 -400t-135 -400t-362 -149z" />
    <glyph glyph-name="pecyrillic" unicode="&#x43f;" horiz-adv-x="1128" 
d="M828 0v934h-528v-934h-172v1078h872v-1078h-172z" />
    <glyph glyph-name="ercyrillic" unicode="&#x440;" horiz-adv-x="1183" 
d="M616 145q142 -1 228 107t86 286t-86 287q-86 108 -228 108q-141 0 -228 -109t-87 -285q1 -176 87 -285t228 -109zM646 1088q206 0 334 -152t128 -397t-127 -397t-331 -152q-114 0 -204 48t-140 137h-4v-535h-174v1438h165v-175h4q47 85 142 135t207 50z" />
    <glyph glyph-name="escyrillic" unicode="&#x441;" horiz-adv-x="1078" 
d="M568 933q-142 0 -229 -108t-87 -288t88 -286t230 -106q107 0 178 47t97 135h173q-27 -151 -149 -244t-300 -93q-224 0 -359 148t-135 399t135 401t357 150q184 0 304 -98t145 -242h-173q-23 83 -94 134t-181 51z" />
    <glyph glyph-name="tecyrillic" unicode="&#x442;" horiz-adv-x="952" 
d="M912 1078v-144h-350v-934h-172v934h-350v144h872z" />
    <glyph glyph-name="ucyrillic" unicode="&#x443;" horiz-adv-x="1046" 
d="M220 -391q-39 0 -76 7v147q30 -6 88 -6q58 1 103 41t78 137l21 64l-399 1079h185l302 -901h4l302 901h183l-422 -1144q-69 -187 -147 -256t-222 -69z" />
    <glyph glyph-name="efcyrillic" unicode="&#x444;" horiz-adv-x="1429" 
d="M75 540q0 248 152 398t404 153v342h168v-342q251 -5 403 -155t152 -398t-152 -398t-403 -153v-347h-168v347q-252 5 -404 155t-152 398zM1179 538q-1 184 -103 292t-277 112v-806q175 4 277 112q102 106 103 290zM250 540q0 -184 102 -292t279 -112v806
q-177 -4 -279 -112q-102 -106 -102 -290z" />
    <glyph glyph-name="hacyrillic" unicode="&#x445;" horiz-adv-x="1011" 
d="M506 413h-4l-263 -413h-194l369 539l-363 539h194l263 -407h4l260 407h194l-365 -532l360 -546h-194z" />
    <glyph glyph-name="tsecyrillic" unicode="&#x446;" horiz-adv-x="1197" 
d="M1162 -285h-162v285h-872v1078h172v-934h518v934h172v-934h172v-429z" />
    <glyph glyph-name="checyrillic" unicode="&#x447;" horiz-adv-x="1070" 
d="M942 0h-172v491h-8q-121 -107 -293 -107q-173 0 -271 106t-98 280v308h172v-308q0 -108 56 -170t157 -63q153 0 253 98q20 19 32 38v405h172v-1078z" />
    <glyph glyph-name="shacyrillic" unicode="&#x448;" horiz-adv-x="1578" 
d="M128 0v1078h172v-934h403v934h172v-934h403v934h172v-1078h-1322z" />
    <glyph glyph-name="shchacyrillic" unicode="&#x449;" horiz-adv-x="1657" 
d="M1622 -285h-162v285h-1332v1078h172v-934h403v934h172v-934h403v934h172v-934h172v-429z" />
    <glyph glyph-name="hardsigncyrillic" unicode="&#x44a;" horiz-adv-x="1180" 
d="M705 588h-203v-444h203q105 0 169 60t64 162t-64 162t-169 60zM705 0h-375v934h-290v144h462v-346h203q185 0 295 -99t110 -267t-110 -267t-295 -99z" />
    <glyph glyph-name="yericyrillic" unicode="&#x44b;" horiz-adv-x="1344" 
d="M128 0v1078h172v-346h203q185 0 295 -99t110 -267t-110 -267t-295 -99h-375zM503 588h-203v-444h203q105 0 169 60t64 162t-64 162t-169 60zM1044 0v1078h172v-1078h-172z" />
    <glyph glyph-name="softsigncyrillic" unicode="&#x44c;" horiz-adv-x="978" 
d="M128 0v1078h172v-346h203q185 0 295 -99t110 -267t-110 -267t-295 -99h-375zM503 588h-203v-444h203q105 0 169 60t64 162t-64 162t-169 60z" />
    <glyph glyph-name="ereversedcyrillic" unicode="&#x44d;" horiz-adv-x="1078" 
d="M330 488v144h489q-19 138 -103 220t-200 81q-116 0 -187 -51t-94 -134h-173q25 144 145 242t304 98q222 0 357 -150t135 -401t-135 -399t-359 -148q-177 0 -299 92t-150 244h173q53 -181 288 -181q120 0 207 92t96 251h-494z" />
    <glyph glyph-name="iucyrillic" unicode="&#x44e;" horiz-adv-x="1544" 
d="M982 136q148 0 228 106t81 297q-1 191 -81 297t-228 106t-228 -106t-81 -297q1 -191 81 -297t228 -106zM988 -19q-220 0 -349 135t-143 372h-196v-488h-172v1078h172v-446h200q22 219 150 342t343 123t345 -149q130 -148 131 -408q-1 -260 -131 -410t-350 -149z" />
    <glyph glyph-name="iacyrillic" unicode="&#x44f;" horiz-adv-x="1020" 
d="M720 0v386h-195l-275 -386h-200l301 418q-114 32 -179 112t-65 191q-1 165 109 261t296 96h380v-1078h-172zM512 530h208v404h-208q-107 0 -170 -56t-63 -147q0 -93 64 -147t169 -54z" />
    <glyph glyph-name="iocyrillic" unicode="&#x451;" horiz-adv-x="1104" 
d="M758 1261q-46 0 -79 33t-33 79t33 79t79 33q46 -1 79 -33t33 -78t-33 -80q-33 -33 -79 -33zM364 1261q-46 0 -79 33t-33 79t33 79t79 33q46 -1 79 -33t33 -78t-33 -80q-33 -33 -79 -33zM569 -10q-227 0 -361 147t-133 398q0 251 133 402t351 151t344 -142t126 -387v-68
h-774v-10q0 -154 87 -246t231 -92q101 1 175 45t96 120h172q-22 -138 -148 -228t-299 -90zM558 935q-128 0 -210 -84q-84 -84 -93 -221h593q-2 137 -82 221t-208 84z" />
    <glyph glyph-name="djecyrillic" unicode="&#x452;" horiz-adv-x="1161" 
d="M312 903h4q102 185 342 185q176 0 278 -109t102 -291v-744q0 -164 -81 -239t-252 -75h-30v147h26q91 0 127 38t36 129v713q0 131 -66 203t-197 73q-131 0 -210 -85t-79 -228v-620h-174v1267h-114v124h114v115h174v-115h268v-124h-268v-364z" />
    <glyph glyph-name="gjecyrillic" unicode="&#x453;" horiz-adv-x="897" 
d="M526 1250h-148l211 300h198zM818 934h-518v-934h-172v1078h690v-144z" />
    <glyph glyph-name="ecyrillic" unicode="&#x454;" horiz-adv-x="1078" 
d="M569 -10q-224 0 -359 148t-135 399t135 401t357 150q184 0 304 -98t145 -242h-173q-23 83 -94 134t-187 51q-116 1 -200 -81t-103 -220h489v-144h-494q9 -159 96 -251t207 -92q235 0 288 181h173q-28 -152 -150 -244t-299 -92z" />
    <glyph glyph-name="dzecyrillic" unicode="&#x455;" horiz-adv-x="1003" 
d="M110 777q0 136 112 223t281 87q169 1 281 -87t117 -221h-167q-8 76 -70 120t-162 44t-160 -43q-61 -43 -61 -114q0 -108 182 -153l164 -41q163 -42 229 -106t67 -192t-119 -216t-300 -88t-296 86q-115 86 -128 227h175q13 -81 79 -125t175 -44q111 0 175 42t64 108
q0 64 -38 98t-130 58l-189 49q-281 73 -281 288z" />
    <glyph glyph-name="icyrillic" unicode="&#x456;" horiz-adv-x="450" 
d="M226 1252q-46 0 -78 32t-33 78q1 46 33 78t78 32t77 -32q32 -32 32 -78t-32 -78q-31 -32 -77 -32zM138 0v1078h174v-1078h-174z" />
    <glyph glyph-name="yicyrillic" unicode="&#x457;" horiz-adv-x="450" 
d="M128 0v1078h174v-1078h-174zM392 1252q-46 0 -79 33t-33 79t33 79t79 33t79 -33t33 -79t-33 -79t-79 -33zM58 1252q-46 0 -79 33t-33 79t33 79t79 33t79 -33t33 -79t-33 -79t-79 -33z" />
    <glyph glyph-name="jecyrillic" unicode="&#x458;" horiz-adv-x="463" 
d="M226 1252q-46 0 -78 32t-33 78q1 46 33 78t78 32t77 -32q32 -32 32 -78t-32 -78q-31 -32 -77 -32zM312 1078v-1131q0 -165 -80 -241t-251 -76h-31v147h27q89 -1 125 37t36 130v1134h174z" />
    <glyph glyph-name="ljecyrillic" unicode="&#x459;" horiz-adv-x="1671" 
d="M1196 588h-203v-444h203q106 0 170 60t63 162q1 102 -63 162t-170 60zM84 152q76 0 114 82t48 243l42 601h705v-346h203q185 0 295 -99t110 -267t-110 -267t-295 -99h-375v934h-377l-34 -461q-22 -293 -114 -399q-72 -83 -188 -83q-52 0 -78 11v158q24 -8 54 -8z" />
    <glyph glyph-name="njecyrillic" unicode="&#x45a;" horiz-adv-x="1668" 
d="M818 0v518h-518v-518h-172v1078h172v-416h518v416h172v-416h213q181 0 288 -90t107 -241t-107 -241t-288 -90h-385zM1203 518h-213v-374h213q103 0 163 51t60 136t-61 136t-162 51z" />
    <glyph glyph-name="tshecyrillic" unicode="&#x45b;" horiz-adv-x="1161" 
d="M312 903h4q102 185 342 185q176 0 278 -109t102 -291v-688h-174v657q0 131 -66 203t-197 73q-131 0 -210 -85t-79 -228v-620h-174v1267h-114v124h114v115h174v-115h268v-124h-268v-364z" />
    <glyph glyph-name="kjecyrillic" unicode="&#x45c;" horiz-adv-x="1029" 
d="M300 521v-521h-172v1078h172v-479h8l466 479h216l-507 -511l521 -567h-225l-471 521h-8zM847 1550l-261 -300h-148l211 300h198z" />
    <glyph glyph-name="ushortcyrillic" unicode="&#x45e;" horiz-adv-x="1046" 
d="M201 1550h128q-1 -89 53 -148t141 -59t141 59t53 148h128q1 -138 -89 -224t-233 -86t-233 86t-89 224zM220 -391q-39 0 -76 7v147q30 -6 88 -6q58 1 103 41t78 137l21 64l-399 1079h185l302 -901h4l302 901h183l-422 -1144q-69 -187 -147 -256t-222 -69z" />
    <glyph glyph-name="dzhecyrillic" unicode="&#x45f;" horiz-adv-x="1128" 
d="M1000 0h-355v-285h-162v285h-355v1078h172v-934h528v934h172v-1078z" />
    <glyph glyph-name="Geupturncyrillic" unicode="&#x490;" horiz-adv-x="1071" 
d="M331 1279v-1279h-181v1443h689v285h167v-449h-675z" />
    <glyph glyph-name="geupturncyrillic" unicode="&#x491;" horiz-adv-x="888" 
d="M818 934h-518v-934h-172v1078h528v285h162v-429z" />
    <glyph glyph-name="baht" unicode="&#xe3f;" horiz-adv-x="1239" 
d="M1115 405q1 -191 -129 -298t-360 -107h-6v-137h-134v137h-362v1443h362v157h134v-157q196 -1 309 -98t113 -262q0 -112 -72 -202t-177 -109v-16q148 -20 235 -114t87 -237zM860 1052q0 100 -62 160t-178 70v-456q240 29 240 226zM304 1284v-463h182v463h-182zM304 159
h182v507h-182v-507zM930 414q0 237 -310 251v-506q310 10 310 255z" />
    <glyph glyph-name="Aringbelow" unicode="&#x1e00;" horiz-adv-x="1292" 
d="M646 -475q48 0 82 34t34 82t-34 82t-82 34t-82 -34t-34 -82t34 -82t82 -34zM646 -558q-82 0 -140 58t-59 141q1 83 59 141t140 58t140 -58t59 -141q-1 -83 -59 -141t-140 -58zM643 1224l-231 -658h468l-231 658h-6zM1078 0l-145 413h-574l-145 -413h-189l532 1443h178
l532 -1443h-189z" />
    <glyph glyph-name="aringbelow" unicode="&#x1e01;" horiz-adv-x="1062" 
d="M512 -475q48 0 82 34t34 82t-34 82t-82 34t-82 -34t-34 -82t34 -82t82 -34zM512 -558q-82 0 -140 58t-59 141q1 83 59 141t140 58t140 -58t59 -141q-1 -83 -59 -141t-140 -58zM433 -10q-164 0 -264 87t-100 228t104 221t300 91l302 18v90q0 100 -64 154q-65 54 -171 54
t-170 -45t-81 -121h-167q4 137 121 229t297 92t295 -94q114 -94 114 -254v-740h-165v187h-4q-46 -89 -140 -143t-207 -54zM485 141q117 1 203 77t87 192v87l-282 -18q-246 -15 -246 -173q1 -75 61 -120t177 -45z" />
    <glyph glyph-name="Bdotaccent" unicode="&#x1e02;" horiz-adv-x="1256" 
d="M561 1585q-49 -1 -85 35t-36 86t36 86t85 35q49 1 85 -35t36 -86t-36 -86t-85 -35zM320 159h356q163 0 247 65t84 190q0 252 -348 252h-339v-507zM320 1284v-463h288q160 0 244 62t85 174q0 111 -71 169t-202 58h-344zM703 0h-563v1443h565q185 0 299 -99t115 -261
q-1 -113 -73 -205t-176 -110v-8q146 -19 234 -115t88 -240q0 -191 -130 -298t-359 -107z" />
    <glyph glyph-name="bdotaccent" unicode="&#x1e03;" horiz-adv-x="1173" 
d="M215 1648q-49 0 -85 36t-36 85t36 85t85 36t85 -36t36 -85t-36 -85t-85 -36zM618 933q-142 1 -230 -109t-87 -286q-1 -176 87 -284q88 -109 230 -109t226 107q86 106 86 286t-86 288q-84 108 -226 107zM648 -10q-242 0 -351 192h-4v-182h-165v1506h174v-603h4
q51 89 141 137t205 48q204 0 330 -152t126 -398t-126 -397t-334 -151z" />
    <glyph glyph-name="Bdotbelow" unicode="&#x1e04;" horiz-adv-x="1256" 
d="M561 -392q-49 0 -85 36t-36 85t36 85t85 36t85 -36t36 -85t-36 -85t-85 -36zM320 159h356q163 0 247 65t84 190q0 252 -348 252h-339v-507zM320 1284v-463h288q160 0 244 62t85 174q0 111 -71 169t-202 58h-344zM703 0h-563v1443h565q185 0 299 -99t115 -261
q-1 -113 -73 -205t-176 -110v-8q146 -19 234 -115t88 -240q0 -191 -130 -298t-359 -107z" />
    <glyph glyph-name="bdotbelow" unicode="&#x1e05;" horiz-adv-x="1173" 
d="M618 -392q-50 0 -86 36t-35 85q-1 49 35 85t86 36t86 -36t35 -85q1 -49 -35 -85t-86 -36zM618 933q-142 1 -230 -109t-87 -286q-1 -176 87 -284q88 -109 230 -109t226 107q86 106 86 286t-86 288q-84 108 -226 107zM648 -10q-242 0 -351 192h-4v-182h-165v1506h174v-603
h4q51 89 141 137t205 48q204 0 330 -152t126 -398t-126 -397t-334 -151z" />
    <glyph glyph-name="Blinebelow" unicode="&#x1e06;" horiz-adv-x="1256" 
d="M878 -220v-106h-634v106h634zM320 159h356q163 0 247 65t84 190q0 252 -348 252h-339v-507zM320 1284v-463h288q160 0 244 62t85 174q0 111 -71 169t-202 58h-344zM703 0h-563v1443h565q185 0 299 -99t115 -261q-1 -113 -73 -205t-176 -110v-8q146 -19 234 -115t88 -240
q0 -191 -130 -298t-359 -107z" />
    <glyph glyph-name="blinebelow" unicode="&#x1e07;" horiz-adv-x="1173" 
d="M935 -220v-106h-634v106h634zM618 933q-142 1 -230 -109t-87 -286q-1 -176 87 -284q88 -109 230 -109t226 107q86 106 86 286t-86 288q-84 108 -226 107zM648 -10q-242 0 -351 192h-4v-182h-165v1506h174v-603h4q51 89 141 137t205 48q204 0 330 -152t126 -398t-126 -397
t-334 -151z" />
    <glyph glyph-name="Ccedillaacute" unicode="&#x1e08;" horiz-adv-x="1405" 
d="M734 1301q-211 0 -338 -158q-127 -159 -127 -423t126 -421t340 -157q159 0 268 73t148 205h182q-46 -200 -185 -314t-354 -128l-44 -120q209 0 209 -150q0 -76 -62 -126t-151 -51t-153 17v98q37 -15 122 -15q120 0 120 73q1 34 -35 50t-115 16h-55v74l51 134
q-277 18 -437 218t-160 532q0 334 177 536t473 203q236 1 400 -131t199 -348h-182q-35 142 -149 228t-268 85zM1092 1851l-281 -299h-148l231 299h198z" />
    <glyph glyph-name="ccedillaacute" unicode="&#x1e09;" horiz-adv-x="1060" 
d="M784 -292q0 -76 -62 -126t-151 -51t-153 17v98q38 -15 122 -15q120 0 120 73q0 34 -36 50t-114 16h-55v74l57 148q-204 16 -326 162t-121 390q0 244 135 394q136 150 342 150t328 -106t139 -255h-171q-17 91 -90 149q-72 58 -202 57q-130 0 -217 -108t-87 -288t88 -286
t215 -106q250 0 295 200h171q-20 -144 -124 -239t-262 -112l-50 -136q209 0 209 -150zM892 1550l-261 -300h-148l211 300h198z" />
    <glyph glyph-name="Ddotaccent" unicode="&#x1e0a;" horiz-adv-x="1399" 
d="M550 1585q-50 -1 -86 35t-35 86q-1 50 35 86t86 35q50 1 86 -35t35 -86q1 -50 -35 -86t-86 -35zM320 1281v-1119h303q245 0 377 144t132 415q0 270 -132 415t-377 145h-303zM140 1443h495q321 -1 501 -191t180 -530t-180 -532q-180 -190 -501 -190h-495v1443z" />
    <glyph glyph-name="ddotaccent" unicode="&#x1e0b;" horiz-adv-x="1173" 
d="M958 1648q-50 0 -86 36t-35 85q-1 49 35 85t86 36t86 -36t35 -85q1 -49 -35 -85t-86 -36zM557 933q-141 0 -227 -108q-86 -109 -87 -287q1 -178 87 -286t227 -107q141 0 228 109t87 285t-87 285t-228 109zM65 538q0 246 128 398t330 152q115 0 205 -48t139 -137h4v603
h174v-1506h-166v182h-3q-109 -192 -349 -192q-204 0 -333 152q-129 150 -129 396z" />
    <glyph glyph-name="Ddotbelow" unicode="&#x1e0c;" horiz-adv-x="1399" 
d="M550 -392q-50 0 -86 36t-35 85q-1 49 35 85t86 36t86 -36t35 -85q1 -49 -35 -85t-86 -36zM320 1281v-1119h303q245 0 377 144t132 415q0 270 -132 415t-377 145h-303zM140 1443h495q321 -1 501 -191t180 -530t-180 -532q-180 -190 -501 -190h-495v1443z" />
    <glyph glyph-name="ddotbelow" unicode="&#x1e0d;" horiz-adv-x="1173" 
d="M527 -392q-49 0 -85 36t-36 85t36 85t85 36t85 -36t36 -85t-36 -85t-85 -36zM557 933q-141 0 -227 -108q-86 -109 -87 -287q1 -178 87 -286t227 -107q141 0 228 109t87 285t-87 285t-228 109zM65 538q0 246 128 398t330 152q115 0 205 -48t139 -137h4v603h174v-1506h-166
v182h-3q-109 -192 -349 -192q-204 0 -333 152q-129 150 -129 396z" />
    <glyph glyph-name="Dlinebelow" unicode="&#x1e0e;" horiz-adv-x="1399" 
d="M867 -220v-106h-634v106h634zM320 1281v-1119h303q245 0 377 144t132 415q0 270 -132 415t-377 145h-303zM140 1443h495q321 -1 501 -191t180 -530t-180 -532q-180 -190 -501 -190h-495v1443z" />
    <glyph glyph-name="dlinebelow" unicode="&#x1e0f;" horiz-adv-x="1173" 
d="M844 -220v-106h-634v106h634zM557 933q-141 0 -227 -108q-86 -109 -87 -287q1 -178 87 -286t227 -107q141 0 228 109t87 285t-87 285t-228 109zM65 538q0 246 128 398t330 152q115 0 205 -48t139 -137h4v603h174v-1506h-166v182h-3q-109 -192 -349 -192q-204 0 -333 152
q-129 150 -129 396z" />
    <glyph glyph-name="Dcommaaccent" unicode="&#x1e10;" horiz-adv-x="1399" 
d="M535 -541h-126l91 369h153zM320 1281v-1119h303q245 0 377 144t132 415q0 270 -132 415t-377 145h-303zM140 1443h495q321 -1 501 -191t180 -530t-180 -532q-180 -190 -501 -190h-495v1443z" />
    <glyph glyph-name="dcommaaccent" unicode="&#x1e11;" horiz-adv-x="1173" 
d="M512 -541h-126l91 369h153zM557 933q-141 0 -227 -108q-86 -109 -87 -287q1 -178 87 -286t227 -107q141 0 228 109t87 285t-87 285t-228 109zM65 538q0 246 128 398t330 152q115 0 205 -48t139 -137h4v603h174v-1506h-166v182h-3q-109 -192 -349 -192q-204 0 -333 152
q-129 150 -129 396z" />
    <glyph glyph-name="Dcircumflexbelow" unicode="&#x1e12;" horiz-adv-x="1399" 
d="M479 -166h142l292 -299h-168l-194 201h-2l-194 -201h-168zM320 1281v-1119h303q245 0 377 144t132 415q0 270 -132 415t-377 145h-303zM140 1443h495q321 -1 501 -191t180 -530t-180 -532q-180 -190 -501 -190h-495v1443z" />
    <glyph glyph-name="dcircumflexbelow" unicode="&#x1e13;" horiz-adv-x="1173" 
d="M456 -166h142l292 -299h-168l-194 201h-2l-194 -201h-168zM557 933q-141 0 -227 -108q-86 -109 -87 -287q1 -178 87 -286t227 -107q141 0 228 109t87 285t-87 285t-228 109zM65 538q0 246 128 398t330 152q115 0 205 -48t139 -137h4v603h174v-1506h-166v182h-3
q-109 -192 -349 -192q-204 0 -333 152q-129 150 -129 396z" />
    <glyph glyph-name="Emacrongrave" unicode="&#x1e14;" horiz-adv-x="1131" 
d="M655 1849h-136l-236 204h187zM270 1642v106h634v-106h-634zM1034 162v-162h-894v1443h894v-162h-714v-463h677v-160h-677v-496h714z" />
    <glyph glyph-name="emacrongrave" unicode="&#x1e15;" horiz-adv-x="1084" 
d="M868 1426v-106h-634v106h634zM626 1592h-150l-199 257h188zM559 -10q-227 0 -361 147t-133 398q0 251 133 402t351 151t344 -142t126 -387v-68h-774v-10q0 -154 87 -246t231 -92q101 1 175 45t96 120h172q-22 -138 -148 -228t-299 -90zM548 935q-128 0 -210 -84
q-84 -84 -93 -221h593q-2 137 -82 221t-208 84z" />
    <glyph glyph-name="Emacronacute" unicode="&#x1e16;" horiz-adv-x="1131" 
d="M519 1849l185 204h187l-236 -204h-136zM904 1642h-634v106h634v-106zM1034 162v-162h-894v1443h894v-162h-714v-463h677v-160h-677v-496h714z" />
    <glyph glyph-name="emacronacute" unicode="&#x1e17;" horiz-adv-x="1084" 
d="M868 1426v-106h-634v106h634zM476 1592l161 257h188l-199 -257h-150zM559 -10q-227 0 -361 147t-133 398q0 251 133 402t351 151t344 -142t126 -387v-68h-774v-10q0 -154 87 -246t231 -92q101 1 175 45t96 120h172q-22 -138 -148 -228t-299 -90zM548 935q-128 0 -210 -84
q-84 -84 -93 -221h593q-2 137 -82 221t-208 84z" />
    <glyph glyph-name="Ecircumflexbelow" unicode="&#x1e18;" horiz-adv-x="1131" 
d="M516 -166h142l292 -299h-168l-194 201h-2l-194 -201h-168zM1034 162v-162h-894v1443h894v-162h-714v-463h677v-160h-677v-496h714z" />
    <glyph glyph-name="ecircumflexbelow" unicode="&#x1e19;" horiz-adv-x="1084" 
d="M488 -166h142l292 -299h-168l-194 201h-2l-194 -201h-168zM559 -10q-227 0 -361 147t-133 398q0 251 133 402t351 151t344 -142t126 -387v-68h-774v-10q0 -154 87 -246t231 -92q101 1 175 45t96 120h172q-22 -138 -148 -228t-299 -90zM548 935q-128 0 -210 -84
q-84 -84 -93 -221h593q-2 137 -82 221t-208 84z" />
    <glyph glyph-name="Etildebelow" unicode="&#x1e1a;" horiz-adv-x="1131" 
d="M466 -263q-69 0 -69 -137h-114q0 118 47 184t131 66q47 0 87 -24t64 -52q64 -76 103 -76q62 0 62 138h114q0 -115 -48 -183t-122 -68q-73 -1 -127 53q-22 22 -43 46q-48 54 -85 53zM1034 162v-162h-894v1443h894v-162h-714v-463h677v-160h-677v-496h714z" />
    <glyph glyph-name="etildebelow" unicode="&#x1e1b;" horiz-adv-x="1084" 
d="M438 -263q-69 0 -69 -137h-114q0 118 47 184t131 66q47 0 87 -24t64 -52q64 -76 103 -76q62 0 62 138h114q0 -115 -48 -183t-122 -68q-73 -1 -127 53q-22 22 -43 46q-48 54 -85 53zM559 -10q-227 0 -361 147t-133 398q0 251 133 402t351 151t344 -142t126 -387v-68h-774
v-10q0 -154 87 -246t231 -92q101 1 175 45t96 120h172q-22 -138 -148 -228t-299 -90zM548 935q-128 0 -210 -84q-84 -84 -93 -221h593q-2 137 -82 221t-208 84z" />
    <glyph glyph-name="Ecedillabreve" unicode="&#x1e1c;" horiz-adv-x="1131" 
d="M1034 1281h-714v-463h677v-160h-677v-496h714v-162h-379l-52 -142q209 0 209 -150q0 -76 -62 -126t-151 -51t-153 17v98q38 -15 122 -15q120 0 120 73q0 34 -36 50t-114 16h-55v74l60 156h-403v1443h894v-162zM778 1849h119q-1 -131 -87 -215t-223 -84t-223 84t-87 215
h119q0 -83 55 -139t136 -57q81 1 136 57t55 139z" />
    <glyph glyph-name="ecedillabreve" unicode="&#x1e1d;" horiz-adv-x="1084" 
d="M1019 491h-774v-10q0 -154 87 -246t231 -92q101 1 175 45t96 120h172q-20 -125 -126 -211t-255 -103l-50 -136q209 0 209 -150q0 -76 -62 -126t-151 -51t-153 17v98q38 -15 122 -15q120 0 120 73q0 34 -36 50t-114 16h-55v74l57 148q-207 16 -327 161t-120 389t133 395
t351 151t344 -142t126 -387v-68zM548 935q-128 0 -210 -84q-84 -84 -93 -221h593q-2 137 -82 221t-208 84zM749 1550h123q0 -138 -90 -224t-232 -86t-232 86t-90 224h123q-1 -86 57 -144t142 -59q84 1 142 59t57 144z" />
    <glyph glyph-name="Fdotaccent" unicode="&#x1e1e;" horiz-adv-x="1081" 
d="M578 1585q-50 -1 -86 35t-35 86q-1 50 35 86t86 35q50 1 86 -35t35 -86q1 -50 -35 -86t-86 -35zM320 0h-180v1443h876v-162h-696v-496h639v-160h-639v-625z" />
    <glyph glyph-name="fdotaccent" unicode="&#x1e1f;" horiz-adv-x="629" 
d="M367 1605q-49 -1 -85 35t-36 86t36 86t85 35q49 1 85 -35t36 -86t-36 -86t-85 -35zM175 0v934h-150v144h150v100q1 150 69 219t218 69q48 0 97 -9v-144q-37 8 -93 8q-115 0 -117 -143v-100h210v-144h-210v-934h-174z" />
    <glyph glyph-name="Gmacron" unicode="&#x1e20;" horiz-adv-x="1447" 
d="M1062 1748v-106h-634v106h634zM1357 597q1 -293 -161 -457t-458 -164t-474 204q-180 204 -180 546q0 341 179 541t482 200q235 -1 399 -129t204 -343h-189q-45 146 -153 226t-261 80q-223 1 -349 -151t-127 -422q0 -270 128 -428t334 -158t326 114t120 294v26h-407v158
h587v-137z" />
    <glyph glyph-name="gmacron" unicode="&#x1e21;" horiz-adv-x="1163" 
d="M872 1426v-106h-634v106h634zM579 -385q-205 -1 -327 81t-141 216h181q20 -66 94 -106t198 -40t205 68q82 68 82 182v169h-4q-51 -89 -142 -137t-204 -48q-205 0 -331 150t-125 394q0 246 126 395t334 149q113 0 205 -48t146 -137h3v175h166v-1048q-1 -193 -131 -304
t-335 -111zM554 155q142 -1 230 107t87 282q1 174 -87 281q-88 108 -230 108q-142 -1 -226 -107q-85 -106 -85 -282t85 -283q84 -106 226 -106z" />
    <glyph glyph-name="Hdotaccent" unicode="&#x1e22;" horiz-adv-x="1432" 
d="M716 1585q-50 -1 -86 35t-35 86q-1 50 35 86t86 35q50 1 86 -35t35 -86q1 -50 -35 -86t-86 -35zM1292 0h-180v657h-792v-657h-180v1443h180v-624h792v624h180v-1443z" />
    <glyph glyph-name="hdotaccent" unicode="&#x1e23;" horiz-adv-x="1141" 
d="M216 1648q-50 0 -86 36t-35 85q-1 49 35 85t86 36t86 -36t35 -85q1 -49 -35 -85t-86 -36zM128 0v1506h174v-603h4q102 185 342 185q176 0 278 -109t102 -291v-688h-174v657q0 131 -66 203t-197 73q-131 0 -210 -85t-79 -228v-620h-174z" />
    <glyph glyph-name="Hdotbelow" unicode="&#x1e24;" horiz-adv-x="1432" 
d="M716 -392q-50 0 -86 36t-35 85q-1 49 35 85t86 36t86 -36t35 -85q1 -49 -35 -85t-86 -36zM1292 0h-180v657h-792v-657h-180v1443h180v-624h792v624h180v-1443z" />
    <glyph glyph-name="hdotbelow" unicode="&#x1e25;" horiz-adv-x="1141" 
d="M581 -392q-49 0 -85 36t-36 85t36 85t85 36t85 -36t36 -85t-36 -85t-85 -36zM128 0v1506h174v-603h4q102 185 342 185q176 0 278 -109t102 -291v-688h-174v657q0 131 -66 203t-197 73q-131 0 -210 -85t-79 -228v-620h-174z" />
    <glyph glyph-name="Hdieresis" unicode="&#x1e26;" horiz-adv-x="1432" 
d="M913 1585q-46 0 -79 33t-33 79t33 79q34 33 80 33q46 -1 78 -33t33 -78q0 -46 -33 -80q-33 -33 -79 -33zM519 1585q-46 0 -79 33t-33 79t33 79q34 33 80 33q46 -1 78 -33t33 -78q0 -46 -33 -80q-33 -33 -79 -33zM1292 0h-180v657h-792v-657h-180v1443h180v-624h792v624
h180v-1443z" />
    <glyph glyph-name="hdieresis" unicode="&#x1e27;" horiz-adv-x="1141" 
d="M413 1648q-46 0 -79 33t-33 79t33 79q34 33 80 33t78 -33t33 -79q0 -46 -33 -79t-79 -33zM19 1648q-46 0 -79 33t-33 79t33 79q34 33 80 33t78 -33t33 -79q0 -46 -33 -79t-79 -33zM128 0v1506h174v-603h4q102 185 342 185q176 0 278 -109t102 -291v-688h-174v657
q0 131 -66 203t-197 73q-131 0 -210 -85t-79 -228v-620h-174z" />
    <glyph glyph-name="Hcedilla" unicode="&#x1e28;" horiz-adv-x="1432" 
d="M1112 1443h180v-1443h-180v657h-792v-657h-22l-52 -142q209 0 209 -150q0 -76 -62 -126t-151 -51t-153 17v98q38 -15 122 -15q120 0 120 73q1 34 -35 50t-115 16h-55v74l60 156h-46v1443h180v-624h792v624z" />
    <glyph glyph-name="hcedilla" unicode="&#x1e29;" horiz-adv-x="1141" 
d="M302 903h4q102 185 342 185q176 0 278 -109t102 -291v-688h-174v657q0 131 -66 203t-197 73q-131 0 -210 -85t-79 -228v-620h-18l-52 -142q209 0 209 -150q0 -76 -62 -126t-151 -51t-153 17v98q37 -15 122 -15q120 0 120 73q1 34 -35 50t-115 16h-55v74l60 156h-44v1506
h174v-603z" />
    <glyph glyph-name="Hbrevebelow" unicode="&#x1e2a;" horiz-adv-x="1432" 
d="M406 -196h119q0 -84 55 -140t136 -56t136 56t55 140h119q0 -132 -86 -216t-224 -83q-138 -1 -224 83t-86 216zM1292 0h-180v657h-792v-657h-180v1443h180v-624h792v624h180v-1443z" />
    <glyph glyph-name="hbrevebelow" unicode="&#x1e2b;" horiz-adv-x="1141" 
d="M271 -196h119q0 -84 55 -140t136 -56t136 56t55 140h119q-1 -132 -87 -216t-223 -83q-137 -1 -223 83t-87 216zM128 0v1506h174v-603h4q102 185 342 185q176 0 278 -109t102 -291v-688h-174v657q0 131 -66 203t-197 73q-131 0 -210 -85t-79 -228v-620h-174z" />
    <glyph glyph-name="Itildebelow" unicode="&#x1e2c;" horiz-adv-x="460" 
d="M109 -263q-69 0 -69 -137h-114q0 118 47 184t131 66q48 0 88 -24t64 -52q64 -76 102 -76q62 0 62 138h114q0 -115 -48 -183t-122 -68q-74 -1 -128 53q-22 22 -42 46q-48 54 -85 53zM320 0h-180v1443h180v-1443z" />
    <glyph glyph-name="itildebelow" unicode="&#x1e2d;" horiz-adv-x="430" 
d="M94 -263q-69 0 -69 -137h-114q0 118 47 184t131 66q47 0 87 -24t64 -52q64 -76 103 -76q62 0 62 138h114q0 -115 -48 -183t-122 -68q-73 -1 -127 53q-22 22 -43 46q-48 54 -85 53zM216 1252q-46 0 -78 32t-33 78q1 46 33 78t78 32t77 -32q32 -32 32 -78t-32 -78
q-31 -32 -77 -32zM128 0v1078h174v-1078h-174z" />
    <glyph glyph-name="Idieresisacute" unicode="&#x1e2e;" horiz-adv-x="460" 
d="M416 1592q-40 0 -69 29t-29 69t29 70t69 30t70 -29q29 -29 29 -70t-29 -70q-30 -29 -70 -29zM44 1592q-40 0 -70 29q-29 29 -29 70t29 70q30 29 70 29t69 -30t29 -70t-29 -69t-69 -29zM162 1849l185 204h187l-236 -204h-136zM320 0h-180v1443h180v-1443z" />
    <glyph glyph-name="idieresisacute" unicode="&#x1e2f;" horiz-adv-x="430" 
d="M412 1261q-46 0 -79 33t-33 79t33 79t79 33q46 -1 79 -33t33 -78t-33 -80q-33 -33 -79 -33zM18 1261q-46 0 -79 33t-33 79t33 79t79 33q46 -1 79 -33t33 -78t-33 -80q-33 -33 -79 -33zM140 1592l161 257h188l-199 -257h-150zM128 0v1078h174v-1078h-174z" />
    <glyph glyph-name="Kacute" unicode="&#x1e30;" horiz-adv-x="1260" 
d="M686 1550h-148l231 299h198zM320 0h-180v1443h180v-704h10l637 704h227l-593 -639l646 -804h-230l-541 676l-156 -172v-504z" />
    <glyph glyph-name="kacute" unicode="&#x1e31;" horiz-adv-x="1026" 
d="M292 1613h-148l231 299h198zM302 0h-174v1506h174v-910l483 482h212l-471 -466l485 -612h-202l-405 505l-102 -96v-409z" />
    <glyph glyph-name="Kdotbelow" unicode="&#x1e32;" horiz-adv-x="1260" 
d="M609 -392q-49 0 -85 36t-36 85t36 85t85 36t85 -36t36 -85t-36 -85t-85 -36zM320 0h-180v1443h180v-704h10l637 704h227l-593 -639l646 -804h-230l-541 676l-156 -172v-504z" />
    <glyph glyph-name="kdotbelow" unicode="&#x1e33;" horiz-adv-x="1026" 
d="M556 -392q-50 0 -86 36t-35 85q-1 49 35 85t86 36t86 -36t35 -85q1 -49 -35 -85t-86 -36zM302 0h-174v1506h174v-910l483 482h212l-471 -466l485 -612h-202l-405 505l-102 -96v-409z" />
    <glyph glyph-name="Klinebelow" unicode="&#x1e34;" horiz-adv-x="1260" 
d="M926 -220v-106h-634v106h634zM320 0h-180v1443h180v-704h10l637 704h227l-593 -639l646 -804h-230l-541 676l-156 -172v-504z" />
    <glyph glyph-name="klinebelow" unicode="&#x1e35;" horiz-adv-x="1026" 
d="M873 -220v-106h-634v106h634zM302 0h-174v1506h174v-910l483 482h212l-471 -466l485 -612h-202l-405 505l-102 -96v-409z" />
    <glyph glyph-name="Ldotbelow" unicode="&#x1e36;" horiz-adv-x="1074" 
d="M578 -392q-50 0 -86 36t-35 85q-1 49 35 85t86 36t86 -36t35 -85q1 -49 -35 -85t-86 -36zM1016 162v-162h-876v1443h180v-1281h696z" />
    <glyph glyph-name="ldotbelow" unicode="&#x1e37;" horiz-adv-x="430" 
d="M215 -392q-49 0 -85 36t-36 85t36 85t85 36t85 -36t36 -85t-36 -85t-85 -36zM128 0v1506h174v-1506h-174z" />
    <glyph glyph-name="Ldotbelowmacron" unicode="&#x1e38;" horiz-adv-x="1074" 
d="M547 1748v-106h-634v106h634zM578 -392q-50 0 -86 36t-35 85q-1 49 35 85t86 36t86 -36t35 -85q1 -49 -35 -85t-86 -36zM1016 162v-162h-876v1443h180v-1281h696z" />
    <glyph glyph-name="ldotbelowmacron" unicode="&#x1e39;" horiz-adv-x="430" 
d="M532 1811v-106h-634v106h634zM215 -392q-49 0 -85 36t-36 85t36 85t85 36t85 -36t36 -85t-36 -85t-85 -36zM128 0v1506h174v-1506h-174z" />
    <glyph glyph-name="Llinebelow" unicode="&#x1e3a;" horiz-adv-x="1074" 
d="M895 -220v-106h-634v106h634zM1016 162v-162h-876v1443h180v-1281h696z" />
    <glyph glyph-name="llinebelow" unicode="&#x1e3b;" horiz-adv-x="430" 
d="M532 -220v-106h-634v106h634zM128 0v1506h174v-1506h-174z" />
    <glyph glyph-name="Lcircumflexbelow" unicode="&#x1e3c;" horiz-adv-x="1074" 
d="M507 -166h142l292 -299h-168l-194 201h-2l-194 -201h-168zM1016 162v-162h-876v1443h180v-1281h696z" />
    <glyph glyph-name="lcircumflexbelow" unicode="&#x1e3d;" horiz-adv-x="430" 
d="M144 -166h142l292 -299h-168l-194 201h-2l-194 -201h-168zM128 0v1506h174v-1506h-174z" />
    <glyph glyph-name="Macute" unicode="&#x1e3e;" horiz-adv-x="1702" 
d="M1562 1443v-1443h-168v1112h-7l-460 -1102h-152l-460 1102h-7v-1112h-168v1443h209l498 -1204h8l498 1204h209zM928 1550h-148l231 299h198z" />
    <glyph glyph-name="macute" unicode="&#x1e3f;" horiz-adv-x="1701" 
d="M927 1250h-148l211 300h198zM118 0v1078h164v-175h4q38 85 120 135t188 50q107 0 186 -53t114 -151h4q46 96 136 150t203 54q159 0 255 -96t96 -256v-736h-174v696q0 112 -60 174t-167 63q-107 0 -177 -72t-70 -183v-678h-174v717q0 98 -62 157t-166 59q-104 1 -175 -75
t-71 -189v-669h-174z" />
    <glyph glyph-name="Mdotaccent" unicode="&#x1e40;" horiz-adv-x="1702" 
d="M1562 1443v-1443h-168v1112h-7l-460 -1102h-152l-460 1102h-7v-1112h-168v1443h209l498 -1204h8l498 1204h209zM851 1585q-49 -1 -85 35t-36 86t36 86t85 35q49 1 85 -35t36 -86t-36 -86t-85 -35z" />
    <glyph glyph-name="mdotaccent" unicode="&#x1e41;" horiz-adv-x="1701" 
d="M853 1261q-51 1 -87 37t-37 87q1 51 37 87t87 37q51 -1 87 -37t37 -87q-1 -51 -37 -87t-87 -37zM118 0v1078h164v-175h4q38 85 120 135t188 50q107 0 186 -53t114 -151h4q46 96 136 150t203 54q159 0 255 -96t96 -256v-736h-174v696q0 112 -60 174t-167 63
q-107 0 -177 -72t-70 -183v-678h-174v717q0 98 -62 157t-166 59q-104 1 -175 -75t-71 -189v-669h-174z" />
    <glyph glyph-name="Mdotbelow" unicode="&#x1e42;" horiz-adv-x="1702" 
d="M1562 1443v-1443h-168v1112h-7l-460 -1102h-152l-460 1102h-7v-1112h-168v1443h209l498 -1204h8l498 1204h209zM851 -392q-49 0 -85 36t-36 85t36 85t85 36t85 -36t36 -85t-36 -85t-85 -36z" />
    <glyph glyph-name="mdotbelow" unicode="&#x1e43;" horiz-adv-x="1701" 
d="M853 -392q-49 0 -85 36t-36 85t36 85t85 36t85 -36t36 -85t-36 -85t-85 -36zM118 0v1078h164v-175h4q38 85 120 135t188 50q107 0 186 -53t114 -151h4q46 96 136 150t203 54q159 0 255 -96t96 -256v-736h-174v696q0 112 -60 174t-167 63q-107 0 -177 -72t-70 -183v-678
h-174v717q0 98 -62 157t-166 59q-104 1 -175 -75t-71 -189v-669h-174z" />
    <glyph glyph-name="Ndotaccent" unicode="&#x1e44;" horiz-adv-x="1432" 
d="M716 1585q-50 -1 -86 35t-35 86q-1 50 35 86t86 35q50 1 86 -35t35 -86q1 -50 -35 -86t-86 -35zM318 0h-178v1443h175l790 -1133h9v1133h178v-1443h-175l-790 1129h-9v-1129z" />
    <glyph glyph-name="ndotaccent" unicode="&#x1e45;" horiz-adv-x="1115" 
d="M560 1261q-52 1 -88 37t-36 87t36 87t88 37q52 -1 88 -37t36 -87t-36 -87t-88 -37zM118 0v1078h164v-175h4q103 185 342 185q178 0 276 -106t98 -291v-691h-174v661q0 272 -252 272q-132 1 -208 -83t-76 -224v-626h-174z" />
    <glyph glyph-name="Ndotbelow" unicode="&#x1e46;" horiz-adv-x="1432" 
d="M716 -392q-50 0 -86 36t-35 85q-1 49 35 85t86 36t86 -36t35 -85q1 -49 -35 -85t-86 -36zM318 0h-178v1443h175l790 -1133h9v1133h178v-1443h-175l-790 1129h-9v-1129z" />
    <glyph glyph-name="ndotbelow" unicode="&#x1e47;" horiz-adv-x="1115" 
d="M570 -392q-50 0 -86 36t-35 85q-1 49 35 85t86 36t86 -36t35 -85q1 -49 -35 -85t-86 -36zM118 0v1078h164v-175h4q103 185 342 185q178 0 276 -106t98 -291v-691h-174v661q0 272 -252 272q-132 1 -208 -83t-76 -224v-626h-174z" />
    <glyph glyph-name="Nlinebelow" unicode="&#x1e48;" horiz-adv-x="1432" 
d="M1033 -220v-106h-634v106h634zM318 0h-178v1443h175l790 -1133h9v1133h178v-1443h-175l-790 1129h-9v-1129z" />
    <glyph glyph-name="nlinebelow" unicode="&#x1e49;" horiz-adv-x="1115" 
d="M887 -220v-106h-634v106h634zM118 0v1078h164v-175h4q103 185 342 185q178 0 276 -106t98 -291v-691h-174v661q0 272 -252 272q-132 1 -208 -83t-76 -224v-626h-174z" />
    <glyph glyph-name="Ncircumflexbelow" unicode="&#x1e4a;" horiz-adv-x="1432" 
d="M645 -166h142l292 -299h-168l-194 201h-2l-194 -201h-168zM318 0h-178v1443h175l790 -1133h9v1133h178v-1443h-175l-790 1129h-9v-1129z" />
    <glyph glyph-name="ncircumflexbelow" unicode="&#x1e4b;" horiz-adv-x="1115" 
d="M499 -166h142l292 -299h-168l-194 201h-2l-194 -201h-168zM118 0v1078h164v-175h4q103 185 342 185q178 0 276 -106t98 -291v-691h-174v661q0 272 -252 272q-132 1 -208 -83t-76 -224v-626h-174z" />
    <glyph glyph-name="Otildeacute" unicode="&#x1e4c;" horiz-adv-x="1498" 
d="M683 1849l185 204h187l-236 -204h-136zM626 1687q-69 0 -69 -137h-114q0 118 47 184t131 66q47 0 87 -24t64 -52q64 -76 103 -76q62 0 62 138h114q0 -115 -48 -183t-122 -68q-73 -1 -127 53q-22 22 -43 46q-48 54 -85 53zM749 1301q-221 -1 -351 -157t-129 -422
q-1 -266 129 -424q130 -156 351 -156t351 156t129 424q1 266 -129 422t-351 157zM749 1467q307 0 486 -201t179 -545q0 -345 -179 -545t-486 -200t-486 200t-179 545q0 344 179 545t486 201z" />
    <glyph glyph-name="otildeacute" unicode="&#x1e4d;" horiz-adv-x="1124" 
d="M445 1398q-69 0 -69 -137h-114q0 118 47 184t126 66q79 1 133 -53q23 -22 58 -61q35 -38 68 -38q62 0 62 138h114q0 -115 -48 -183t-122 -68t-128 54q-22 22 -42 44q-48 54 -85 54zM497 1592l161 257h168l-199 -257h-130zM562 145q150 1 236 105q84 104 84 290t-84 289
q-84 104 -236 104q-152 -1 -236 -105t-84 -289t85 -289t235 -105zM562 -10q-227 0 -362 149t-135 400t135 400t362 149t362 -149t135 -400t-135 -400t-362 -149z" />
    <glyph glyph-name="Otildedieresis" unicode="&#x1e4e;" horiz-adv-x="1498" 
d="M936 2095q40 0 69 -29t29 -70t-29 -70t-69 -29t-70 29q-29 30 -29 70t29 70q30 30 70 29zM562 2095q40 1 70 -29q29 -30 29 -70t-29 -70q-30 -29 -70 -29t-69 29t-29 70t29 70t69 29zM628 1687q-69 0 -69 -137h-114q0 118 47 184t131 66q47 0 87 -24t64 -52
q64 -76 103 -76q62 0 62 138h114q0 -115 -48 -183t-122 -68q-73 -1 -127 53q-22 22 -43 46q-48 54 -85 53zM749 1301q-221 -1 -351 -157t-129 -422q-1 -266 129 -424q130 -156 351 -156t351 156t129 424q1 266 -129 422t-351 157zM749 1467q307 0 486 -201t179 -545
q0 -345 -179 -545t-486 -200t-486 200t-179 545q0 344 179 545t486 201z" />
    <glyph glyph-name="otildedieresis" unicode="&#x1e4f;" horiz-adv-x="1124" 
d="M445 1398q-69 0 -69 -137h-114q0 118 47 184t126 66q79 1 133 -53q23 -22 58 -61q35 -38 68 -38q62 0 62 138h114q0 -115 -48 -183t-122 -68t-128 54q-22 22 -42 44q-48 54 -85 54zM748 1592q-44 0 -76 31t-31 75q0 44 31 75t75 31t75 -31t31 -75t-31 -75
q-30 -31 -74 -31zM378 1592q-44 0 -76 31t-31 75q0 44 31 75t75 31t75 -31t31 -75t-31 -75q-30 -31 -74 -31zM562 145q150 1 236 105q84 104 84 290t-84 289q-84 104 -236 104q-152 -1 -236 -105t-84 -289t85 -289t235 -105zM562 -10q-227 0 -362 149t-135 400t135 400
t362 149t362 -149t135 -400t-135 -400t-362 -149z" />
    <glyph glyph-name="Omacrongrave" unicode="&#x1e50;" horiz-adv-x="1498" 
d="M817 1849h-136l-236 204h187zM432 1642v106h634v-106h-634zM749 1301q-221 -1 -351 -157t-129 -422q-1 -266 129 -424q130 -156 351 -156t351 156t129 424q1 266 -129 422t-351 157zM749 1467q307 0 486 -201t179 -545q0 -345 -179 -545t-486 -200t-486 200t-179 545
q0 344 179 545t486 201z" />
    <glyph glyph-name="omacrongrave" unicode="&#x1e51;" horiz-adv-x="1124" 
d="M879 1426v-106h-634v106h634zM637 1592h-150l-199 257h188zM562 145q150 1 236 105q84 104 84 290t-84 289q-84 104 -236 104q-152 -1 -236 -105t-84 -289t85 -289t235 -105zM562 -10q-227 0 -362 149t-135 400t135 400t362 149t362 -149t135 -400t-135 -400t-362 -149z
" />
    <glyph glyph-name="Omacronacute" unicode="&#x1e52;" horiz-adv-x="1498" 
d="M681 1849l185 204h187l-236 -204h-136zM1066 1642h-634v106h634v-106zM749 1301q-221 -1 -351 -157t-129 -422q-1 -266 129 -424q130 -156 351 -156t351 156t129 424q1 266 -129 422t-351 157zM749 1467q307 0 486 -201t179 -545q0 -345 -179 -545t-486 -200t-486 200
t-179 545q0 344 179 545t486 201z" />
    <glyph glyph-name="omacronacute" unicode="&#x1e53;" horiz-adv-x="1124" 
d="M879 1426v-106h-634v106h634zM487 1592l161 257h188l-199 -257h-150zM562 145q150 1 236 105q84 104 84 290t-84 289q-84 104 -236 104q-152 -1 -236 -105t-84 -289t85 -289t235 -105zM562 -10q-227 0 -362 149t-135 400t135 400t362 149t362 -149t135 -400t-135 -400
t-362 -149z" />
    <glyph glyph-name="Pacute" unicode="&#x1e54;" horiz-adv-x="1213" 
d="M582 1550h-148l231 299h198zM320 1283v-608h318q154 1 239 81t85 224t-84 224t-240 79h-318zM140 1443h545q203 1 333 -129t129 -334q0 -204 -130 -335q-130 -130 -334 -130h-363v-515h-180v1443z" />
    <glyph glyph-name="pacute" unicode="&#x1e55;" horiz-adv-x="1163" 
d="M682 1250h-148l211 300h198zM606 145q142 -1 228 107t86 286t-86 287q-86 108 -228 108q-141 0 -228 -109t-87 -285q1 -176 87 -285t228 -109zM636 1088q206 0 334 -152t128 -397t-127 -397t-331 -152q-114 0 -204 48t-140 137h-4v-535h-174v1438h165v-175h4
q47 85 142 135t207 50z" />
    <glyph glyph-name="Pdotaccent" unicode="&#x1e56;" horiz-adv-x="1213" 
d="M505 1585q-49 -1 -85 35t-36 86t36 86t85 35q49 1 85 -35t36 -86t-36 -86t-85 -35zM320 1283v-608h318q154 1 239 81t85 224t-84 224t-240 79h-318zM140 1443h545q203 1 333 -129t129 -334q0 -204 -130 -335q-130 -130 -334 -130h-363v-515h-180v1443z" />
    <glyph glyph-name="pdotaccent" unicode="&#x1e57;" horiz-adv-x="1163" 
d="M608 1261q-52 1 -88 37t-36 87t36 87t88 37q52 -1 88 -37t36 -87t-36 -87t-88 -37zM606 145q142 -1 228 107t86 286t-86 287q-86 108 -228 108q-141 0 -228 -109t-87 -285q1 -176 87 -285t228 -109zM636 1088q206 0 334 -152t128 -397t-127 -397t-331 -152
q-114 0 -204 48t-140 137h-4v-535h-174v1438h165v-175h4q47 85 142 135t207 50z" />
    <glyph glyph-name="Rdotaccent" unicode="&#x1e58;" horiz-adv-x="1237" 
d="M535 1585q-49 -1 -85 35t-36 86t36 86t85 35q49 1 85 -35t36 -86t-36 -86t-85 -35zM320 571v-571h-180v1443h551q209 1 335 -117t125 -313q0 -151 -77 -261t-213 -153l334 -599h-211l-309 571h-355zM320 1283v-553h355q139 0 215 72t75 204q0 132 -79 204q-79 73 -219 73
h-347z" />
    <glyph glyph-name="rdotaccent" unicode="&#x1e59;" horiz-adv-x="649" 
d="M366 1261q-52 1 -88 37t-36 87t36 87t88 37q52 -1 88 -37t36 -87t-36 -87t-88 -37zM118 0v1078h164v-175h4q24 85 95 135t166 50q42 0 72 -6v-171q-28 10 -95 10q-104 0 -168 -70t-64 -184v-667h-174z" />
    <glyph glyph-name="Rdotbelow" unicode="&#x1e5a;" horiz-adv-x="1237" 
d="M535 -392q-49 0 -85 36t-36 85t36 85t85 36t85 -36t36 -85t-36 -85t-85 -36zM320 571v-571h-180v1443h551q209 1 335 -117t125 -313q0 -151 -77 -261t-213 -153l334 -599h-211l-309 571h-355zM320 1283v-553h355q139 0 215 72t75 204q0 132 -79 204q-79 73 -219 73h-347z
" />
    <glyph glyph-name="rdotbelow" unicode="&#x1e5b;" horiz-adv-x="649" 
d="M205 -392q-49 0 -85 36t-36 85t36 85t85 36t85 -36t36 -85t-36 -85t-85 -36zM118 0v1078h164v-175h4q24 85 95 135t166 50q42 0 72 -6v-171q-28 10 -95 10q-104 0 -168 -70t-64 -184v-667h-174z" />
    <glyph glyph-name="Rdotbelowmacron" unicode="&#x1e5c;" horiz-adv-x="1237" 
d="M852 1748v-106h-634v106h634zM535 -392q-49 0 -85 36t-36 85t36 85t85 36t85 -36t36 -85t-36 -85t-85 -36zM320 571v-571h-180v1443h551q209 1 335 -117t125 -313q0 -151 -77 -261t-213 -153l334 -599h-211l-309 571h-355zM320 1283v-553h355q139 0 215 72t75 204
q0 132 -79 204q-79 73 -219 73h-347z" />
    <glyph glyph-name="rdotbelowmacron" unicode="&#x1e5d;" horiz-adv-x="649" 
d="M683 1426v-106h-634v106h634zM205 -392q-49 0 -85 36t-36 85t36 85t85 36t85 -36t36 -85t-36 -85t-85 -36zM118 0v1078h164v-175h4q24 85 95 135t166 50q42 0 72 -6v-171q-28 10 -95 10q-104 0 -168 -70t-64 -184v-667h-174z" />
    <glyph glyph-name="Rlinebelow" unicode="&#x1e5e;" horiz-adv-x="1237" 
d="M852 -220v-106h-634v106h634zM320 571v-571h-180v1443h551q209 1 335 -117t125 -313q0 -151 -77 -261t-213 -153l334 -599h-211l-309 571h-355zM320 1283v-553h355q139 0 215 72t75 204q0 132 -79 204q-79 73 -219 73h-347z" />
    <glyph glyph-name="rlinebelow" unicode="&#x1e5f;" horiz-adv-x="649" 
d="M522 -220v-106h-634v106h634zM118 0v1078h164v-175h4q24 85 95 135t166 50q42 0 72 -6v-171q-28 10 -95 10q-104 0 -168 -70t-64 -184v-667h-174z" />
    <glyph glyph-name="Sdotaccent" unicode="&#x1e60;" horiz-adv-x="1216" 
d="M622 1585q-50 -1 -86 35t-35 86q-1 50 35 86t86 35q50 1 86 -35t35 -86q1 -50 -35 -86t-86 -35zM618 138q150 0 246 70t96 168t-66 157t-213 97l-185 48q-200 50 -292 142t-92 239q0 180 142 294t363 114q220 1 361 -115t147 -297h-180q-12 116 -100 183q-89 67 -229 67
t-228 -66t-89 -160q1 -95 65 -147t211 -90l151 -40q224 -56 322 -149t98 -248q0 -197 -146 -313t-384 -116q-240 0 -386 115t-159 306h181q12 -117 114 -188t252 -71z" />
    </font>
</defs>
</svg>
